<svg width="100" height="100" viewBox="0 0 100 100" fill="none" xmlns="http://www.w3.org/2000/svg">
<rect width="100" height="100" fill="#08111C"/>
<g clip-path="url(#clip0_447_6283)">
<path d="M87.9971 59.0082C88.0199 57.3071 87.9514 55.4273 87.0856 53.9304C87.028 53.4882 86.7847 53.1306 86.5326 52.7762C86.4924 52.7064 86.4522 52.6355 86.4109 52.5647C85.858 51.3428 84.5587 50.5452 84.0361 49.4968C85.8449 44.4761 85.0139 38.3193 80.3522 34.9711V34.9795C80.3329 34.9299 80.301 34.8858 80.2597 34.8512C80.2183 34.8167 80.1687 34.7928 80.1154 34.7817C80.0373 34.6732 79.9215 34.5958 79.7894 34.5638C79.7894 34.5638 79.7894 34.5723 79.7894 34.5765C79.7641 34.5433 79.7315 34.516 79.6938 34.4968C79.6562 34.4775 79.6146 34.4668 79.5722 34.4654C79.6058 34.4723 79.64 34.4758 79.6743 34.476L79.457 34.3565V34.3628L79.3484 34.2686C78.6346 33.8254 77.8686 33.4673 77.067 33.2023L76.9692 33.1029C76.0773 32.2153 76.8193 30.7173 76.2185 29.7177C75.7502 27.895 74.8159 26.2173 73.5026 24.8408C73.357 24.5235 72.9594 24.2008 72.7345 24.0093C72.7051 23.9808 72.6139 23.8909 72.6258 23.9035C72.3542 23.6761 72.1641 23.3566 71.8654 23.2688C71.3506 22.7904 70.7623 22.3931 70.1217 22.0914L69.9045 21.9835C69.8317 21.9465 69.7589 21.9094 69.6872 21.8777C69.5366 21.7492 69.3442 21.6765 69.144 21.6725C67.6231 20.7415 65.4774 21.316 64.1542 20.1809H64.1705C63.183 19.0172 62.9614 17.3965 62.1987 16.07C62.1738 15.815 61.9695 15.6553 61.8663 15.4352C61.7946 15.3294 61.7218 15.2236 61.649 15.1179C60.0709 12.8522 57.6592 11.2634 54.9124 10.6801C47.8683 8.73039 38.5775 10.8461 36.6308 18.6745C35.665 21.9539 31.3607 20.4813 29.1543 22.5124C27.1119 23.7396 25.1835 25.9696 24.3742 28.1245C23.0151 29.6944 24.2851 32.4882 22.5273 33.4012C22.2518 33.4541 21.9919 33.5665 21.7669 33.7302V33.7228C21.441 33.8 21.1944 34.0021 20.8978 34.1597C19.1031 35.1118 17.4214 36.8266 16.4436 38.7086C16.285 39.0386 16.0536 39.2989 15.9884 39.6543C15.895 39.6987 15.8993 39.7908 15.8852 39.8733C15.7766 40.05 15.6484 40.325 15.6679 40.5006C15.5495 40.5556 15.4832 40.7471 15.5593 40.818C14.7163 42.9337 14.7782 45.7086 15.5473 47.8222C15.6983 48.4781 16.1307 49.1043 15.7787 49.8163C10.3012 54.5683 10.6923 64.1823 17.3551 67.7336C19.3692 68.9576 17.6256 73.3668 19.5963 75.7365C19.6723 75.8775 19.7477 76.0186 19.8223 76.1596C22.5436 81.5939 30.3134 83.4145 35.4759 80.4081C35.6215 80.3287 35.7671 80.3023 35.9105 80.1785L36.4537 79.8696L36.6764 79.7638L36.6699 79.7691C37.4629 79.6633 38.2658 80.2441 38.2114 81.0555C39.9203 92.6604 45.9486 89.51 55.2383 89.8486C62.9429 90.3775 59.6762 76.9202 64.4573 80.3901C64.6844 80.4895 64.8506 80.6852 65.1092 80.7212C65.2319 80.8428 65.4351 80.8777 65.5372 80.9232C65.7892 81.0809 66.1412 81.2406 66.4063 81.2406C70.0848 82.3567 74.8008 81.9515 77.6449 79.2645L77.621 79.2507C78.0556 79.0307 78.5988 78.4309 78.8041 78.0733C82.8107 74.6289 80.4 69.1808 82.7542 67.6236C84.3425 66.7371 85.682 65.5078 86.5402 63.9041H86.5272C86.7901 63.5497 87.0964 63.0578 87.179 62.6293C87.3728 62.3857 87.4864 62.0907 87.5049 61.783C87.8515 60.9177 87.9384 59.937 87.9971 59.0082Z" fill="#B2C08B"/>
<path d="M38.0371 80.3867C40.4532 83.1954 43.4842 84.4691 47.1269 84.7113C49.9515 84.8986 52.7934 84.9684 55.5778 84.2723C57.8592 83.7032 59.9429 82.7765 61.5855 81.068C61.7735 80.8712 61.9527 80.6671 62.1363 80.4661C61.8745 82.5533 61.2324 84.5368 60.4589 86.496C59.5572 88.7757 57.8853 89.9447 55.379 89.9711C51.7614 90.0081 48.1448 90.0187 44.5282 89.9711C42.0578 89.9373 40.4934 88.7069 39.6026 86.5256C38.8617 84.7134 38.5597 83.1086 38.1653 81.1992C38.1327 81.0373 38.0491 80.5496 38.0371 80.3867Z" fill="#E36920"/>
<path d="M54.793 36.5718C54.793 32.152 58.5106 28.5721 63.1157 28.5742C67.7209 28.5763 71.3809 32.3635 71.3223 36.6744C71.2625 41.0297 67.6666 44.5196 63.107 44.5217C58.4226 44.5239 54.7973 41.0583 54.793 36.5718ZM61.3906 32.2345C58.7572 32.2123 56.6941 34.254 56.6778 36.8976C56.6626 39.3953 58.8093 41.5417 61.3297 41.547C62.5845 41.5504 63.79 41.0712 64.6837 40.2135C65.5775 39.3559 66.0873 38.1892 66.1022 36.9674C66.1337 34.4497 64.0283 32.1573 61.3906 32.2345Z" fill="#FDFDFC"/>
<path d="M45.1284 36.5614C45.123 41.05 41.4869 44.5061 36.8057 44.5283C32.7198 44.5463 28.7089 41.4012 28.6513 36.6608C28.6351 35.6013 28.8361 34.5492 29.2425 33.5662C29.6489 32.5832 30.2525 31.689 31.0181 30.9359C31.7837 30.1828 32.6959 29.586 33.7012 29.1803C34.7065 28.7746 35.7848 28.5683 36.873 28.5733C41.4749 28.5829 45.1361 32.1236 45.1284 36.5614ZM43.412 36.8565C43.4033 34.2118 41.3609 32.2505 38.671 32.2315C36.2027 32.2146 33.9996 34.1251 33.9691 36.9221C33.942 39.4303 36.1126 41.5461 38.6471 41.5493C41.3261 41.5525 43.4207 39.4896 43.412 36.8565Z" fill="#FDFDFC"/>
<path d="M55.4303 52.1342L55.3304 52.222C55.2826 52.2612 55.2359 52.3014 55.1892 52.3416C54.0713 53.1297 52.8806 53.7422 51.4879 53.9538C47.9789 54.4827 44.9696 53.1646 43.0565 50.2237C42.6089 49.535 42.2265 48.8326 42.1874 47.9873C42.1704 47.7069 42.2109 47.426 42.3066 47.161C42.4023 46.896 42.5512 46.6522 42.7447 46.4439L42.8653 46.3381V46.3455C43.4888 45.9668 44.1352 45.9509 44.799 46.2397L45 46.3793L44.9891 46.3656L45.1217 46.4714L45.1097 46.4587L45.2292 46.5772L45.2162 46.5655L45.3248 46.6914L45.3107 46.6808L45.403 46.8025V46.8205L45.528 47.0056H45.5215C45.5562 47.0754 45.5899 47.1453 45.6236 47.2172V47.2341C45.7539 47.6097 45.7702 48.0201 45.993 48.3682V48.3618C46.0049 48.4475 46.0038 48.5395 46.1016 48.5861L46.0929 48.5766C46.1103 48.6612 46.1201 48.7501 46.2157 48.7881L46.308 48.9204H46.2993C46.3286 48.9574 46.3569 48.9944 46.3851 49.0325L46.3927 49.0621L46.5416 49.2208C46.6122 49.2938 46.6839 49.3668 46.7589 49.4408V49.4334L46.8784 49.5488L46.8675 49.5382C46.9088 49.5752 46.9501 49.6122 46.9903 49.6503L46.9816 49.6408L47.1032 49.7466L47.2912 49.8915L47.3249 49.8778L47.2944 49.8957L47.6204 50.0988V50.0862L47.7594 50.1708C49.1619 50.8997 50.584 50.8997 52.0224 50.2766L52.0159 50.2819C52.1038 50.2713 52.1973 50.2723 52.2473 50.1761L52.2386 50.1835C52.3255 50.1676 52.4146 50.1539 52.4558 50.0629H52.4493L52.5873 49.9761V49.9878L52.7872 49.8502H52.7807L52.9132 49.7497L52.9045 49.7624L53.0294 49.6672H53.0371L53.2196 49.5181C53.8562 49.0293 54.1799 48.3544 54.3972 47.6224C54.4265 47.5219 54.4407 47.4171 54.4635 47.3145C54.5927 46.7359 54.7557 46.1826 55.4564 46.0133C56.1886 45.8367 56.8057 46.0207 57.3196 46.5528C57.3573 46.5903 57.3972 46.6256 57.4391 46.6586C57.6411 47.0902 57.7878 47.5145 57.7052 48.0169C57.6292 48.4824 57.5075 48.9352 57.4152 49.3922L57.4239 49.3837C57.313 49.632 57.2019 49.8788 57.0903 50.1242H57.0969L56.9784 50.3422L56.986 50.3326L56.7764 50.6606L56.5515 50.9779L56.3733 51.1514H56.3809L56.2799 51.2752L56.2929 51.2657L56.1843 51.3895L56.1952 51.3799L56.0865 51.4995L56.0963 51.491L55.9822 51.6074L55.992 51.601L55.8769 51.7153L55.5575 52.0327L55.4303 52.1342Z" fill="#010101"/>
<path d="M61.3906 32.2343C64.0283 32.1571 66.1337 34.4495 66.099 36.9673C66.0841 38.1885 65.5747 39.3547 64.6817 40.2123C63.7886 41.0698 62.584 41.5494 61.3298 41.5468C58.8093 41.5468 56.6583 39.3951 56.6779 36.8975C56.6942 34.2538 58.7572 32.2153 61.3906 32.2343Z" fill="#010101"/>
<path d="M43.4118 36.8566C43.4205 39.4897 41.326 41.5525 38.647 41.5494C36.1124 41.5494 33.9418 39.4336 33.969 36.9222C33.9983 34.1252 36.2026 32.2146 38.6709 32.2316C41.3607 32.2506 43.4031 34.213 43.4118 36.8566Z" fill="#010101"/>
</g>
<defs>
<clipPath id="clip0_447_6283">
<rect width="76" height="80" fill="white" transform="translate(12 10)"/>
</clipPath>
</defs>
</svg>
