<svg width="100" height="100" viewBox="0 0 100 100" fill="none" xmlns="http://www.w3.org/2000/svg">
<rect width="100" height="100" fill="#08111C"/>
<path d="M76.0289 29.8785C76.6348 30.5113 76.9795 31.3161 77.4205 32.0493C79.9555 36.2305 81.9102 40.6586 82.955 45.4544C83.3361 47.2008 83.6583 48.9548 83.8114 50.745C83.9334 52.2189 84.0255 53.6875 83.9902 55.1635C83.949 57.3042 83.6933 59.4353 83.2269 61.5251C82.1254 66.3006 80.0069 70.5523 76.6037 74.1265C73.4768 77.412 69.6851 79.5614 65.3132 80.7157C64.384 80.9615 64.3284 81.0299 64.308 81.9716C64.2791 83.3407 64.4151 84.7131 64.2138 86.078C63.8103 88.8644 61.6564 90.815 58.7993 90.9753C57.3787 91.0554 55.9817 90.955 54.695 90.2763C52.8634 89.3143 51.8421 87.7763 51.5852 85.7317C51.5108 85.0592 51.4808 84.3826 51.4953 83.7063C51.4953 83.081 51.1741 82.7636 50.5457 82.7518C50.1721 82.7433 49.7964 82.7454 49.4228 82.7518C48.651 82.7518 48.347 83.0447 48.3523 83.8057C48.3523 84.8745 48.3405 85.9433 48.0376 86.9779C47.7107 88.0909 47.0391 89.072 46.1192 89.7803C45.2584 90.4439 44.2246 90.8464 43.1411 90.94C41.6339 91.08 40.1437 91.033 38.7521 90.3404C36.6539 89.2951 35.7322 87.5123 35.6477 85.2518C35.6027 84.0964 35.6177 82.9367 35.6477 81.7792C35.6616 81.1977 35.4111 80.8846 34.8726 80.7424C32.6417 80.1451 30.5051 79.24 28.5246 78.0533C25.108 76.0416 22.2314 73.2321 20.1415 69.8662C18.8232 67.7398 17.8099 65.4394 17.1313 63.0321C16.0319 59.2175 15.8328 55.3249 16.1154 51.382C16.2284 49.6081 16.4696 47.8446 16.8369 46.1053C17.479 43.0895 18.4549 40.1543 19.7465 37.3538C20.969 34.7351 22.386 32.2113 23.9857 29.8037L24.5927 30.0698C24.795 30.1821 24.9952 30.2986 25.2007 30.4055C30.2133 33.0357 35.6276 34.8187 41.2239 35.6822C43.8766 36.0916 46.5367 36.3994 49.2194 36.4731C51.5895 36.5394 53.9478 36.3513 56.3029 36.0841C59.5456 35.7079 62.7477 35.0397 65.8699 34.0875C69.1777 33.0914 72.3293 31.7051 75.3898 30.1094L76.0289 29.8785ZM63.0534 42.3644C60.9115 42.375 58.8602 43.229 57.3454 44.741C55.8305 46.2529 54.9745 48.3007 54.9632 50.4392C54.9519 52.5778 55.7863 54.6344 57.2851 56.1623C58.784 57.6901 60.8261 58.5656 62.9678 58.5987C67.4853 58.5987 71.1196 55.0043 71.1817 50.5826C71.2427 46.2186 67.7593 42.3206 63.0534 42.3644ZM37.0329 42.3644C32.7584 42.2405 28.9185 45.7847 28.8971 50.542C28.8779 55.0011 32.5786 58.6008 37.1196 58.5998C41.5311 58.5998 45.1483 54.985 45.1633 50.6114C45.1794 45.9952 41.4048 42.2469 37.0329 42.3634V42.3644ZM50.0051 67.9957C50.6474 67.9658 51.2897 67.9508 51.916 67.7927C54.711 67.083 56.7332 65.5257 57.505 62.6292C57.6324 62.1514 57.7502 61.6512 57.4697 61.181C57.1892 60.7107 56.7782 60.4766 56.2204 60.5397C55.6852 60.6006 55.2784 60.9971 55.1596 61.647C55.0065 62.4903 54.6843 63.2502 54.0827 63.8583C52.4651 65.5022 50.4697 65.7469 48.3609 65.2189C46.4929 64.7519 45.2682 63.5698 44.8603 61.6202C44.6944 60.8325 44.0585 60.4082 43.3981 60.5514C42.7376 60.6946 42.3276 61.3691 42.4346 62.1311C42.5251 62.8161 42.7453 63.4777 43.0833 64.0807C44.612 66.758 47.0249 67.8782 50.0051 67.9957Z" fill="#FFCD50"/>
<path d="M24.5913 30.0646L23.9843 29.8038C23.0455 29.325 22.1184 28.8472 21.55 27.8799C20.9666 26.8923 20.8734 25.8673 21.2706 24.8178C22.5156 21.5386 24.6073 18.8324 27.1176 16.4372C30.5892 13.1238 34.6646 10.828 39.2624 9.45994C42.1175 8.62447 45.066 8.14837 48.0394 8.04269C52.5687 7.85671 57.0315 8.25645 61.3456 9.67584C67.4881 11.7066 72.6501 15.1492 76.4557 20.4602C77.3766 21.7298 78.13 23.1124 78.6973 24.5741C79.3942 26.3911 78.7936 28.2273 77.1451 29.2608C76.7854 29.4864 76.3957 29.6745 76.0275 29.8786L75.3852 30.1116C75.2353 29.4543 74.957 28.8386 74.6861 28.2294C70.6397 19.2225 63.7617 13.8848 53.9442 12.4687C50.1975 11.9278 46.4379 12.1042 42.7672 13.1003C33.7269 15.5543 27.7118 21.2714 24.5913 30.0646Z" fill="#11AE24"/>
<path d="M24.5918 30.0639C27.7123 21.2708 33.7274 15.5537 42.7677 13.0997C46.4385 12.1035 50.1938 11.924 53.9448 12.468C63.7623 13.8842 70.6445 19.2197 74.6899 28.2288C74.964 28.838 75.2391 29.4536 75.3889 30.111C72.3284 31.7067 69.1801 33.093 65.869 34.0891C62.7468 35.0413 59.5448 35.7095 56.302 36.0856C53.9469 36.3529 51.5918 36.541 49.2185 36.4747C46.5359 36.401 43.8757 36.0931 41.223 35.6838C35.6282 34.8174 30.2157 33.0318 25.2052 30.3995C24.9911 30.2927 24.7941 30.1762 24.5918 30.0639ZM33.3913 21.1008L33.2767 21.2612C33.0937 21.4749 32.917 21.7005 32.7254 21.9089C31.7428 22.9637 30.842 24.0917 30.031 25.2831C29.2902 26.3829 29.5375 27.549 30.6476 28.2833C30.8868 28.4367 31.1349 28.5759 31.3905 28.7001C34.1439 30.097 37.0154 31.2487 39.9716 32.1417C41.1918 32.5254 42.4373 32.8236 43.6991 33.0342C44.8927 33.2234 45.9086 32.5714 46.0681 31.5133C46.1462 30.9917 45.9236 30.5385 45.6923 30.0981C43.7558 26.4032 41.3986 22.9766 38.9653 19.6002C38.1657 18.4919 36.7087 18.3262 35.6029 19.1214C35.2133 19.4025 34.936 19.8129 34.5014 20.0363L34.344 20.1496L34.3547 20.141L34.238 20.2575L34.2477 20.2479L34.131 20.3644L34.1406 20.3548L34.0239 20.4713L34.0336 20.4617L33.9169 20.5782L33.9265 20.5686L33.8098 20.6851L33.8195 20.6755L33.7028 20.792L33.7124 20.7823L33.5957 20.8988L33.6064 20.8892L33.4887 21.0057L33.4983 20.9961L33.3816 21.1126L33.3913 21.1008ZM48.5816 15.2491C47.54 15.356 46.5006 15.4853 45.4568 15.5441C44.1208 15.62 43.2966 16.6567 43.6231 17.9468C44.4587 21.293 45.7037 24.5237 47.3302 27.5661C47.7766 28.3955 48.2423 29.2217 48.9477 29.8748C49.6864 30.5577 50.3918 30.546 51.1133 29.8523C51.6593 29.3275 52.0639 28.7001 52.4311 28.0471C54.2274 24.8513 55.4381 21.429 56.3331 17.8869C56.3995 17.6178 56.4056 17.3373 56.3509 17.0656C56.2962 16.7938 56.1821 16.5375 56.0168 16.3148C55.8515 16.0921 55.6389 15.9087 55.3944 15.7775C55.1498 15.6463 54.8793 15.5706 54.6021 15.5558C53.5187 15.4831 52.4439 15.3089 51.3563 15.3121C51.306 15.0449 51.0908 15.1272 50.9281 15.124C50.4325 15.1144 49.9347 15.1016 49.4401 15.124C49.1543 15.1433 48.8385 15.0075 48.5816 15.2491ZM70.3127 26.4716C70.3458 26.0815 70.1713 25.6583 69.8984 25.2724C68.345 23.0514 66.5159 21.036 64.4549 19.2742C63.2452 18.2503 61.7551 18.4192 60.8281 19.7018C58.9815 22.2573 57.2194 24.8684 55.5923 27.5683C55.0067 28.5042 54.4755 29.4731 54.0015 30.4701C53.5251 31.5154 54.0315 32.7905 55.2861 33C55.8331 33.0783 56.39 33.0544 56.9282 32.9294C61.2712 32.0477 65.3488 30.4444 69.2325 28.3517C69.9016 27.9915 70.3137 27.3791 70.3137 26.4684L70.3127 26.4716Z" fill="#FEF39F"/>
<path d="M63.0532 42.3646C67.7634 42.3208 71.2425 46.2188 71.1815 50.5828C71.1194 55.0044 67.4851 58.5989 62.9676 58.5989C60.8259 58.5658 58.7838 57.6903 57.285 56.1624C55.7861 54.6346 54.9517 52.578 54.963 50.4394C54.9743 48.3009 55.8304 46.2531 57.3452 44.7412C58.8601 43.2292 60.9113 42.3752 63.0532 42.3646ZM64.5273 50.8083C64.5273 48.505 62.6957 46.6399 60.4455 46.6399C58.1632 46.6399 56.3776 48.4954 56.3776 50.8596C56.3717 51.3963 56.4726 51.9288 56.6744 52.4262C56.8763 52.9236 57.1752 53.376 57.5536 53.7572C57.9321 54.1383 58.3826 54.4406 58.8791 54.6465C59.3755 54.8523 59.908 54.9577 60.4455 54.9563C62.6925 54.9702 64.5305 53.1041 64.5273 50.8104V50.8083Z" fill="#FDF9ED"/>
<path d="M37.0328 42.3635C41.4047 42.247 45.1793 45.9975 45.1686 50.6105C45.1525 54.9841 41.5364 58.5967 37.1249 58.5988C32.5839 58.5988 28.8821 55.0001 28.9024 50.541C28.9185 45.7869 32.7584 42.2395 37.0328 42.3635ZM43.6806 50.8232C43.686 48.5113 41.8886 46.6548 39.6406 46.6441C37.3925 46.6334 35.5374 48.4835 35.5256 50.7751C35.5138 53.0923 37.3154 54.9531 39.5763 54.9595C40.1182 54.9581 40.6544 54.8499 41.1542 54.641C41.6541 54.4322 42.1077 54.1269 42.489 53.7425C42.8704 53.3582 43.1719 52.9025 43.3764 52.4015C43.5809 51.9005 43.6843 51.3642 43.6806 50.8232Z" fill="#FDF9ED"/>
<path d="M50.004 67.9959C47.0237 67.8784 44.6109 66.7583 43.0843 64.0809C42.7447 63.4779 42.5231 62.816 42.4313 62.1303C42.3243 61.3682 42.7236 60.6959 43.3948 60.5506C44.066 60.4052 44.6911 60.8327 44.8571 61.6194C45.2649 63.5689 46.4896 64.751 48.3576 65.2181C50.4686 65.7461 52.4619 65.5003 54.0794 63.8575C54.681 63.2472 55.0032 62.4894 55.1563 61.6461C55.2751 60.9963 55.6916 60.5997 56.2172 60.5388C56.7749 60.4758 57.1881 60.7141 57.4664 61.1801C57.7448 61.6461 57.6291 62.1506 57.5018 62.6284C56.7331 65.5248 54.7078 67.0821 51.9127 67.7918C51.2929 67.9511 50.6484 67.966 50.004 67.9959Z" fill="#010101"/>
<path d="M70.3132 26.4689C70.3132 27.3796 69.9011 27.992 69.232 28.3522C65.3482 30.4449 61.2707 32.0481 56.9309 32.9299C56.3927 33.0549 55.8358 33.0788 55.2888 33.0005C54.0352 32.7867 53.5289 31.5159 54.0042 30.4706C54.4772 29.474 55.0073 28.5055 55.5917 27.5698C57.2189 24.87 58.9809 22.2589 60.8275 19.7033C61.7546 18.4207 63.2447 18.2476 64.4544 19.2758C66.5154 21.0375 68.3445 23.053 69.8978 25.274C70.1719 25.6556 70.3464 26.0788 70.3132 26.4689Z" fill="#FFCD50"/>
<path d="M34.5012 20.0358C34.9358 19.8124 35.2131 19.4019 35.6027 19.1208C36.7086 18.3256 38.1655 18.4913 38.9652 19.5997C41.3984 22.9761 43.7556 26.4027 45.6922 30.0976C45.9234 30.5379 46.146 30.9911 46.0679 31.5127C45.9084 32.5719 44.8904 33.2228 43.6989 33.0347C42.4371 32.8242 41.1916 32.526 39.9714 32.1422C37.0153 31.2492 34.1438 30.0976 31.3903 28.7006C31.1347 28.5764 30.8866 28.4372 30.6474 28.2838C29.5373 27.5495 29.29 26.3835 30.0308 25.2836C30.8418 24.0922 31.7426 22.9642 32.7252 21.9094C32.9169 21.701 33.0935 21.4819 33.2765 21.2617L33.3911 21.1014L33.3815 21.112L33.4981 20.9955L33.4885 21.0052L33.6063 20.8887L33.5956 20.8983L33.7122 20.7818L33.7026 20.7914L33.8193 20.6749L33.8097 20.6845L33.9263 20.568L33.9167 20.5776L34.0334 20.4611L34.0238 20.4708L34.1404 20.3543L34.1308 20.3639L34.2475 20.2474L34.2379 20.257L34.3545 20.1405L34.3449 20.149L34.5012 20.0358Z" fill="#FFCD50"/>
<path d="M51.3574 15.3156C52.445 15.3156 53.5198 15.4866 54.6032 15.5593C54.8804 15.5741 55.1509 15.6498 55.3955 15.781C55.64 15.9122 55.8526 16.0956 56.0179 16.3183C56.1832 16.541 56.2973 16.7973 56.352 17.0691C56.4066 17.3408 56.4006 17.6213 56.3341 17.8904C55.4392 21.4325 54.2285 24.8548 52.4322 28.0506C52.065 28.7036 51.6604 29.3332 51.1144 29.8558C50.3929 30.5495 49.6874 30.5612 48.9488 29.8783C48.2433 29.2252 47.7777 28.399 47.3313 27.5696C45.7048 24.5272 44.4597 21.2965 43.6242 17.9503C43.2977 16.657 44.1219 15.6202 45.4579 15.5444C46.5016 15.4856 47.5411 15.3509 48.5827 15.2494C49.5065 15.2387 50.4346 15.1746 51.3574 15.3156Z" fill="#FFCD50"/>
<path d="M51.3568 15.3155C50.434 15.1744 49.508 15.2385 48.582 15.2492C48.839 15.0077 49.1547 15.1423 49.4384 15.1295C49.933 15.1049 50.4308 15.1178 50.9264 15.1295C51.0913 15.1306 51.3064 15.0536 51.3568 15.3155Z" fill="#FDF9ED"/>
<path d="M64.5273 50.8097C64.5273 53.1023 62.6924 54.9695 60.4412 54.961C59.9036 54.9623 59.3712 54.857 58.8747 54.6511C58.3783 54.4453 57.9278 54.143 57.5493 53.7618C57.1708 53.3807 56.872 52.9283 56.6701 52.4308C56.4682 51.9334 56.3673 51.4009 56.3733 50.8642C56.3733 48.5 58.16 46.6477 60.4412 46.6445C62.6956 46.6413 64.5251 48.5075 64.5273 50.8097Z" fill="#010101"/>
<path d="M43.6805 50.8227C43.6842 51.3636 43.5808 51.9 43.3764 52.401C43.1719 52.902 42.8703 53.3577 42.489 53.742C42.1076 54.1263 41.654 54.4317 41.1542 54.6405C40.6543 54.8494 40.1181 54.9576 39.5763 54.959C37.3154 54.9526 35.5084 53.0918 35.5255 50.7746C35.5373 48.483 37.3785 46.635 39.6405 46.6436C41.9025 46.6521 43.6859 48.5076 43.6805 50.8227Z" fill="#010101"/>
</svg>
