<svg width="100" height="100" viewBox="0 0 100 100" fill="none" xmlns="http://www.w3.org/2000/svg">
<rect width="100" height="100" fill="#08111C"/>
<g clip-path="url(#clip0_447_6282)">
<path d="M87.1032 55.5887C87.0662 55.4883 87.0377 55.3857 87.0059 55.2832L87.0154 55.294C86.7665 54.7902 86.5197 54.284 86.275 53.7752C86.1738 53.6898 86.1035 53.5724 86.0751 53.4416L85.9535 53.2365C85.8175 53.1153 85.711 52.9634 85.6425 52.7929L85.6478 52.7993C85.56 52.6795 85.4711 52.5608 85.3823 52.441L85.3611 52.4042L84.8999 51.8321L84.9063 51.8386C84.8566 51.7825 84.8079 51.7307 84.7571 51.6713L84.7444 51.654C84.6152 51.5765 84.5112 51.4621 84.4451 51.3248H84.4578L84.3457 51.2244L84.3235 51.219L84.0231 50.9081V50.8919L83.9173 50.784V50.7915L83.7375 50.6372L83.7491 50.6458L83.6264 50.5368V50.5465C83.3821 50.024 83.6973 49.548 83.7882 49.0709C84.1183 47.3307 84.1362 45.5885 83.9903 43.8343C83.5608 40.5323 82.2979 37.636 80.0269 35.2094C78.7925 33.8881 77.3412 32.8723 75.7958 31.971C73.5873 30.858 71.2391 30.2007 68.8242 29.7905C68.2583 29.6944 68.326 29.3587 68.2879 28.9657C68.1007 27.0108 67.7971 25.0797 67.118 23.2273L67.1286 23.2381C67.0525 23.0546 66.9752 22.8711 66.8991 22.6865C66.2165 21.2797 65.3767 19.9583 64.3964 18.7486L64.2695 18.5845L64.2822 18.6061L64.1616 18.4819L64.1764 18.4971L64.0601 18.3686L64.0696 18.3815L63.858 18.1538L63.8686 18.1624L63.7459 18.0448L63.7544 18.0566L63.5354 17.8343L63.5492 17.8429L63.4223 17.7209L63.3366 17.6356L63.1811 17.505C62.2216 16.6928 61.2141 15.9415 60.1644 15.2554C59.8228 15.1116 59.4995 14.9261 59.2018 14.7027L59.2145 14.7124C59.1309 14.6962 59.0389 14.6962 58.9956 14.6045C58.9152 14.5872 58.8295 14.5786 58.784 14.4965C58.6275 14.4654 58.4817 14.3933 58.3609 14.2871C58.2795 14.2688 58.1864 14.2709 58.1409 14.1792C57.8365 14.0889 57.5472 13.9521 57.2831 13.7733L57.2714 13.7819C53.5576 12.2966 49.6757 11.9296 45.7282 12.0105C45.6748 12.0394 45.6161 12.0567 45.5558 12.0611C45.4955 12.0656 45.435 12.0572 45.378 12.0364L45.1559 12.0688C43.3901 12.1596 41.6324 12.372 39.8946 12.7046C37.8299 13.0878 35.8318 13.7193 33.8337 14.353L33.345 14.53L33.3355 14.516L31.7489 15.1453C31.6272 15.2101 31.5088 15.2835 31.3829 15.3385C29.2863 16.2463 27.2596 17.3137 25.3199 18.5316C22.9849 20.0009 20.8095 21.7193 18.8305 23.658L18.6772 23.8167L18.6602 23.835L18.1917 24.3057L17.9801 24.527H17.9854L17.7739 24.7547L17.7813 24.7439L17.6638 24.8627L17.6734 24.8551L17.3497 25.2178C16.2749 26.547 15.3251 27.9764 14.5128 29.4871L14.4239 29.621L14.4377 29.6588L13.8951 30.9034L13.9046 30.9261C13.3112 32.6424 12.9336 34.3976 13.0097 36.2306C13.0245 36.5695 13.0647 36.9074 13.0933 37.2453L13.0996 37.4612C13.1123 37.6036 13.1832 37.7461 13.1049 37.8929C13.1134 37.9238 13.1166 37.956 13.1144 37.9879C13.3969 38.5784 13.4413 39.2401 13.6518 39.8533C13.9727 40.7723 14.366 41.6633 14.828 42.5174L14.8185 42.5109L15.2479 43.1737L15.2384 43.1618L15.3844 43.3572L15.56 43.6044L15.5526 43.5969L15.7017 43.7577V43.7879L15.7969 43.884C15.8045 43.8868 15.8119 43.89 15.8191 43.8937L16.2031 44.3482L16.1872 44.3385L16.312 44.4604L16.2983 44.4442L16.5321 44.6601L16.5246 44.6493L16.7447 44.8339L16.77 44.8588L16.9277 45.0099L16.9213 45.0034L17.3508 45.3337L17.3433 45.3273L17.8659 45.6792C18.7614 46.2232 19.7264 46.638 20.7334 46.9119C20.817 46.9372 20.9027 46.9542 20.9894 46.9626C21.3205 46.9691 21.3967 47.062 21.275 47.4225C20.5185 49.5993 20.154 51.8978 20.1993 54.207C20.2342 55.6653 20.505 57.0827 20.8826 58.4827H20.8657L21.4876 60.1203C22.4629 62.2652 23.8295 64.0917 25.7007 65.5068L26.3417 65.9473C26.4728 65.9795 26.5897 66.0555 26.6738 66.1632L26.6664 66.1545C27.0704 66.351 27.4893 66.5194 27.8299 66.8195C27.8599 66.8165 27.89 66.8225 27.9166 66.8367L31.1015 67.8979L31.0899 67.8892C31.2729 67.9205 31.4897 67.7921 31.6336 68.008C31.6653 68.0052 31.6972 68.0116 31.7256 68.0263C32.1487 67.967 32.6564 67.886 32.9537 68.1224C33.2509 68.3588 32.9452 68.85 32.8934 69.2256C32.5761 71.5314 32.5887 73.8242 33.0986 76.1029C33.1102 76.1743 33.1169 76.2465 33.1187 76.3188L33.1081 76.3091L33.9617 78.9095L33.9532 78.8998C34.0943 79.1877 34.2353 79.4755 34.3763 79.7634C34.4821 79.8184 34.4821 79.9285 34.5107 80.0214C34.5826 80.1207 34.6588 80.2157 34.7222 80.3182C36.257 82.7103 38.1769 84.6912 40.6541 86.0653C41.5234 86.5497 42.4272 86.9669 43.3577 87.3132C44.2177 87.4643 45.0787 87.6122 45.9386 87.7666C47.5792 88.0602 49.2357 88.0181 50.8858 87.9512C53.3725 87.8497 55.8064 87.3639 58.216 86.7486C58.3683 86.7098 58.5238 86.6893 58.6782 86.659L58.6719 86.6677C59.9327 86.2359 61.1957 85.8149 62.4523 85.3723C63.1409 85.1305 63.8179 84.8552 64.5001 84.5962L64.6143 84.5325L65.2363 84.2702C65.4193 84.1719 65.5981 84.064 65.7874 83.9766C67.4629 83.2015 69.0992 82.348 70.6964 81.4161C73.9475 79.5202 77.0097 77.3055 79.8396 74.8032L80.1432 74.5593L80.1295 74.5755L80.2511 74.4535L80.2374 74.4707L80.3622 74.3445L80.4521 74.2592L80.6192 74.1048L80.6351 74.0865L80.7863 73.9299H80.781L81 73.714L81.1058 73.6061L83.8369 70.6915C83.876 70.6484 83.9162 70.6052 83.9554 70.5609L83.9374 70.575C83.9977 70.4929 84.058 70.4098 84.1172 70.3267L84.1246 70.318L84.2716 70.1388L84.2653 70.1453L85.0131 69.1673L85.0036 69.1792L85.103 69.041H85.0872L85.7313 68.076L85.7208 68.0857C85.7673 68.0155 85.8128 67.9443 85.8583 67.8698L85.8477 67.8838C85.8657 67.7964 85.8667 67.7003 85.9683 67.6615L86.0529 67.5287H86.036L86.2158 67.2048L86.2327 67.1789C86.2771 67.0839 86.2771 66.963 86.384 66.9037L86.7076 66.256L86.7002 66.2668C87.1392 65.1582 87.5464 64.0409 87.7749 62.86C88.2467 60.3729 87.9579 57.9549 87.1032 55.5887Z" fill="#FFA047"/>
<path d="M86.2695 53.7754V53.7813L86.2767 53.7884L86.2695 53.7754Z" fill="#FFA047"/>
<path d="M58.1426 14.166C58.1428 14.1685 58.1428 14.1711 58.1426 14.1736H58.1501L58.1426 14.166Z" fill="#FFA047"/>
<path d="M50.6043 56.112C47.394 56.0419 44.5899 54.2057 43.7469 51.2361C43.6252 50.8446 43.5617 50.4367 43.5586 50.026C43.5713 49.2898 43.9553 48.7954 44.6068 48.7004C45.1632 48.6194 45.8761 49.0955 45.9692 49.7302C46.2865 51.9895 48.4602 53.68 50.9047 53.5397C53.0689 53.4166 54.8184 51.9204 55.1093 49.8824C55.215 49.1516 55.8243 48.6335 56.4473 48.7004C57.1592 48.7749 57.6394 49.3319 57.5305 50.1339C57.1803 52.716 55.8254 54.5317 53.4433 55.5313C52.5231 55.9134 51.5605 56.057 50.6043 56.112Z" fill="#040303"/>
<path d="M38.3383 44.7916C42.3674 44.7916 45.6336 41.4583 45.6336 37.3465C45.6336 33.2347 42.3674 29.9014 38.3383 29.9014C34.3092 29.9014 31.043 33.2347 31.043 37.3465C31.043 41.4583 34.3092 44.7916 38.3383 44.7916Z" fill="#FEFDFD"/>
<path d="M39.8743 41.258C41.7875 41.258 43.3384 39.6477 43.3384 37.6612C43.3384 35.6748 41.7875 34.0645 39.8743 34.0645C37.9611 34.0645 36.4102 35.6748 36.4102 37.6612C36.4102 39.6477 37.9611 41.258 39.8743 41.258Z" fill="#010101"/>
<path d="M62.0668 44.7916C66.0959 44.7916 69.3621 41.4583 69.3621 37.3465C69.3621 33.2347 66.0959 29.9014 62.0668 29.9014C58.0377 29.9014 54.7715 33.2347 54.7715 37.3465C54.7715 41.4583 58.0377 44.7916 62.0668 44.7916Z" fill="#FEFDFD"/>
<path d="M60.5325 41.258C62.4457 41.258 63.9966 39.6477 63.9966 37.6612C63.9966 35.6748 62.4457 34.0645 60.5325 34.0645C58.6193 34.0645 57.0684 35.6748 57.0684 37.6612C57.0684 39.6477 58.6193 41.258 60.5325 41.258Z" fill="#010101"/>
</g>
<defs>
<clipPath id="clip0_447_6282">
<rect width="75" height="76" fill="white" transform="translate(13 12)"/>
</clipPath>
</defs>
</svg>
