<svg width="100" height="100" viewBox="0 0 100 100" fill="none" xmlns="http://www.w3.org/2000/svg">
<rect width="100" height="100" fill="#08111C"/>
<path d="M77.1662 34.7198C76.3902 32.0976 74.9497 29.728 72.9885 27.848C71.7894 26.6838 70.4301 25.749 69.0305 24.8649C69.0305 24.6689 69.1727 24.5418 69.2629 24.3932C70.5999 22.1693 70.9522 19.8162 70.1754 17.3005C69.1515 14.0051 66.1845 11.8265 62.8462 11.6359C60.6179 11.5088 58.6017 12.0667 56.8042 13.4473C56.2513 13.8716 56.2375 13.8522 55.864 13.2954C55.7749 13.163 55.6751 13.037 55.5807 12.9067C53.6017 10.1627 50.0628 9.23005 47.0991 10.6764C45.7048 11.3559 44.6585 12.4156 43.8584 13.7435C43.6525 14.087 43.5178 14.1215 43.1973 13.8511C42.1001 12.9401 40.9095 12.211 39.4834 11.9127C36.8305 11.3516 34.4048 11.805 32.29 13.5582C30.3831 15.1381 29.3995 17.1907 29.3793 19.7096C29.3654 20.4257 29.4446 21.1405 29.6149 21.8355C29.8844 22.8973 30.2876 23.8935 31.0134 24.7292C30.4181 25.23 29.7125 25.5595 29.0854 26.0097C26.0643 28.1786 24.1012 31.0906 22.9839 34.6617C22.3293 36.7821 21.9975 38.9916 22.0002 41.2137C21.9885 43.7337 22.483 46.1988 23.073 48.6327C23.5509 50.619 24.1719 52.567 24.931 54.461C25.9826 57.0768 27.0225 59.6981 28.2205 62.2504C29.3008 64.5593 30.4627 66.8284 31.6268 69.0964C32.7611 71.3074 34.0345 73.4332 35.3609 75.5257C37.5892 79.0462 39.7115 82.6517 42.5001 85.7694C43.73 87.1436 44.9407 88.5404 46.4571 89.6108C47.5076 90.3539 48.6409 90.9441 49.9525 90.9957C51.6715 91.0636 53.1146 90.299 54.3423 89.193C56.7991 86.9949 58.9635 84.4818 60.7813 81.7169C61.2354 81.0234 61.7777 80.3826 62.0674 79.5868C62.5311 79.0645 62.8855 78.4635 63.2643 77.8798C63.7195 77.1895 64.1832 76.5046 64.6247 75.8057C64.9122 75.3491 65.2698 74.9345 65.4545 74.4143C65.8641 73.7875 66.2938 73.1726 66.6111 72.4888C67.3932 71.3171 67.9789 70.0323 68.6485 68.797C69.004 68.0906 69.4687 67.4433 69.7414 66.6927C69.8041 66.6331 69.8596 66.5662 69.907 66.4935C70.8195 64.6821 71.6844 62.8481 72.4781 60.9786C72.9439 59.8833 73.4936 58.8247 73.9223 57.7144C74.7213 55.651 75.5723 53.6027 76.1719 51.4682C76.5815 50.0101 77.0303 48.5605 77.3094 47.07C77.5291 45.9016 77.7063 44.718 77.84 43.527C78.1647 40.5385 78.0278 37.6082 77.1662 34.7198Z" fill="#F09E2A"/>
<path d="M69.0317 24.8622C67.7679 24.2225 66.5072 23.5764 65.183 23.0724C63.6064 22.4931 61.9965 22.0119 60.3622 21.6315C58.3005 21.1253 56.2026 20.8927 54.108 20.6321C53.5975 20.5855 53.0847 20.5708 52.5725 20.5879C50.6285 20.5879 48.6835 20.5308 46.7427 20.6084C45.1626 20.6719 43.5879 20.8895 42.0228 21.1468C40.5114 21.3965 39.0138 21.7262 37.5363 22.1344C35.3536 22.7321 33.243 23.5215 31.2608 24.6404C31.1809 24.6776 31.0987 24.7092 31.0146 24.7352C30.2888 23.8995 29.8856 22.9044 29.616 21.8415C29.4457 21.1464 29.3665 20.4317 29.3805 19.7156C29.4006 17.1913 30.3843 15.1387 32.2943 13.5599C34.4092 11.8056 36.836 11.3533 39.4877 11.9143C40.9107 12.2159 42.1013 12.945 43.2017 13.8528C43.52 14.1188 43.6569 14.0844 43.8628 13.7451C44.6586 12.4173 45.7091 11.3576 47.1034 10.678C50.0566 9.23065 53.5986 10.1633 55.5776 12.9084C55.6721 13.0387 55.7718 13.1647 55.8609 13.2971C56.2345 13.8528 56.2482 13.8776 56.8064 13.4468C58.5997 12.0716 60.6265 11.5083 62.8485 11.6354C66.1868 11.826 69.1537 14.0047 70.1777 17.3001C70.9587 19.8158 70.6021 22.1645 69.2694 24.3927C69.1739 24.5446 69.0338 24.6695 69.0317 24.8622Z" fill="#3AD050"/>
<path d="M68.6446 68.8002C68.6754 68.5062 68.4547 68.4642 68.2563 68.3823C65.943 67.4217 63.6308 66.4586 61.3197 65.493C60.805 65.2776 60.4548 64.7973 60.527 64.3525C60.6055 63.8636 60.8453 63.4909 61.3695 63.3639C61.5406 63.3179 61.7218 63.3289 61.8863 63.3951C64.5158 64.4656 67.1527 65.5156 69.7386 66.6959C69.4649 67.4433 69.0001 68.0905 68.6446 68.8002Z" fill="#BA4D0D"/>
<path d="M65.4514 74.414C64.142 73.9186 62.9376 73.1949 61.6578 72.6349C60.7835 72.2526 59.9271 71.8272 59.0591 71.4277C58.3323 71.0928 57.9513 70.5478 58.085 70.0148C58.2973 69.1866 58.9615 68.9066 59.8391 69.3105C60.9798 69.8349 62.1099 70.3874 63.2464 70.9258C64.3658 71.4525 65.4875 71.9715 66.608 72.4939C66.2907 73.1723 65.861 73.7872 65.4514 74.414Z" fill="#BA4D0D"/>
<path d="M62.0635 79.5872C62.0051 79.6262 61.9369 79.6475 61.867 79.6487C61.7971 79.6498 61.7283 79.6307 61.6687 79.5937C59.8648 78.7677 58.0694 77.9406 56.2623 77.1307C55.7264 76.8906 55.5407 76.4921 55.5895 75.9278C55.6458 75.2633 56.2506 74.8057 56.8629 75.0501C58.1415 75.5617 59.4022 76.127 60.6681 76.6655C61.5456 77.0424 62.4243 77.4194 63.2625 77.8792C62.8816 78.464 62.5272 79.0649 62.0635 79.5872Z" fill="#BA4D0D"/>
<path d="M55.6861 38.5941C55.6822 37.5132 55.8915 36.4425 56.3018 35.445C56.7122 34.4476 57.3151 33.5436 58.0751 32.7864C58.8352 32.0292 59.7369 31.4341 60.7272 31.0362C61.7174 30.6384 62.7761 30.4458 63.8409 30.4698C68.1056 30.5516 71.5405 34.1755 71.5139 38.6695C71.5034 39.727 71.2874 40.772 70.8783 41.7446C70.4692 42.7172 69.875 43.5984 69.1298 44.3376C68.3846 45.0768 67.503 45.6595 66.5355 46.0523C65.5681 46.4452 64.5337 46.6404 63.4918 46.6269C62.458 46.6253 61.4347 46.4156 60.4813 46.0099C59.5278 45.6043 58.6631 45.0108 57.9372 44.2637C57.2113 43.5167 56.6385 42.6309 56.2521 41.6577C55.8658 40.6846 55.6734 39.6433 55.6861 38.5941ZM57.3839 38.5047C57.3776 40.706 59.0361 42.4441 61.1658 42.4689C63.3369 42.4947 65.1312 40.7232 65.1408 38.5435C65.1504 36.3993 63.3677 34.5826 61.2496 34.5761C59.0669 34.5707 57.3946 36.2701 57.3882 38.5047H57.3839Z" fill="#FDFDFC"/>
<path d="M44.3754 38.6289C44.3754 43.0992 40.8546 46.6089 36.3958 46.6326C31.8435 46.6552 28.6049 42.7363 28.588 38.6849C28.5689 34.0746 32.0462 30.4744 36.4753 30.4766C40.8886 30.4787 44.3744 34.08 44.3754 38.6289ZM38.7207 42.4649C40.8122 42.4994 42.6203 40.7634 42.6543 38.6892C42.6904 36.4277 41.0286 34.6055 38.9064 34.5753C36.7035 34.5452 34.9187 36.2317 34.8943 38.3683C34.8667 40.6524 36.5263 42.4294 38.7207 42.4649Z" fill="#FDFDFC"/>
<path d="M50.2555 56.334C46.7602 56.307 44.0883 54.5086 43.0611 51.5761C42.937 51.2221 42.8468 50.8567 42.7916 50.4852C42.6939 49.8239 43.1099 49.223 43.701 49.111C44.3843 48.9829 44.9213 49.3145 45.0963 50.021C46.062 53.9055 50.1898 54.809 52.6961 53.3024C53.8241 52.6239 54.5743 51.6396 54.8768 50.3279C55.002 49.7895 55.1951 49.2876 55.7968 49.1293C56.6669 48.8999 57.4054 49.6258 57.2717 50.5616C56.8674 53.3929 54.4428 55.8213 51.6414 56.2209C51.1828 56.2932 50.7196 56.331 50.2555 56.334Z" fill="#010101"/>
<path d="M57.3867 38.5038C57.3931 36.2692 59.0654 34.5698 61.2524 34.5752C63.3747 34.5817 65.1531 36.3984 65.1436 38.5426C65.134 40.7223 63.3397 42.4939 61.1686 42.468C59.0389 42.4432 57.3804 40.7051 57.3867 38.5038Z" fill="#010101"/>
<path d="M38.7213 42.4648C36.5269 42.4292 34.8673 40.6523 34.8949 38.3724C34.9193 36.2358 36.6988 34.5493 38.907 34.5795C41.0293 34.6097 42.691 36.434 42.6549 38.6934C42.6209 40.7632 40.8128 42.4992 38.7213 42.4648Z" fill="#010101"/>
</svg>
