<svg width="100" height="100" viewBox="0 0 100 100" fill="none" xmlns="http://www.w3.org/2000/svg">
<rect width="100" height="100" fill="#08111C"/>
<path d="M81.8441 33.8376C79.7292 31.9408 77.2959 30.7128 74.4242 30.4863C74.0641 30.4573 74.1027 30.3016 74.1402 30.0333C74.48 27.4741 74.1734 24.9879 73.0307 22.6714C71.3693 19.2974 68.6734 16.9959 65.1339 15.872C60.1924 14.2994 55.6882 15.0755 51.9589 18.9464C51.2986 18.3678 50.8066 17.6421 50.2642 16.9637C48.2104 14.3874 45.9412 12.0665 42.9034 10.6431C41.0223 9.75074 38.994 9.21048 36.9188 9.04899C35.8674 8.98888 34.8134 8.98888 33.762 9.04899C32.4082 9.10482 31.0994 9.44081 29.7959 9.80687C28.947 10.0463 28.1484 10.4198 27.3305 10.7386C26.0356 11.2442 24.8855 12.0043 23.6935 12.6945C23.493 12.8104 23.4373 12.9736 23.537 13.1883C23.7846 13.7122 23.9893 14.2553 24.2155 14.7867C25.1802 17.0517 26.4237 19.1547 28.0637 21.0129C27.8547 21.1105 27.7603 21.3177 27.6489 21.4927C26.041 24.0336 25.6122 26.83 25.9145 29.7703C25.9863 30.4605 26.0324 30.4412 25.371 30.5067C24.1453 30.6295 22.9493 30.9594 21.8337 31.4824C17.799 33.3685 15.0806 36.4451 13.7793 40.7089C12.3644 45.3088 12.8596 49.7283 15.4011 53.8322C17.3048 56.9044 19.9943 59.0256 23.5252 59.9917C24.5103 60.2623 25.519 60.3481 26.5673 60.4362C26.489 60.6305 26.4322 60.7775 26.3711 60.9235C25.7183 62.4886 25.3282 64.1193 25.326 65.8153C25.326 69.7153 26.6198 73.1257 29.2857 75.9876C31.5753 78.4458 34.3859 79.8467 37.7474 80.0668C38.1526 80.0936 38.2834 80.2171 38.367 80.5831C38.9919 83.3097 40.4176 85.5479 42.5625 87.3256C45.5639 89.8161 49.0305 90.4805 52.7704 89.6872C54.9282 89.2332 56.7751 88.0964 58.3154 86.5087C59.9898 84.7836 61.1978 82.7891 61.633 80.3899C61.6909 80.0764 61.8549 80.0904 62.0768 80.0807C64.7177 79.9828 67.2578 79.0395 69.3241 77.3895C71.5494 75.6398 73.0222 73.3554 73.9462 70.6964C74.8434 68.1201 75.0052 65.4987 74.3417 62.8397C74.1391 62.0292 73.8175 61.2584 73.5099 60.4415C73.7061 60.4308 73.8465 60.419 73.9858 60.4158C76.1372 60.3718 78.1663 59.8457 79.9714 58.6724C84.4735 55.7547 86.7599 51.522 86.9829 46.2202C87.1876 41.3326 85.524 37.1396 81.8441 33.8376Z" fill="#C575EC"/>
<path d="M37.3621 47.5349C41.6536 47.5349 45.1325 44.051 45.1325 39.7533C45.1325 35.4556 41.6536 31.9717 37.3621 31.9717C33.0707 31.9717 29.5918 35.4556 29.5918 39.7533C29.5918 44.051 33.0707 47.5349 37.3621 47.5349Z" fill="#FEFDFD"/>
<path d="M38.9973 43.8409C41.0355 43.8409 42.6879 42.1578 42.6879 40.0816C42.6879 38.0054 41.0355 36.3223 38.9973 36.3223C36.959 36.3223 35.3066 38.0054 35.3066 40.0816C35.3066 42.1578 36.959 43.8409 38.9973 43.8409Z" fill="#010101"/>
<path d="M62.6356 47.5349C66.927 47.5349 70.4059 44.051 70.4059 39.7533C70.4059 35.4556 66.927 31.9717 62.6356 31.9717C58.3441 31.9717 54.8652 35.4556 54.8652 39.7533C54.8652 44.051 58.3441 47.5349 62.6356 47.5349Z" fill="#FEFDFD"/>
<path d="M60.9992 43.8409C63.0375 43.8409 64.6898 42.1578 64.6898 40.0816C64.6898 38.0054 63.0375 36.3223 60.9992 36.3223C58.9609 36.3223 57.3086 38.0054 57.3086 40.0816C57.3086 42.1578 58.9609 43.8409 60.9992 43.8409Z" fill="#010101"/>
<path d="M51.9591 18.9425C52.8381 20.016 53.9647 20.7824 55.1331 21.4963C55.2403 21.5618 55.3475 21.624 55.4547 21.6938C56.0131 22.0685 56.0324 22.5247 55.4879 22.9337C54.1908 23.9306 52.8059 24.8073 51.3503 25.553C48.8559 26.8003 46.2404 27.6065 43.4449 27.7922C40.5895 27.9911 37.729 27.4858 35.1139 26.3205C32.3462 25.1021 30.0555 23.2589 28.0671 21.0079C26.4271 19.1551 25.1836 17.0521 24.2189 14.7871C23.9927 14.2557 23.7901 13.7136 23.5404 13.1887C23.4407 12.974 23.4964 12.8098 23.7001 12.6906C24.8921 12.0004 26.0423 11.2403 27.3371 10.7347C28.1561 10.4127 28.9547 10.0423 29.8025 9.80296C31.1017 9.43691 32.4105 9.10091 33.7687 9.04509C34.8201 8.98497 35.874 8.98497 36.9255 9.04509C38.9992 9.20709 41.0259 9.74734 42.9057 10.6392C45.9435 12.0626 48.2128 14.3835 50.2666 16.9598C50.8068 17.6382 51.2988 18.3639 51.9591 18.9425Z" fill="#01BB2B"/>
<path d="M42.4211 50.153C42.3943 49.3855 42.837 48.8036 43.4994 48.7349C44.2884 48.6523 44.9176 49.1139 45.0151 49.8932C45.3453 52.5404 47.9918 54.1925 50.5891 53.8511C52.6054 53.587 54.0643 52.5544 54.6956 50.5362C54.7429 50.3471 54.7787 50.1553 54.8028 49.9619C54.9668 49.0623 55.5853 48.5975 56.4268 48.7446C57.1246 48.8659 57.5641 49.5519 57.4269 50.3838C57.1761 51.8995 56.5436 53.2339 55.4599 54.3385C54.4448 55.3722 53.2089 56.0002 51.8154 56.3598C48.2577 57.2841 44.2047 55.3443 42.8606 52.0155C42.6194 51.4209 42.4712 50.7927 42.4211 50.153Z" fill="#010101"/>
</svg>
