<svg width="100" height="100" viewBox="0 0 100 100" fill="none" xmlns="http://www.w3.org/2000/svg">
<rect width="100" height="100" fill="#08111C"/>
<g clip-path="url(#clip0_447_6287)">
<path d="M87.7006 54.72C87.7006 54.6869 87.6944 54.6538 87.6892 54.6206C87.7089 54.4999 87.7307 54.377 87.6019 54.3001C87.5936 54.1612 87.5842 54.0234 87.5749 53.8856C87.5744 53.8321 87.5692 53.7789 87.5593 53.7264C86.4786 49.6462 84.0542 46.6151 80.624 44.3779C80.0784 44.0221 80.0639 44.0338 80.4442 43.4793C81.5945 41.8019 82.3407 39.9418 82.8 37.9535C83.3424 35.9064 83.4837 33.7687 83.2156 31.6649C82.9722 29.3056 82.2057 27.0351 80.9752 25.028C79.3126 22.3153 76.9735 20.389 74.2207 18.967C71.2259 17.422 67.9983 16.8761 64.6969 16.7105C63.2286 16.6368 61.754 16.6656 60.2972 16.9081C59.8545 16.9808 59.5916 16.8419 59.3744 16.4487C58.8746 15.5417 58.1939 14.8002 57.4062 14.1367C55.9805 12.9369 54.4665 11.9198 52.6552 11.5009C49.2936 10.7232 45.9153 10.939 42.563 11.5501C40.1854 11.9839 37.8993 12.7681 35.6381 13.6976C31.6199 15.3562 27.8957 17.6857 24.6158 20.592C21.4735 23.3538 19.0231 26.6317 17.3885 30.5442C16.4533 32.7803 15.8101 35.0892 15.7082 37.5369V40.1972C15.6646 40.6021 15.7831 40.9889 15.8298 41.3831C15.844 41.613 15.8742 41.8415 15.9202 42.0669C16.1281 42.8436 16.1811 43.6695 16.6217 44.3736C16.684 44.849 16.8066 45.2988 17.1412 45.6557C17.1693 46.0296 17.3989 46.3053 17.5756 46.6065C17.7148 46.8512 17.8437 47.1023 17.9913 47.3395C18.7259 48.4998 19.6903 49.4464 20.693 50.3481C20.9715 50.597 20.9892 50.7402 20.7481 51.018C20.4031 51.4154 20.107 51.8567 19.7869 52.2766C17.9279 54.7168 16.1499 57.2105 15.0411 60.1304C14.5215 61.4905 14.0934 62.873 14.0446 64.3506C14.0092 65.419 13.9469 66.4778 14.0446 67.5419C14.0175 68.5558 14.3563 69.4875 14.6275 70.4426C15.6667 74.1222 17.8873 76.7932 21.0983 78.6512C21.1329 78.6981 21.1791 78.7346 21.2321 78.7568C21.2852 78.779 21.3431 78.7861 21.3997 78.7772C21.3997 78.851 21.4506 78.867 21.5036 78.8841C21.5264 78.9187 21.5575 78.9468 21.5939 78.9655C21.6303 78.9842 21.6708 78.993 21.7114 78.9909C21.7332 79.0266 21.7641 79.0555 21.8008 79.0743C21.8374 79.0932 21.8784 79.1013 21.9192 79.0978C21.965 79.1854 22.0481 79.1961 22.1271 79.2046C23.0893 79.7025 24.0703 80.1501 25.1406 80.3499C26.1995 80.71 27.3104 80.741 28.3984 80.9183C29.5778 81.1096 30.7437 80.9867 31.9034 80.8296C33.957 80.5354 35.9613 79.9516 37.8598 79.0946C38.2485 78.9225 38.4999 78.9503 38.6527 79.4097C38.7578 79.6925 38.8975 79.9603 39.0683 80.2068C40.7694 82.8468 43.2665 84.2913 46.1418 85.161C47.1872 85.489 48.269 85.5659 49.3497 85.6492C51.446 85.821 53.5554 85.6186 55.5846 85.0509L55.7052 85.0253C56.471 84.8212 57.2535 84.6674 57.9996 84.4013C59.3588 83.9184 60.7772 83.5851 62.0398 82.8361C62.0731 82.8347 62.1057 82.8259 62.1354 82.8105C62.835 82.5172 63.5166 82.1804 64.1763 81.8019C65.5064 81.0786 66.6609 80.1053 67.8424 79.1683C67.1026 82.6933 66.3634 86.219 65.6249 89.7455C65.3776 90.9399 65.045 92.1205 64.9297 93.3406C64.831 94.3952 65.4493 95.0501 66.4614 94.9977C66.9862 94.971 67.4174 94.7349 67.7967 94.3717C68.6746 93.5143 69.4837 92.5853 70.2159 91.5938C73.6693 87.0111 76.9676 82.3176 80.1106 77.5133C80.9118 76.2932 81.7234 75.0752 82.3126 73.7258C82.8935 72.3946 82.7438 71.7963 81.6579 70.9822C81.9988 70.6616 82.3272 70.3219 82.6825 70.0206C85.4592 67.637 86.7726 64.4254 87.5769 60.9221C87.6206 60.749 87.6663 60.5749 87.5769 60.4018C87.5865 60.3669 87.5927 60.3311 87.5956 60.2949C87.7754 60.1016 87.6996 59.8729 87.6819 59.6539C87.6911 59.6189 87.697 59.5832 87.6996 59.5471C87.8804 59.3537 87.8035 59.125 87.7848 58.906L87.8035 58.7992C87.9978 58.6207 87.9313 58.3633 87.9479 58.1581C88.0446 56.9978 88.0217 55.8461 87.7006 54.72Z" fill="#83A0FE"/>
<path d="M67.8425 79.1641C68.1335 78.1523 68.1304 78.1577 67.2928 77.5615C66.1643 76.7452 65.0212 75.9333 63.9021 75.1042C62.9492 74.3958 62.7289 73.6383 63.1549 72.5026C63.821 70.7216 64.7697 69.0837 65.679 67.432C67.3967 64.308 69.1196 61.1861 70.8976 58.0984C72.0324 56.1272 72.9842 54.0459 74.2665 52.1634C74.544 51.7564 74.8173 51.3525 75.2018 51.032C75.9853 50.3835 76.9683 50.9743 77.198 51.8023C77.3611 52.3931 77.3102 53 77.2874 53.6015C77.2344 54.999 77.1346 56.3954 77.1097 57.7939C77.0535 60.8923 76.8738 63.9789 76.9018 67.0762C76.9091 67.885 77.171 68.4598 77.8911 68.8487C79.1599 69.5335 80.4017 70.2707 81.6549 70.9855C82.7408 71.7996 82.8905 72.3979 82.3096 73.7291C81.7204 75.0785 80.9088 76.2933 80.1076 77.5166C76.9576 82.3152 73.6607 87.0062 70.217 91.5896C69.4848 92.5812 68.6758 93.5101 67.7978 94.3675C67.4185 94.7307 66.9873 94.9669 66.4625 94.9936C65.4514 95.0427 64.8321 94.391 64.9308 93.3365C65.0462 92.1164 65.3787 90.9358 65.626 89.7413C66.3569 86.2163 67.0957 82.6906 67.8425 79.1641Z" fill="#FDEC79"/>
<path d="M28.1494 36.5696C28.1619 32.0097 31.881 28.1004 36.2444 28.1549C40.7782 28.2115 44.2739 32.0823 44.276 36.5536C44.2805 37.654 44.0719 38.7443 43.6624 39.761C43.253 40.7778 42.6508 41.7005 41.891 42.4756C41.1312 43.2506 40.2289 43.8624 39.2368 44.2753C38.2447 44.6883 37.1826 44.894 36.1124 44.8807C31.7178 44.839 28.0278 40.8881 28.1494 36.5696ZM37.7262 41.2065C40.1163 41.3956 42.1769 39.4746 42.3588 36.8944C42.5105 34.7384 40.6597 32.5567 38.5368 32.3889C37.9569 32.3392 37.3733 32.4083 36.8197 32.5923C36.2661 32.7762 35.7535 33.0714 35.3116 33.4606C34.8698 33.8498 34.5075 34.3253 34.2457 34.8595C33.984 35.3937 33.828 35.9761 33.7868 36.5728C33.6143 38.935 35.3871 41.0216 37.7262 41.2065Z" fill="#FCFDFC"/>
<path d="M70.3688 36.7723C70.3724 38.9203 69.5481 40.9822 68.0763 42.5067C66.6045 44.0311 64.6051 44.8939 62.516 44.906C57.9146 44.9178 54.368 41.2521 54.3555 36.4656C54.3441 31.9153 57.8107 28.3308 62.2312 28.3223C66.7255 28.318 70.3522 32.082 70.3688 36.7723ZM60.6008 41.2019C61.1446 41.187 61.6802 41.0608 62.176 40.8306C62.6719 40.6004 63.1181 40.2709 63.4887 39.8614C63.8593 39.4519 64.1467 38.9705 64.3342 38.4454C64.5217 37.9203 64.6055 37.362 64.5807 36.8033C64.4768 34.0329 62.4307 32.0916 59.8006 32.316C57.5914 32.5061 55.9901 34.3929 56.041 36.9101C56.0919 39.3696 58.2419 41.3311 60.5977 41.2019H60.6008Z" fill="#FCFDFC"/>
<path d="M50.1907 51.7235C51.4605 51.4863 52.5194 50.8944 53.2894 49.8004C53.6926 49.2266 53.7051 48.4948 54.0334 47.8933L54.1613 47.6924L54.1498 47.702L54.2662 47.5813L54.3556 47.4937L54.6798 47.2704L54.6704 47.2778C56.0161 46.7736 57.1311 47.7597 56.8049 49.2288C56.6666 49.8516 56.3601 50.404 56.092 50.9756L56.0972 50.9703L55.8488 51.3356L55.826 51.3698L55.5745 51.7245L55.5797 51.7192C55.4644 51.8517 55.348 51.9842 55.2326 52.1177L55.2461 52.1444L55.2274 52.1209L54.4429 52.9083L54.3265 53.0152L54.3338 53.0066L53.9108 53.3272L53.9191 53.3207L53.0753 53.8549L53.0837 53.8475C51.8086 54.4629 50.4858 54.8571 49.059 54.8261C47.8526 54.7983 46.7241 54.449 45.6298 53.9575L45.6381 53.965C45.5935 53.8731 45.5051 53.8667 45.422 53.8485L45.4314 53.856C45.2789 53.7116 45.0982 53.6023 44.9014 53.5355L44.9097 53.544C44.8329 53.433 44.7208 53.3529 44.5928 53.3175L44.6021 53.3261C44.4896 53.1797 44.3426 53.0654 44.175 52.9938L44.0773 52.9105C44.0285 52.8581 43.9734 52.8036 43.9287 52.7545L43.8965 52.7256L43.4809 52.3314L43.3769 52.2246L43.3343 52.2331L43.3769 52.2224L43.2876 52.1156L43.273 52.0996L43.1837 52.0077L43.1702 51.9916L43.1026 51.9104C43.1016 51.9003 43.098 51.8906 43.0922 51.8823C43.0863 51.8741 43.0785 51.8675 43.0694 51.8634L42.927 51.7181L42.9322 51.7235L42.6121 51.2961L42.6194 51.3036L42.2037 50.6508L42.2121 50.6604C42.0759 50.3602 41.9169 50.0696 41.8099 49.7587C41.5678 49.0567 41.3714 48.3441 41.8276 47.6443L41.8452 47.6197C42.5373 46.858 43.0299 46.7575 43.883 47.2063L43.9048 47.2223C44.2838 47.5564 44.5525 48.0033 44.6738 48.5012C44.7777 48.873 44.8951 49.2362 45.1342 49.5439L45.1508 49.5685L45.5373 50.0835L45.5716 50.1209L45.741 50.2993C45.7438 50.3114 45.7504 50.3221 45.7598 50.3299C45.7693 50.3376 45.7809 50.3419 45.793 50.342C45.8056 50.3638 45.8235 50.3818 45.8449 50.3944C45.846 50.4053 45.8501 50.4156 45.8567 50.4241C45.8634 50.4326 45.8723 50.439 45.8823 50.4425C46.0022 50.5987 46.1584 50.7214 46.3365 50.7993C46.4109 50.9104 46.5246 50.9871 46.6534 51.013L46.6482 51.0076C47.1626 51.3634 47.7409 51.61 48.3492 51.7329C48.9575 51.8558 49.5836 51.8526 50.1907 51.7235Z" fill="#010101"/>
<path d="M37.7264 41.2072C35.3873 41.0224 33.6145 38.9358 33.787 36.5735C33.8282 35.9768 33.9841 35.3945 34.2459 34.8602C34.5076 34.326 34.8699 33.8505 35.3118 33.4613C35.7536 33.0721 36.2662 32.777 36.8199 32.593C37.3735 32.4091 37.9571 32.3399 38.5369 32.3897C40.6599 32.5574 42.5107 34.7402 42.3589 36.8951C42.1771 39.4753 40.1133 41.3963 37.7264 41.2072Z" fill="#010101"/>
<path d="M60.5978 41.2016C58.2421 41.3309 56.0921 39.3693 56.0422 36.9088C55.9913 34.3938 57.5926 32.507 59.8018 32.3147C62.4278 32.0892 64.478 34.0305 64.5819 36.802C64.6069 37.3612 64.523 37.9199 64.3353 38.4454C64.1476 38.9709 63.8598 39.4526 63.4888 39.8623C63.1178 40.272 62.671 40.6015 62.1746 40.8315C61.6782 41.0615 61.1421 41.1873 60.5978 41.2016Z" fill="#010101"/>
</g>
<defs>
<clipPath id="clip0_447_6287">
<rect width="74" height="84" fill="white" transform="translate(14 11)"/>
</clipPath>
</defs>
</svg>
