<svg width="100" height="100" viewBox="0 0 100 100" fill="none" xmlns="http://www.w3.org/2000/svg">
<rect width="100" height="100" fill="#08111C"/>
<path d="M48.2812 13.1211C48.285 13.1178 48.2882 13.1138 48.2906 13.1094L48.2812 13.1211Z" fill="#FCF8E3"/>
<path d="M28.3379 21.6535C28.3401 21.651 28.3429 21.6489 28.3461 21.6477V21.6406L28.3379 21.6535Z" fill="#FCF8E3"/>
<path d="M71.2515 18.5559L71.1443 18.448C71.1164 18.4199 70.9297 18.232 70.9297 18.232C70.0641 17.0596 66.3431 13.9945 65.5933 13.4547C60.5841 9.83905 52.9083 8.09654 48.2895 13.1092C48.1704 13.5141 47.81 13.5875 47.5386 13.7721L47.5493 13.7592C42.671 18.205 34.3837 14.7762 30.0567 19.9324C30.0674 19.9184 29.972 20.0069 29.9419 20.0328C29.4908 20.6481 28.9527 21.1937 28.3448 21.6523C15.8817 35.547 13.6731 60.8652 27.2946 75.0806C28.673 76.6396 30.2326 78.1824 31.6925 79.615L31.7997 79.723L31.907 79.831C32.6117 80.4237 33.2285 81.0013 33.9386 81.567C43.4969 89.3835 55.8044 94.1273 66.6746 85.0822C68.5989 84.2671 78.5519 72.5824 80.3722 67.6625C86.4702 51.1929 81.3365 31.2868 71.2515 18.5559Z" fill="#FCF8E3"/>
<path d="M37.1107 29.6559C41.988 29.5587 45.428 33.1981 45.413 37.9689C45.3969 42.8272 41.677 46.5077 36.745 46.4818C32.2248 46.4569 28.4856 42.9762 28.5178 37.97C28.5521 33.3201 32.109 29.5414 37.1107 29.6559ZM38.8752 43.1511C41.5826 43.1511 43.7997 40.9573 43.7879 38.2928C43.7751 35.6672 41.5096 33.4442 38.8731 33.4734C36.2676 33.5015 34.058 35.7276 34.0462 38.3317C34.0408 40.9692 36.2215 43.1447 38.8752 43.1447V43.1511Z" fill="#FDFDFD"/>
<path d="M64.3607 29.6491C69.2433 29.4742 72.9826 33.4936 72.9708 38.2018C72.959 42.8572 69.2573 46.4868 64.5076 46.4814C59.8652 46.475 56.1893 42.6315 56.1238 37.8628C56.0616 33.3252 59.6957 29.4839 64.3607 29.6491ZM67.3995 38.3454C67.3995 35.6723 65.2027 33.4547 62.5726 33.4742C59.8845 33.4925 57.7382 35.6204 57.7307 38.2731C57.7199 40.9851 59.8834 43.1443 62.6047 43.1443C65.2134 43.1443 67.3984 40.9603 67.3995 38.3497V38.3454Z" fill="#FDFDFD"/>
<path d="M51.644 53.0857C53.1564 53.1019 54.9606 51.5537 55.2802 49.9667C55.4797 48.9767 56.1169 48.4844 56.9964 48.6409C57.8546 48.7931 58.422 49.6514 58.2268 50.5842C57.6261 53.4657 55.7747 55.1867 53.062 56.0093C51.4085 56.5206 49.6318 56.4541 48.0206 55.8207C46.4094 55.1872 45.0583 54.024 44.1869 52.52C43.7686 51.8107 43.464 51.0485 43.4833 50.1956C43.4862 49.8157 43.6278 49.4502 43.8812 49.1686C44.1346 48.8871 44.4821 48.7093 44.8573 48.669C45.5074 48.5977 46.2003 49.1192 46.3698 49.8479C46.6025 50.8433 47.0863 51.6595 47.9455 52.2285L48.0849 52.3365L48.0774 52.3289C49.1619 53.0922 50.3375 53.401 51.644 53.0857Z" fill="#010101"/>
<path d="M38.8757 43.1447C36.222 43.1447 34.0413 40.9671 34.0488 38.3264C34.0574 35.7201 36.2671 33.494 38.8757 33.4681C41.5123 33.4389 43.7777 35.6619 43.7906 38.2875C43.8002 40.9531 41.5831 43.1447 38.8757 43.1447Z" fill="#010101"/>
<path d="M67.3995 38.3499C67.3995 40.9604 65.2134 43.1467 62.6048 43.1467C59.8835 43.1467 57.72 40.9874 57.7285 38.2776C57.736 35.6249 59.8824 33.497 62.5704 33.4786C65.2027 33.4592 67.3995 35.6768 67.3995 38.3499Z" fill="#010101"/>
</svg>
