<svg width="100" height="100" viewBox="0 0 100 100" fill="none" xmlns="http://www.w3.org/2000/svg">
<g clip-path="url(#clip0_447_6285)">
<rect width="100" height="100" fill="#08111C"/>
<g clip-path="url(#clip1_447_6285)">
<path d="M73.5452 69.5931C72.3414 73.8598 70.1327 78.0176 67.0731 81.2927C71.7838 86.5936 78.976 84.8843 79.6322 80.2231C80.2987 75.498 78.3078 73.2432 76.5064 70.3832C76.307 69.7675 76.0828 69.3459 75.814 69.0764C75.0671 69.2624 74.3085 69.4325 73.5452 69.5931Z" fill="#CECFD1"/>
<path d="M49.9935 82.6193C49.1786 82.4263 48.3552 83.4023 47.4252 84.8418L48.8213 86.4007C48.8213 86.4007 51.849 89.633 53.7954 90.6631C57.1537 93.0327 62.7013 90.9022 63.7679 87.3101C64.1579 85.3061 63.0468 83.2992 62.3497 81.3755C62.1986 80.9107 61.993 80.5923 61.7483 80.3887C58.2901 82.27 54.3165 83.1886 49.9935 82.6193Z" fill="#CECFD1"/>
<path d="M13.3924 34.885C24.5839 5.2305 68.7468 1.92 83.0908 31.3113C86.8008 37.4186 88.3509 44.4811 91.7429 50.717C97.1085 57.6624 99.2843 67.9777 91.7008 73.3478C87.0522 76.6419 81.8501 76.9512 76.5011 76.32L75.4295 76.1823C75.429 76.1813 75.4288 76.1797 75.4283 76.1786C74.6657 76.0748 73.8982 75.9522 73.1298 75.8187C70.4317 79.3362 66.8402 82.3804 62.7854 84.2896C65.1981 90.9581 72.5118 92.0339 74.8474 87.9472C76.4526 85.1403 76.5029 82.9355 76.1777 80.7715L76.178 80.7724C76.5036 82.9371 76.4539 85.1422 74.8483 87.95C72.5128 92.0367 65.1995 90.9615 62.7866 84.2933C61.5562 84.8764 60.2758 85.3475 58.9618 85.7022L58.3971 85.8472L57.6769 86.0061C54.0594 86.7386 50.2407 86.5105 46.4665 84.9398C45.73 84.5418 44.6805 85.2694 43.4081 86.4169L44.3504 88.286L43.4062 86.4175C41.1415 88.4484 38.1794 91.7715 35.0842 92.3506C21.2461 96.7192 15.4177 87.0595 15.4531 74.5917C12.7734 60.2056 7.95301 50.4187 13.3924 34.885ZM53.1567 95.7788L53.1564 95.7779L53.1567 95.7788ZM57.0706 94.5711L57.0712 94.5699L57.0706 94.5711ZM58.349 93.3474C58.2289 93.5123 58.096 93.6679 57.955 93.8171C58.0152 93.7534 58.0752 93.6897 58.1317 93.6231L58.349 93.3474ZM50.8774 95.4948C50.6337 95.424 50.3949 95.3398 50.1626 95.2418C50.3949 95.3398 50.6337 95.424 50.8774 95.4948ZM58.8579 92.1896C58.8286 92.304 58.7989 92.4183 58.761 92.5304C58.7989 92.4183 58.8285 92.304 58.8579 92.1896ZM48.5721 94.246L48.5727 94.2448L48.5721 94.246ZM44.812 89.1123C45.4611 90.2478 46.6867 92.2792 47.7719 93.4256C46.6867 92.2792 45.4611 90.2477 44.812 89.1123ZM75.5546 76.6242C75.6041 76.9067 75.6155 77.2453 75.5886 77.6521L75.5877 77.6493C75.6145 77.244 75.6036 76.9061 75.5546 76.6242Z" fill="#FDFDFE"/>
<path d="M23.168 49.2427C22.4651 47.1629 22.6599 45.2808 23.7724 43.6105C24.8722 41.965 26.4003 40.8276 28.5477 41.0532C29.8646 41.1954 31.0244 41.752 32.0383 42.6209C33.5142 43.8865 34.2223 45.5607 34.3333 47.4165C34.4314 49.0835 33.9124 50.6376 32.6084 51.8511C31.2299 53.1323 29.5585 53.4687 27.7982 53.2805C26.4194 53.1314 25.2982 52.3648 24.3194 51.3621C23.6765 50.697 23.4752 49.8674 23.168 49.2427Z" fill="#050505"/>
<path d="M55.7781 37.2639C56.6571 39.9011 56.4625 41.7759 55.2241 43.4259C53.6511 45.5141 50.4875 46.507 47.8752 44.8642C46.3182 43.8853 45.2989 42.4977 44.9806 40.7132C44.657 38.9013 44.9681 37.1542 46.0591 35.5952C46.8617 34.4476 47.8937 33.6014 49.3004 33.431C50.7071 33.2606 52.0663 33.6222 53.2844 34.3832C54.6506 35.2267 55.4882 36.4651 55.7781 37.2639Z" fill="#050505"/>
<path d="M47.3778 62.681C44.452 63.5419 41.8107 63.2986 39.4261 61.6484C38.5195 61.0192 37.6651 60.2569 37.1296 59.2238C36.9407 58.8585 36.5688 58.6137 36.4314 58.1846C36.149 57.2463 36.5584 56.517 37.5158 56.3353C37.991 56.2449 38.8152 56.727 39.0607 57.227C39.876 58.8826 41.1843 59.9217 42.9766 60.3921C44.9146 60.8994 46.7171 60.4664 48.2816 59.3744C49.9952 58.1776 50.9624 56.4338 51.0746 54.3015C51.0909 54.0027 50.9782 53.6967 50.9205 53.3949C50.8327 52.9305 51.2598 52.0439 51.6783 51.8298C52.3555 51.4843 53.1653 51.8108 53.487 52.5339C53.8237 53.2922 53.7239 54.0982 53.6652 54.8655C53.5961 55.9919 53.2793 57.0898 52.7373 58.0816C52.1401 59.1653 51.3506 60.1322 50.4074 60.9353C49.4558 61.7472 48.3703 62.2818 47.3778 62.681Z" fill="#050505"/>
</g>
</g>
<defs>
<clipPath id="clip0_447_6285">
<rect width="100" height="100" fill="white"/>
</clipPath>
<clipPath id="clip1_447_6285">
<rect width="83.0271" height="84.2979" fill="white" transform="translate(-2 25.3301) rotate(-17.7631)"/>
</clipPath>
</defs>
</svg>
