<svg width="100" height="100" viewBox="0 0 100 100" fill="none" xmlns="http://www.w3.org/2000/svg">
<rect width="100" height="100" fill="#08111C"/>
<g clip-path="url(#clip0_447_6281)">
<path d="M90.4388 46.835C89.466 43.2247 87.4368 39.5179 84.8602 37.5036L84.8782 37.4983C84.4168 36.9952 83.9055 36.5019 83.2595 36.2262C83.1534 35.8487 82.9073 35.7564 82.5509 35.7489C82.3016 35.351 81.8306 35.1054 81.3745 35.0056C81.1401 29.5999 81.1337 23.2932 77.3171 19.3461L77.3044 19.3794C77.2704 18.9257 76.8801 18.6747 76.5141 18.3712C76.5629 18.0494 74.9898 16.7119 74.7702 16.5961C74.8381 16.3204 74.6503 16.343 74.4817 16.343C74.209 15.9944 74.1698 15.5096 73.6267 15.5922L73.615 15.619C73.4845 15.472 73.4029 15.2511 73.1684 15.309C73.2448 14.8575 72.9298 14.9518 72.6837 14.9486C72.7166 14.7845 72.1787 14.4745 72.0472 14.5196C72.0069 14.2225 71.8287 14.2053 71.5858 14.2461C71.5603 14.0155 71.2941 14.0723 71.154 14.0241C71.4267 13.595 68.8989 12.9418 68.5403 12.7509C68.2221 12.4399 67.8275 12.7112 67.4859 12.619C67.3364 12.1739 66.9375 12.3948 66.6617 12.3294C60.8275 10.9737 55.9777 14.2268 50.9072 15.8753C46.9145 15.2307 43.5943 12.4688 39.3831 12.1385C33.9986 11.3351 28.2641 14.4316 25.0893 17.8338L24.9768 17.9497C24.3839 18.1052 24.4517 18.4967 24.1282 18.915C23.6254 19.0651 22.8808 20.4702 22.7492 20.8456C22.6177 20.8585 22.4777 20.867 22.6347 21.0515C22.57 21.1813 22.4055 21.2146 22.4289 21.3808C22.1584 21.679 21.8805 21.9418 21.8985 22.3461C21.5113 22.5081 21.4636 22.8416 21.4742 23.2042C21.2016 23.5367 21.0626 23.9056 20.8441 24.31C19.7833 27.1877 19.7069 30.2767 19.7674 33.3196C18.4404 38.337 10.8188 38.9269 10.1526 50.0527C9.47057 53.6994 11.1413 59.6339 13.8303 62.547C13.7783 62.8463 14.0096 62.7905 14.1613 62.96C14.1613 63.0801 14.1782 63.1498 14.3246 63.1444C14.1613 63.5467 14.5442 63.3933 14.6917 63.6024C14.8614 63.8888 15.081 64.246 15.4342 64.3618C15.4628 64.6535 15.8086 64.6246 15.9773 64.8874C15.9317 65.3218 16.3167 65.1147 16.4981 65.3164C16.4515 65.6167 16.9224 65.4848 16.8461 65.6832C16.863 65.6661 16.9129 65.6553 16.9097 65.6349C19.0164 66.7418 19.3102 68.0557 19.1585 70.3339C19.5075 72.922 20.1419 75.6441 21.5622 77.6659C24.8994 84.6505 33.8501 89.4481 42.4402 87.4681C45.3043 86.7002 47.9063 85.2501 49.7796 83.5565C51.5161 82.2168 55.581 88.0891 60.7129 87.7309C69.7082 89.4867 78.4277 82.3917 80.9216 73.9935C82.4406 72.0982 80.911 68.3775 82.5223 66.8019C88.6927 63.226 92.4935 54.3215 90.4388 46.835ZM33.7504 87.1871C35.0488 87.5089 36.3588 87.7416 37.6986 87.777C36.3588 87.7406 35.0488 87.5089 33.7504 87.1871ZM84.8475 37.5026C84.8475 37.5026 84.8475 37.5026 84.8475 37.5079C84.8475 37.5133 84.8475 37.5004 84.8475 37.4983V37.5026Z" fill="#3372B9"/>
<path d="M39.1777 29.0635C42.1478 29.7467 44.1739 31.5711 45.4022 34.3523L45.7682 35.6265C45.7745 35.6641 45.7798 35.7016 45.7862 35.7391C45.884 36.2978 45.9442 36.8626 45.9665 37.4295C45.9878 38.7102 45.6398 39.9093 45.2081 41.0923L45.2145 41.0827L44.8899 41.7326L44.8962 41.7251L44.5706 42.2668L44.5769 42.2604L44.4306 42.4609L44.4443 42.4545L44.3489 42.5918L44.3584 42.58C44.215 42.6924 44.1025 42.8401 44.0317 43.009L44.0497 42.9972L43.9288 43.1238C43.2934 43.8041 42.5871 44.4129 41.8221 44.9396C39.8374 46.0808 37.7255 46.4938 35.4777 46.0251C34.8296 45.8899 34.2048 45.6625 33.563 45.477L33.5726 45.4877C33.5524 45.4309 33.5259 45.3805 33.4516 45.3976C33.4248 45.3838 33.3946 45.3782 33.3647 45.3815C33.3286 45.2635 33.2215 45.285 33.1366 45.2625L33.1472 45.271C33.1154 45.1509 33.0072 45.1777 32.9255 45.1541L32.9372 45.167L32.8194 45.0512L32.8279 45.0576C32.677 44.9073 32.4962 44.791 32.2975 44.7165L32.3092 44.7262L32.1204 44.5792L32.0907 44.5943L32.1172 44.5739C32.0355 44.517 31.9549 44.4591 31.8743 44.4012L31.8817 44.4076L31.712 44.2585L31.695 44.2521C31.6579 44.2221 31.6208 44.1899 31.5889 44.1588V44.1534L31.1307 43.7416L31.0522 43.6611L30.9185 43.5335L30.9344 43.5421L30.735 43.3061L30.7403 43.3147L30.4932 43.009L30.5006 43.0187C30.4635 42.9758 30.4263 42.9339 30.3945 42.891L30.4083 42.905L30.3022 42.7698L30.3181 42.7784L29.9628 42.2604H29.9681L29.5438 41.501L29.5523 41.5128C29.5342 41.4259 29.53 41.3337 29.4388 41.2854L29.4473 41.2961C28.9572 40.0316 28.6283 38.7413 28.6814 37.3641C28.727 36.1961 29.0399 35.0988 29.443 34.0187L29.4356 34.0284C29.5457 33.904 29.6212 33.7522 29.6541 33.5886L29.6467 33.5983L29.7676 33.3773L29.7591 33.3891L30.0073 32.9794H29.9946C30.0243 32.9333 30.054 32.8861 30.0848 32.84L30.0752 32.8507L30.2195 32.6523L30.2057 32.6587C30.2375 32.6126 30.2683 32.5665 30.3001 32.5214L30.2916 32.5322L30.6162 32.0967L30.6035 32.1053L30.7212 31.9798L30.8082 31.8779L30.9641 31.6956H30.9567L31.0628 31.5829L31.031 31.5647L31.0596 31.5872L31.1657 31.4714V31.4821L31.3842 31.2676L31.3757 31.2268V31.2676L31.4818 31.1603L31.6547 31.0027L31.7608 30.9179L32.0037 30.7163L31.992 30.7238L32.1893 30.5779L32.1808 30.5844L32.3081 30.4771L32.2943 30.4921L32.4301 30.3956L32.4248 30.4106L32.6232 30.268L32.6126 30.2766L32.7484 30.1875L32.7547 30.1983L33.1514 29.9441L33.1387 29.9537C33.2236 29.9344 33.3148 29.9269 33.3594 29.8325L33.3487 29.8411L33.5715 29.7242L33.562 29.7328L35.0364 29.1654L35.1478 29.1461C36.4865 28.8457 37.8273 28.7717 39.1777 29.0635ZM38.6473 32.7048C36.0463 32.6673 33.8431 34.8746 33.7868 37.5754C33.7359 40.0573 35.954 42.4341 38.3301 42.4985C41.3925 42.58 43.2542 40.0938 43.3486 37.8274C43.4674 35.0784 41.0976 32.6308 38.6505 32.7006L38.6473 32.7048Z" fill="#FDFDFD"/>
<path d="M65.7887 29.1537C68.3939 29.9388 70.3012 31.5573 71.4913 34.0317C72.1633 35.6882 72.3585 37.503 72.0546 39.2669C71.9008 40.2226 71.4786 41.0774 71.0808 41.9419L71.0872 41.9354C71.0182 42.0427 70.9482 42.1596 70.875 42.2712V42.2658L70.6576 42.5929L70.6629 42.5865L70.4295 42.9083C69.2994 44.2967 67.7953 45.3239 66.0995 45.8653C63.7923 46.4981 61.5848 46.2375 59.4729 45.1145H59.4623L58.9435 44.7928L58.9075 44.8303L58.9404 44.7895L58.69 44.6254L58.3771 44.3948L58.3835 44.4013L58.2116 44.25H58.1978L58.078 44.1567H58.0875L57.8435 43.9519L57.5391 43.6548C57.4988 43.6129 57.4574 43.5711 57.4171 43.5282L57.3291 43.4392L56.7838 42.7881V42.7946L56.4656 42.3548L56.473 42.3613C55.6244 40.9229 55.094 39.3945 55.0495 37.6934C55.0145 36.3259 55.3359 35.0517 55.8355 33.8054L55.827 33.8161C55.9225 33.7689 55.9235 33.6745 55.9405 33.5887L55.932 33.5995C56.0243 33.5544 56.0328 33.4622 56.0519 33.3764L56.0413 33.3892C56.1389 33.3474 56.1474 33.2519 56.1654 33.1672L56.1548 33.1801C56.2627 33.0869 56.3407 32.9633 56.3786 32.8251C57.3672 31.3685 58.62 30.2316 60.2515 29.5516C60.775 29.3438 61.3132 29.1764 61.8617 29.0507C63.1626 28.7963 64.5026 28.8314 65.7887 29.1537ZM62.3624 32.7006C59.772 32.7006 57.695 34.893 57.6781 37.643C57.6579 40.2869 59.7752 42.4782 62.3369 42.4932C65.1299 42.5103 67.1846 40.0863 67.1539 37.539C67.1178 34.5583 64.7427 32.6824 62.3624 32.7006Z" fill="#FDFDFD"/>
<path d="M50.5097 56.1334C47.3444 55.9607 44.7975 54.739 43.3421 51.7197C43.0402 51.1327 42.8827 50.4808 42.8828 49.8191C42.8945 49.1906 43.0112 48.6318 43.637 48.3562C44.3191 48.0548 44.9789 48.1202 45.5782 48.59C45.9506 48.8967 46.2191 49.3133 46.3462 49.7816C47.3603 53.1001 51.9014 53.4659 53.8278 51.3315C54.2509 50.8525 54.5754 50.2932 54.7825 49.6862C55.1792 48.5878 56.0395 48.0258 56.9984 48.2017C57.8629 48.3605 58.3286 48.9901 58.2034 49.9693C57.9107 52.2571 56.6675 53.9078 54.7209 55.0329C53.4441 55.7846 51.9869 56.1654 50.5097 56.1334Z" fill="#010101"/>
<path d="M38.6503 32.6999C41.0975 32.6259 43.4673 35.0735 43.3517 37.8225C43.2573 40.0888 41.3956 42.575 38.3332 42.4935C35.9571 42.4291 33.739 40.0523 33.7899 37.5704C33.8461 34.874 36.0494 32.6666 38.6503 32.6999Z" fill="#010101"/>
<path d="M62.3622 32.7004C64.7426 32.68 67.1176 34.5559 67.1537 37.5387C67.1844 40.0861 65.1298 42.5101 62.3368 42.4929C59.775 42.4779 57.6577 40.2866 57.6779 37.6428C57.697 34.8948 59.7718 32.7057 62.3622 32.7004Z" fill="#010101"/>
</g>
<defs>
<clipPath id="clip0_447_6281">
<rect width="81" height="76" fill="white" transform="translate(10 12)"/>
</clipPath>
</defs>
</svg>
