<svg width="100" height="100" viewBox="0 0 100 100" fill="none" xmlns="http://www.w3.org/2000/svg">
<g clip-path="url(#clip0_447_6295)">
<rect width="100" height="100" fill="#08111C"/>
<path d="M84.9298 53.776C83.3197 51.6601 81.1665 50.473 78.5058 50.286C77.9068 50.2441 77.9037 50.2778 78.0898 49.722C83.4987 34.3264 68.6055 17.2429 55.8013 10.5142C52.4744 8.65371 48.6755 8.46674 45.2418 10.1811C41.9467 11.7153 38.8844 13.7104 36.146 16.1068C27.1234 24.2772 17.3115 37.0961 22.0043 49.8916C22.1122 50.1644 22.1386 50.3371 21.7409 50.2931C13.6306 50.618 10.9882 60.3434 14.5541 66.6951C17.0125 71.9782 20.7889 76.5635 25.139 80.3958L25.1512 80.4009C25.8824 81.1015 26.6643 81.7466 27.4905 82.3309C27.5495 82.1786 27.7041 82.0959 27.8526 82.0131C27.7041 82.0959 27.5475 82.1786 27.4905 82.3309C32.7446 86.5028 38.8349 89.4838 45.3436 91.0692C45.8389 91.2123 46.3027 91.4217 46.383 92.0317C46.3942 93.2699 46.3545 94.5082 46.4512 95.7444C46.6678 98.127 46.8265 100.674 48.1304 102.75C50.4077 105.843 54.3662 103.306 53.7366 99.8373C53.6263 99.702 53.5514 99.5411 53.5189 99.3693C53.5576 99.5391 53.6318 99.6986 53.7366 99.8373C53.7305 99.3867 53.6227 98.9525 53.5332 98.5162C53.523 98.5769 53.5139 98.6371 53.5057 98.6971C53.5118 98.601 53.5169 98.504 53.5169 98.4059C53.0663 96.1858 52.7388 93.9524 52.866 91.6761C52.8934 91.6404 52.9372 91.5893 52.9463 91.5739C53.0606 91.4459 53.1988 91.3418 53.3532 91.2674C53.3624 91.228 53.3808 91.1913 53.4068 91.1602C53.4327 91.1292 53.4656 91.1046 53.5027 91.0887C53.4664 91.1059 53.4343 91.1309 53.4085 91.1617C53.3827 91.1926 53.3639 91.2286 53.3532 91.2674C53.5063 91.2388 53.6478 91.1656 53.76 91.057H53.7112C53.7588 91.0558 53.8063 91.052 53.8536 91.0457C55.1971 90.7587 56.5489 90.4705 57.8273 89.9454V89.9536C58.1508 89.9113 58.4623 89.8032 58.7427 89.6358V89.644C59.0355 89.6131 59.3156 89.5076 59.5564 89.3375V89.3447C59.6693 89.3385 59.7842 89.3365 59.8615 89.2323V89.2384C60.0622 89.2219 60.254 89.1486 60.4148 89.0269L60.4392 89.0361C60.4559 89.0088 60.4742 88.9825 60.4942 88.9574C60.4813 88.9776 60.4701 88.9988 60.4606 89.0208C60.6172 89.001 60.7638 88.9332 60.8806 88.8267V88.8318C60.9367 88.8376 60.9933 88.8305 61.0461 88.811C61.099 88.7915 61.1468 88.7602 61.1858 88.7194C61.2249 88.7221 61.2641 88.7149 61.2997 88.6982C61.3353 88.6816 61.3661 88.6562 61.3892 88.6244C61.4706 88.6162 61.554 88.6101 61.5926 88.5222V88.5283C61.8539 88.4907 62.1 88.3822 62.3046 88.2147V88.2229C62.4905 88.2048 62.6659 88.1275 62.805 88.0022C62.8449 88.0053 62.885 87.9974 62.9208 87.9794C62.9566 87.9614 62.9869 87.934 63.0084 87.9C63.0908 87.9 63.1722 87.8918 63.2179 87.806C63.2582 87.8072 63.298 87.798 63.3336 87.7792C63.3693 87.7604 63.3995 87.7327 63.4213 87.6987V87.7059C63.5784 87.6902 63.7238 87.6154 63.8282 87.4964C63.8682 87.4999 63.9083 87.4922 63.9442 87.4742C63.9801 87.4561 64.0104 87.4285 64.0316 87.3943V87.3994C64.0725 87.404 64.1139 87.396 64.1502 87.3765C64.1866 87.357 64.2161 87.3268 64.235 87.2901C64.3129 87.2847 64.389 87.2639 64.4588 87.2288C64.5286 87.1937 64.5908 87.1451 64.6419 87.0857C64.7982 87.0668 64.9426 86.9921 65.0487 86.8753C65.0885 86.8774 65.1282 86.8691 65.1639 86.8512C65.1995 86.8333 65.2299 86.8064 65.2521 86.7731L65.4667 86.6709H65.4596C65.4915 86.6684 65.5223 86.6578 65.5491 86.6403L65.7688 86.4829C65.8098 86.4864 65.851 86.4777 65.8871 86.4579C65.9233 86.4381 65.9529 86.4081 65.9722 86.3716V86.3767C66.412 86.2002 66.8233 85.9592 67.1927 85.6615L67.2029 85.6687C76.0699 80.641 92.8601 64.6181 84.9298 53.776Z" fill="#3291FF"/>
<path d="M55.4116 52.6559C55.469 52.5827 55.5301 52.5124 55.5946 52.4454C55.6129 52.4321 55.6699 52.378 55.7035 52.3484V52.3565C56.2547 52.0613 56.8223 52.0858 57.404 52.2544C58.3052 52.9041 58.0611 53.9647 57.7977 54.8637L57.8027 54.8719C57.7682 54.8954 57.7405 54.9278 57.7226 54.9658C57.7047 55.0037 57.6973 55.0457 57.701 55.0875V55.0813L57.5993 55.2918V55.2857C57.5647 55.3074 57.5362 55.3374 57.5163 55.3732C57.4963 55.4089 57.4857 55.4491 57.4854 55.49L57.4915 55.4829C57.3559 55.6872 57.2203 55.8943 57.0847 56.104L57.0898 56.0969C56.9544 56.2054 56.8479 56.3458 56.7795 56.5056H56.7877L56.6809 56.619L56.5792 56.7211C56.5792 56.7273 56.508 56.7967 56.4775 56.8233L56.3758 56.9255L56.269 57.0276C56.2537 57.0419 56.1978 57.0981 56.1673 57.1298L56.0655 57.232C56.0584 57.2371 55.9903 57.3025 55.9638 57.3341L55.9699 57.326L55.857 57.4281L55.8642 57.42L55.7502 57.5221L55.7574 57.5119C55.6346 57.5483 55.5291 57.6282 55.4604 57.7367C55.4411 57.7571 55.3841 57.8021 55.3485 57.8388L55.3546 57.8297L55.2356 57.9236V57.9144L55.0566 58.0401H55.0627C54.9364 58.0655 54.8246 58.1387 54.7504 58.2445H54.7576L54.5541 58.3599H54.5613L54.3579 58.4713L53.5442 58.8799C47.1029 61.7406 39.1605 54.0781 43.2715 52.1726C45.142 51.6618 44.9508 54.7033 47.5566 55.6525C49.1839 56.4269 51.2364 56.6343 52.8536 55.7373C52.8944 55.7407 52.9354 55.7331 52.9723 55.7151C53.0092 55.6971 53.0405 55.6695 53.0631 55.6351V55.6402C53.3019 55.5638 53.5149 55.4223 53.6784 55.2315C54.0909 54.9737 54.4389 54.6242 54.6955 54.2099C54.7501 54.1756 54.7967 54.1298 54.8318 54.0756C54.8669 54.0215 54.8899 53.9602 54.8989 53.8962C55.2081 53.5366 55.1888 53.0451 55.4116 52.6559Z" fill="#010101"/>
<path d="M34.7916 49.2413C39.3882 49.2413 43.1145 45.4982 43.1145 40.8809C43.1145 36.2636 39.3882 32.5205 34.7916 32.5205C30.195 32.5205 26.4688 36.2636 26.4688 40.8809C26.4688 45.4982 30.195 49.2413 34.7916 49.2413Z" fill="#FEFDFD"/>
<path d="M36.5442 45.2717C38.7271 45.2717 40.4966 43.4635 40.4966 41.233C40.4966 39.0025 38.7271 37.1943 36.5442 37.1943C34.3614 37.1943 32.5918 39.0025 32.5918 41.233C32.5918 43.4635 34.3614 45.2717 36.5442 45.2717Z" fill="#010101"/>
<path d="M61.8658 49.2413C66.4624 49.2413 70.1887 45.4982 70.1887 40.8809C70.1887 36.2636 66.4624 32.5205 61.8658 32.5205C57.2692 32.5205 53.543 36.2636 53.543 40.8809C53.543 45.4982 57.2692 49.2413 61.8658 49.2413Z" fill="#FEFDFD"/>
<path d="M60.1126 45.2717C62.2954 45.2717 64.065 43.4635 64.065 41.233C64.065 39.0025 62.2954 37.1943 60.1126 37.1943C57.9297 37.1943 56.1602 39.0025 56.1602 41.233C56.1602 43.4635 57.9297 45.2717 60.1126 45.2717Z" fill="#010101"/>
</g>
<defs>
<clipPath id="clip0_447_6295">
<rect width="100" height="100" fill="white"/>
</clipPath>
</defs>
</svg>
