<svg width="100" height="100" viewBox="0 0 100 100" fill="none" xmlns="http://www.w3.org/2000/svg">
<rect width="100" height="100" fill="#08111C"/>
<path d="M86.6748 41.0695C86.3791 39.3586 86.0203 37.6861 85.4202 36.066C83.887 31.9265 81.3074 28.5408 77.8576 25.83C73.6936 22.5631 68.9956 20.5441 63.7104 20.0501C61.9242 19.8843 60.1293 20.0597 58.3612 20.4158C56.5781 20.7719 54.8473 21.3226 53.0675 21.9482C53.1576 21.1295 53.3392 20.3235 53.6088 19.5453C53.9383 18.6474 54.3708 17.7908 54.8975 16.9928C55.5755 15.9341 55.7186 14.7963 55.078 13.667C54.4459 12.556 53.4305 12.0555 52.1717 12.0031C50.7014 11.9464 49.6091 12.6725 48.6781 13.7141C46.9772 15.6037 46.1156 17.89 45.5764 20.326C45.4899 20.7152 45.4269 21.1109 45.3532 21.5023C44.9486 21.3825 44.5418 21.2734 44.1414 21.143C40.9454 20.0871 37.5402 19.8301 34.2223 20.3944C30.7569 20.9786 27.4506 22.2783 24.5136 24.211C16.1627 29.6719 12.3545 37.3924 13.0891 47.3724C13.2631 49.7753 13.8418 52.0904 14.664 54.3415C17.187 61.2496 21.4856 66.8349 27.3698 71.1882C29.8864 73.05 32.5866 74.6006 35.7267 75.1834C35.9777 75.2305 35.9403 75.3705 35.9403 75.5213C35.9467 76.2389 35.6339 76.8195 35.1523 77.3253C34.6014 77.9039 33.9661 78.3947 33.4525 79.016C32.2674 80.4564 32.1318 82.6112 33.1952 84.1543C34.1786 85.583 35.6232 86.277 37.2525 86.6737C40.0916 87.3635 42.7363 87.0074 45.1205 85.2301C46.9708 83.8506 47.9414 81.898 48.6311 79.7763C49.1842 78.075 49.5568 76.3266 49.8868 74.5696C49.9252 74.3685 49.953 74.2573 50.2071 74.2702C50.4612 74.283 50.4366 74.4156 50.4612 74.5813C50.6933 76.103 51.0352 77.6058 51.4841 79.078C52.0499 80.9644 52.792 82.7748 54.1886 84.2014C56.7094 86.7753 59.7983 87.4319 63.2364 86.678C64.5646 86.3871 65.7348 85.7637 66.557 84.6312C67.6695 83.0892 67.5627 81.0136 66.3178 79.3732C65.8939 78.8234 65.4065 78.3259 64.8657 77.891C64.2454 77.3842 63.7745 76.7671 63.6026 75.9662C63.5428 75.686 63.4713 75.4219 63.9763 75.3663C64.729 75.2686 65.4672 75.0801 66.1747 74.8048C68.4383 73.975 70.5107 72.7795 72.4582 71.3829C77.9452 67.4391 81.9011 62.2633 84.6216 56.1048C85.9263 53.176 86.7094 50.0411 86.9353 46.842C87.0821 44.9144 86.9946 42.976 86.6748 41.0695Z" fill="#FD5D4F"/>
<path d="M49.9978 55.6853C46.2694 55.6703 43.6631 53.6321 42.826 50.1449C42.699 49.6102 42.684 49.0819 43.1175 48.6552C43.8393 47.942 45.0116 48.2692 45.3181 49.2669C45.4366 49.654 45.5124 50.0583 45.6693 50.4283C46.3698 52.0772 47.7204 52.799 49.4191 52.9498C50.3224 53.0311 51.2289 52.9669 52.0884 52.6215C53.5266 52.0409 54.2986 50.918 54.6242 49.4412C54.7801 48.7376 55.299 48.2703 55.9333 48.2542C56.5429 48.2403 57.0714 48.6702 57.2519 49.2937C57.3587 49.6455 57.2412 49.9748 57.1558 50.2871C56.3155 53.3744 54.0007 55.4767 50.6951 55.6339C50.4249 55.651 50.1591 55.6746 49.9978 55.6853Z" fill="#010101"/>
<path d="M36.3387 45.9065C41.164 45.9065 45.0758 41.9887 45.0758 37.1559C45.0758 32.3231 41.164 28.4053 36.3387 28.4053C31.5133 28.4053 27.6016 32.3231 27.6016 37.1559C27.6016 41.9887 31.5133 45.9065 36.3387 45.9065Z" fill="#FEFDFD"/>
<path d="M38.1784 41.7523C40.4699 41.7523 42.3276 39.8597 42.3276 37.5251C42.3276 35.1904 40.4699 33.2979 38.1784 33.2979C35.8869 33.2979 34.0293 35.1904 34.0293 37.5251C34.0293 39.8597 35.8869 41.7523 38.1784 41.7523Z" fill="#010101"/>
<path d="M64.7566 45.9065C69.582 45.9065 73.4937 41.9887 73.4937 37.1559C73.4937 32.3231 69.582 28.4053 64.7566 28.4053C59.9313 28.4053 56.0195 32.3231 56.0195 37.1559C56.0195 41.9887 59.9313 45.9065 64.7566 45.9065Z" fill="#FEFDFD"/>
<path d="M62.9167 41.7523C65.2082 41.7523 67.0658 39.8597 67.0658 37.5251C67.0658 35.1904 65.2082 33.2979 62.9167 33.2979C60.6252 33.2979 58.7676 35.1904 58.7676 37.5251C58.7676 39.8597 60.6252 41.7523 62.9167 41.7523Z" fill="#010101"/>
</svg>
