<svg width="100" height="100" viewBox="0 0 100 100" fill="none" xmlns="http://www.w3.org/2000/svg">
<rect width="100" height="100" fill="#08111C"/>
<path d="M89.7528 49.1338C89.8159 48.5194 89.9165 47.9061 89.9336 47.2896C89.9769 45.148 89.6996 43.0118 89.1107 40.9512C87.6971 35.8491 84.9009 31.5973 81.0646 27.9705C77.4766 24.5797 73.2604 22.3146 68.5092 21.0104C65.7355 20.2493 62.9275 19.6774 60.0554 19.416C57.3951 19.1715 54.7445 19.0152 52.0842 19.3458C51.6647 19.3979 51.4186 19.3022 51.3095 18.8079C51.0542 17.6874 50.6678 16.6004 50.1581 15.5692C49.317 13.8344 48.157 12.3803 46.3485 11.5629C44.646 10.7923 42.9563 10.7126 41.426 11.9605C40.189 12.9703 39.5823 15.2428 41.8659 16.36C42.25 16.5471 42.6363 16.7288 43.0184 16.9202C43.9364 17.3651 44.7113 18.0557 45.2559 18.9142C45.3287 19.028 45.47 19.1555 45.3908 19.2916C45.3116 19.4276 45.1318 19.3511 44.9991 19.3479C43.4852 19.3087 41.9702 19.351 40.4608 19.4744C37.8476 19.7029 35.2976 20.2344 32.7722 20.9338C27.1285 22.4974 22.2552 25.2919 18.3109 29.6351C14.6725 33.6456 12.2734 38.2662 11.3552 43.6107C11.0481 45.4294 10.9775 47.2619 11.2782 49.0966C11.153 49.3793 10.9379 49.6281 11.0171 49.9788C11.2311 50.9195 11.4697 51.8475 11.9309 52.7042C13.7191 56.3863 16.4574 58.966 20.5538 59.9163C20.8748 59.9896 20.8534 60.1342 20.816 60.3606C20.7154 60.9527 20.5677 61.5426 20.5388 62.1389C20.3697 65.5839 21.4281 68.6112 23.7491 71.192C23.6817 71.5205 23.7138 71.8436 23.9899 72.0551C24.5602 72.4909 25.137 72.9236 25.8411 73.134C25.8868 73.1874 25.9393 73.2346 25.9974 73.2743C28.6908 74.6562 31.4773 75.2333 34.4437 74.2214C35.0483 74.0152 35.0579 74.0152 35.1531 74.6466C35.7032 78.2829 37.1103 81.543 39.532 84.3417C41.1585 86.2168 43.1168 87.6369 45.5192 88.3575C47.5673 88.9762 49.6733 89.057 51.8049 88.9709C54.9981 88.8422 57.7846 87.7559 60.1517 85.6481C63.4776 82.6899 65.3032 78.9313 65.9516 74.5935C66.0405 74.0035 66.2234 74.062 66.6504 74.2065C69.7087 75.2589 72.5723 74.6753 75.3182 73.1542C75.8447 73.0118 76.2289 72.6228 76.6869 72.3655C77.1449 72.1083 77.4306 71.7214 77.3214 71.1506C77.3924 71.0983 77.459 71.0404 77.5205 70.9773C79.9817 68.0691 80.9801 64.7431 80.384 60.9761C80.2374 60.046 80.2043 60.0694 81.1331 59.7856C84.8785 58.6461 87.528 56.2881 89.0818 52.7117C89.4296 52.1132 89.634 51.4563 89.802 50.7984C89.9454 50.2477 90.1872 49.6716 89.7528 49.1338Z" fill="#F65741"/>
<path d="M71.9014 39.4212C71.8854 44.0982 68.5049 47.7877 63.758 47.8706C59.2422 47.9503 55.3759 44.23 55.3363 39.7497C55.2903 34.5848 59.4027 31.5714 62.8077 31.3524C65.3182 31.1908 67.5483 31.8243 69.3717 33.608C70.1607 34.3617 70.7907 35.2638 71.2251 36.2619C71.6594 37.26 71.8893 38.334 71.9014 39.4212ZM61.6606 44.4234C64.1604 44.4234 66.1925 42.3815 66.1914 39.8698C66.1914 37.4356 64.0458 35.3225 61.59 35.3374C59.1576 35.3512 57.1063 37.425 57.1212 39.856C57.1362 42.3794 59.1694 44.4245 61.6606 44.4234Z" fill="#FCFDFC"/>
<path d="M37.2518 47.8824C32.7574 47.908 29.1083 44.2993 29.088 39.7987C29.0655 35.0389 32.7263 31.3611 37.4936 31.3409C41.8446 31.3228 45.6146 35.0718 45.6446 39.4458C45.6756 44.1345 41.9773 47.8516 37.2518 47.8824ZM39.362 44.4279C40.5639 44.4254 41.7163 43.9525 42.5695 43.1116C43.4227 42.2707 43.9077 41.1296 43.9196 39.9359C43.9634 37.4762 41.7976 35.3089 39.3235 35.3354C38.131 35.3541 36.9937 35.8377 36.1569 36.6818C35.3201 37.5259 34.8509 38.663 34.8505 39.8476C34.8494 42.3774 36.8633 44.4215 39.362 44.4247V44.4279Z" fill="#FCFDFC"/>
<path d="M50.9022 57.9521C47.0102 57.9117 43.8759 55.654 42.9556 52.5385C42.7288 51.771 42.7577 51.0642 43.4318 50.5125C44.35 49.7589 45.8342 50.2361 46.0632 51.382C46.4399 53.2687 47.7454 54.2137 49.4822 54.5931C51.4083 55.0183 53.0638 54.4114 54.3351 52.8776C54.6401 52.5062 54.8495 52.0665 54.945 51.5967C55.1762 50.5093 55.9509 49.9534 56.9247 50.183C57.845 50.3956 58.3736 51.3522 58.1018 52.3567C57.5668 54.3667 56.2826 55.8102 54.5309 56.8625C53.2896 57.6077 51.9284 57.9701 50.9022 57.9521Z" fill="#000101"/>
<path d="M61.6597 44.4233C59.1685 44.4233 57.1353 42.3793 57.1192 39.8526C57.1042 37.4217 59.1524 35.3479 61.588 35.3341C64.0492 35.3192 66.1894 37.4323 66.1894 39.8665C66.1915 42.3814 64.1594 44.4233 61.6597 44.4233Z" fill="#010101"/>
<path d="M39.3631 44.4247C36.8644 44.4247 34.8505 42.3775 34.8516 39.8445C34.852 38.6598 35.3212 37.5228 36.158 36.6787C36.9948 35.8345 38.1321 35.351 39.3246 35.3323C41.7986 35.3057 43.9645 37.473 43.9206 39.9327C43.9088 41.1265 43.4237 42.2675 42.5706 43.1084C41.7174 43.9493 40.565 44.4222 39.3631 44.4247Z" fill="#010101"/>
</svg>
