<svg width="100" height="100" viewBox="0 0 100 100" fill="none" xmlns="http://www.w3.org/2000/svg">
<rect width="100" height="100" fill="#08111C"/>
<g clip-path="url(#clip0_447_6293)">
<path d="M92.909 42.7828C93.4439 36.7952 91.5987 31.577 87.5988 27.1629C84.4858 23.7295 80.6964 21.4167 75.9867 20.9246C74.092 20.7247 72.1904 20.7271 70.3234 21.1291C69.9207 21.2157 69.7781 21.1291 69.6055 20.7582C67.1897 15.5759 63.1817 12.1344 57.9015 10.137C54.6136 8.88474 51.1901 8.86048 47.7539 9.15507C44.9803 9.39305 42.4299 10.3311 40.0302 11.7463C36.3374 13.9239 33.3326 16.7369 31.6323 20.7629C31.3953 21.3232 31.0721 21.2665 30.6453 21.1591C28.1144 20.526 25.5559 20.5468 23.0872 21.292C16.125 23.391 11.3532 27.8687 9.00184 34.8336C7.73411 38.5743 7.70535 42.353 8.71309 46.1399C9.43208 48.8455 10.8873 51.1675 12.6969 53.2723C12.8959 53.5034 12.9511 53.6663 12.8119 53.9655C10.8448 58.085 10.3697 62.4149 11.5661 66.7805C13.4642 73.6865 17.8127 78.3224 24.7955 80.284C25.5828 80.4936 26.384 80.6461 27.1929 80.7403C27.8832 80.8305 28.6309 80.6988 29.3534 80.6884C30.7085 80.6687 30.7189 80.6653 31.2101 81.9395C32.7505 85.9331 35.2664 89.1424 38.7969 91.5533C42.2229 93.9306 46.285 95.2108 50.4492 95.2258C55.1095 95.279 59.2647 93.9066 63.0057 91.171C65.0569 89.6692 66.7457 87.8208 68.1664 85.7229C69.3045 87.4642 70.4422 89.2051 71.5796 90.9457C72.6218 92.548 73.6952 94.133 74.6856 95.7653C75.415 96.9656 76.4975 97.1701 77.465 96.8859C78.6706 96.5312 79.3056 95.3737 79.1584 94.1607C79.0433 93.255 78.521 92.5746 78.0517 91.8676C76.088 88.9055 74.0943 85.9655 72.1283 83.0058C71.6578 82.2976 71.093 81.6414 70.8157 80.8108C71.4093 80.8108 72.0052 80.8201 72.5977 80.7912C75.4507 80.6525 78.2058 80.0322 80.6608 78.5593C85.4924 75.6562 88.5156 71.3702 89.6706 65.8274C90.5035 61.8315 90.0157 57.9453 88.3557 54.2208C88.1521 53.7656 88.2154 53.5034 88.5225 53.1221C90.9625 50.1024 92.5604 46.6956 92.909 42.7828Z" fill="#C2CAC3"/>
<path d="M68.166 85.7227C69.0656 84.2845 69.7616 82.7457 70.3978 81.1769C70.4714 80.9944 70.5128 80.7471 70.8177 80.8153C71.0972 81.6413 71.6598 82.2975 72.1303 83.0102C74.0963 85.9699 76.0899 88.91 78.0536 91.872C78.523 92.579 79.0476 93.2583 79.1603 94.1652C79.3121 95.3782 78.6725 96.5357 77.4669 96.8904C76.4994 97.1746 75.4169 96.9701 74.6876 95.7698C73.6948 94.1375 72.6169 92.5525 71.5815 90.9502C70.4426 89.205 69.3041 87.4625 68.166 85.7227Z" fill="#AA7936"/>
<path d="M27.5728 38.7502C27.5279 34.4608 30.4787 30.5919 34.9008 29.7971C38.1391 29.2172 40.8356 30.2453 42.9707 32.7811C44.5502 34.6549 45.2945 36.8348 45.2612 39.2504C45.2013 43.4843 42.0481 47.0355 38.0666 47.7749C36.2413 48.117 34.3549 47.8692 32.6786 47.0672C31.0023 46.2651 29.6223 44.9501 28.737 43.311C27.888 41.7492 27.5751 40.5743 27.5728 38.7502ZM43.2181 39.2746C43.3101 36.784 41.3982 34.291 38.4359 34.2621C35.729 34.2344 33.6043 36.4328 33.5398 39.1395C33.4812 41.681 35.4449 44.2063 38.3439 44.1948C41.0887 44.1832 43.2146 42.0484 43.2158 39.2746H43.2181Z" fill="#FCFCFC"/>
<path d="M64.401 47.8893C59.5924 48.0337 55.5292 43.6207 55.543 38.7364C55.5557 33.5598 59.314 29.6817 64.2077 29.669C69.3074 29.6551 73.2038 34.0854 73.2636 38.8277C73.3234 43.6346 68.8668 48.058 64.401 47.8893ZM67.4173 39.0599C67.2344 36.1279 65.0015 34.0843 62.1646 34.2587C59.5625 34.4181 57.5872 36.8545 57.8392 39.76C58.0589 42.2876 60.1147 44.3716 63.0712 44.1903C65.5825 44.0355 67.5795 41.6765 67.4173 39.0599Z" fill="#FCFCFC"/>
<path d="M50.9088 57.9537C47.2644 57.971 44.8175 56.5836 43.1759 53.7764C42.7677 53.0583 42.534 52.2536 42.4937 51.4278C42.4431 50.6734 42.9538 49.9907 43.6441 49.8613C44.0125 49.7831 44.3967 49.8448 44.7224 50.0345C45.0481 50.2241 45.2923 50.5283 45.4076 50.8883C45.5123 51.2152 45.5618 51.5606 45.6814 51.8818C46.3648 53.7302 47.7671 54.7006 49.6537 54.8854C51.5404 55.0702 53.2567 54.6393 54.6004 53.1606C55.1606 52.546 55.3251 51.7847 55.5207 51.0292C55.7508 50.1293 56.418 49.6141 57.2026 49.7585C58.1424 49.9317 58.667 50.6168 58.5267 51.578C58.2333 53.5892 57.16 55.1268 55.5598 56.3144C54.0586 57.4281 52.3974 58.0588 50.9088 57.9537Z" fill="#090708"/>
<path d="M43.2166 39.2745C43.2166 42.0471 41.0895 44.1831 38.3424 44.1947C35.4434 44.2062 33.4797 41.6763 33.5384 39.1394C33.6005 36.4327 35.7241 34.2343 38.4344 34.262C41.3967 34.2909 43.3086 36.7839 43.2166 39.2745Z" fill="#080707"/>
<path d="M67.4182 39.0596C67.5804 41.6762 65.5833 44.0352 63.072 44.19C60.1155 44.3713 58.0597 42.2873 57.84 39.7596C57.5881 36.8542 59.5656 34.4178 62.1655 34.2584C65 34.084 67.2352 36.1276 67.4182 39.0596Z" fill="#080707"/>
</g>
<defs>
<clipPath id="clip0_447_6293">
<rect width="85" height="88" fill="white" transform="translate(8 9)"/>
</clipPath>
</defs>
</svg>
