<svg width="100" height="100" viewBox="0 0 100 100" fill="none" xmlns="http://www.w3.org/2000/svg">
<rect width="100" height="100" fill="#08111C"/>
<path d="M89.8496 47.7266L89.7509 47.6084C89.7203 47.568 89.6038 47.437 89.6235 47.4518L89.4527 47.311C89.4241 47.2903 89.3164 47.2036 89.347 47.2341C89.2908 47.2075 89.1644 47.1288 89.1496 47.1356C88.7645 47.0372 88.3784 46.7771 88.0635 46.6373C87.7426 46.5831 87.4236 46.3418 87.1748 46.2433C86.378 45.9566 85.5141 45.5794 84.8051 45.2583C83.6301 44.8556 82.4766 44.3927 81.3494 43.8715C80.9519 43.7508 80.5673 43.5915 80.2011 43.3957C79.8816 41.9814 79.4622 40.5915 78.9461 39.2362L78.9629 39.2087C80.049 37.289 81.2743 35.3299 82.4365 33.5156C82.4957 33.3308 82.5971 33.1622 82.7327 33.0231C82.7941 32.8395 82.8881 32.6683 83.0101 32.5178C83.0472 32.4543 83.0802 32.3885 83.1088 32.3208C83.1355 32.2706 83.2273 32.1297 83.2175 32.1317C83.2244 32.0677 83.2797 31.9219 83.3231 31.9347C83.487 31.6175 83.6815 31.2452 83.8296 30.9566C83.8296 30.8896 83.8741 30.7468 83.9175 30.7547C84.0844 30.2356 84.2858 29.5609 83.9313 29.099L83.7339 28.8931L83.6351 28.7946C83.6075 28.77 83.5265 28.6961 83.5364 28.704C83.5058 28.6843 83.3991 28.5967 83.4228 28.6292C80.0026 28.1308 76.4273 28.9778 72.9508 29.4743C71.97 28.3949 70.9142 27.3858 69.7912 26.4544C70.043 23.6768 70.3205 20.8972 70.3116 18.1048C70.4577 17.4577 70.5871 16.2482 69.8959 15.8286C69.8376 15.7961 69.7359 15.7202 69.7063 15.7123C69.0981 15.5016 68.3931 15.5902 67.858 15.798C67.8293 15.8739 67.6842 15.9074 67.6605 15.8965C67.6101 15.9241 67.4768 16.0137 67.4749 16.0068L67.1648 16.2038V16.1989C67.1135 16.2265 67.0039 16.3358 66.9881 16.3181C66.9545 16.3388 66.8617 16.4018 66.8686 16.3949C66.8232 16.4186 66.6712 16.5318 66.686 16.5013L66.5695 16.589L65.977 16.9889C65.8075 17.1578 65.6062 17.2917 65.3846 17.3828C65.3362 17.4104 65.2128 17.5197 65.2069 17.501C65.1743 17.5217 65.0835 17.5838 65.0874 17.5788C64.91 17.7431 64.706 17.8763 64.4841 17.9728C64.4348 18.0004 64.3005 18.0871 64.2995 18.0822C64.2067 18.1422 64.0764 18.2417 64.0033 18.2792C63.9529 18.3018 63.8295 18.423 63.8196 18.3875C63.693 18.4938 63.5553 18.5863 63.4089 18.6633L63.2953 18.7618C63.246 18.7913 63.1206 18.88 63.1156 18.876C63.0433 18.9745 62.9384 19.0443 62.8194 19.073C62.5979 19.2541 62.3614 19.4162 62.1125 19.5576C61.9979 19.6207 61.835 19.7605 61.7491 19.7842C61.7165 19.8049 61.6218 19.8738 61.6326 19.864C61.4499 20.0128 61.258 20.15 61.058 20.2747C61.0264 20.2964 60.9306 20.3683 60.9424 20.3574C60.8205 20.4682 60.6883 20.5672 60.5475 20.6529C60.478 20.7543 60.3718 20.8248 60.2513 20.8499C60.1889 20.9072 60.123 20.9605 60.0538 21.0095C58.5629 20.4993 57.0349 20.1042 55.4833 19.8275C55.3362 19.5123 55.194 19.2001 55.0656 18.8957C55.0133 18.7746 54.8998 18.5766 54.878 18.5018C54.8563 18.4476 54.7734 18.3048 54.7793 18.3048C54.7023 18.2831 54.6598 18.1078 54.6806 18.1078C54.6055 18.0851 54.5591 17.9108 54.5818 17.9108C54.5078 17.8862 54.4643 17.7138 54.4831 17.7138C54.4594 17.6616 54.3725 17.5168 54.3843 17.5168C54.3063 17.4932 54.2708 17.3198 54.2856 17.3198C54.2066 17.2952 54.1721 17.1327 54.1869 17.1228C54.0784 17.0174 54.0088 16.8786 53.9894 16.7288C53.9563 16.7083 53.9295 16.6791 53.912 16.6443C53.8946 16.6095 53.8872 16.5706 53.8907 16.5318C53.783 16.3496 53.6655 16.1093 53.5895 15.9468C53.5638 15.8906 53.4908 15.7626 53.4908 15.7498C53.4118 15.7271 53.3753 15.5636 53.392 15.5528C53.314 15.5301 53.2755 15.3676 53.2933 15.3558C53.2153 15.3331 53.1788 15.1677 53.1946 15.1588C53.1215 15.1361 53.0702 14.9746 53.0958 14.9618C53.0376 14.8416 52.923 14.6525 52.8984 14.5678C52.7996 14.4082 52.616 14.2497 52.6189 14.0586C52.5202 13.8714 52.3988 13.6331 52.3227 13.4676C49.1562 5.92475 46.201 17.3887 44.174 19.7615C44.1763 19.8115 44.1617 19.8607 44.1325 19.9014C42.6318 20.188 41.1545 20.5857 39.7131 21.0912L39.6785 21.0617C39.4534 20.8903 39.2322 20.715 39.0002 20.5525C38.9725 20.5308 38.8738 20.4451 38.9014 20.4687L38.7316 20.3249C38.7 20.3062 38.62 20.2363 38.62 20.2402C38.5924 20.2176 38.4937 20.1299 38.5154 20.1545C38.4828 20.1348 38.385 20.056 38.3979 20.0777C38.3416 20.0383 38.2547 19.9703 38.2202 19.9487C37.8943 19.733 37.5359 19.4562 37.2328 19.2592C37.2032 19.2405 37.0916 19.1508 37.1222 19.1853C37.061 19.1449 36.981 19.0868 36.9356 19.0612L36.3432 18.6603C36.275 18.6111 36.1585 18.5372 36.119 18.5047C36.0628 18.4653 35.9739 18.3954 35.9413 18.3767C35.7507 18.2496 35.5197 18.09 35.3489 17.9827C35.0742 17.8074 34.8095 17.617 34.556 17.4124C34.4958 17.374 34.4079 17.3139 34.3694 17.2893L34.0791 17.0844C33.9221 16.976 33.6773 16.7988 33.5756 16.715L33.388 16.5929C33.3593 16.5722 33.2567 16.4875 33.2804 16.5131C33.2438 16.4954 33.1678 16.4146 33.1579 16.4383C33.1115 16.4038 32.993 16.3132 32.9891 16.3122C32.8509 16.2462 32.6672 16.0719 32.5685 16.0413C32.5102 16.0068 32.4204 15.934 32.3868 15.9221C32.2979 15.8699 32.136 15.7557 32.0906 15.737C32.0289 15.6977 31.9653 15.6615 31.9 15.6286C31.4063 15.4109 30.7803 15.4976 30.3627 15.6188L30.2422 15.7035C30.1988 15.7281 30.0448 15.8414 30.0655 15.8128C30.0388 15.8384 29.9371 15.9359 29.9667 15.9113C29.868 16.0551 29.7377 16.2767 29.6567 16.3939C29.5422 19.7743 29.8058 23.1478 30.182 26.4908C29.0478 27.4348 27.9827 28.4585 26.9948 29.554C23.5311 29.0084 19.8857 28.3475 16.5287 28.708L16.4122 28.8064C15.1918 29.817 16.4438 31.262 16.9157 32.3395V32.3346C17.0815 32.5432 17.2147 32.7757 17.3107 33.0241C17.4926 33.3085 17.6596 33.6021 17.8113 33.9036C17.9159 34.0622 18.0443 34.2828 18.1075 34.3961C18.1707 34.5094 18.305 34.6699 18.3286 34.7704C18.3504 34.8078 18.3968 34.8827 18.4007 34.8925C18.459 35.0058 18.6071 35.188 18.6199 35.2629C18.6426 35.2993 18.6959 35.3781 18.6979 35.384C18.8559 35.6667 19.0988 35.9849 19.2183 36.2469C19.238 36.2794 19.2982 36.371 19.2913 36.366C19.4275 36.5047 19.529 36.6734 19.5875 36.8585C19.7603 37.1117 19.9637 37.4338 20.0812 37.6465C20.1415 37.745 20.2303 37.874 20.2787 37.9469C20.4673 38.2592 20.7388 38.6295 20.8859 38.9112C20.9106 38.9476 20.9639 39.0225 20.9699 39.0304C21.0094 39.0806 21.0498 39.1348 21.0913 39.1899C20.5893 40.4985 20.1779 41.8399 19.8601 43.2047C19.4957 43.3396 19.1255 43.4775 18.8065 43.5849C16.6985 44.3492 14.6477 45.3952 12.5861 46.0423C11.8663 46.5171 10.7634 46.6914 10.2224 47.4213C10.2105 47.4883 10.1997 47.6271 10.1236 47.6242C10.0276 47.9984 9.98895 48.3849 10.0091 48.7707C10.1236 48.8239 10.1019 49.0307 10.1078 49.0662C10.1987 49.081 10.2204 49.2563 10.2066 49.2632C10.3596 49.4158 10.5847 49.6335 10.7081 49.7428C10.8681 49.8482 11.03 49.9448 11.2018 50.061C11.3191 50.0876 11.4249 50.1507 11.504 50.2412C11.6728 50.2964 11.9266 50.4264 11.9976 50.5367C12.05 50.5623 12.1882 50.6461 12.1951 50.6352C12.2623 50.6441 12.3926 50.6914 12.3926 50.7436C12.4291 50.7574 12.514 50.8322 12.52 50.8066C12.58 50.8469 12.6427 50.8831 12.7076 50.915L13.2575 51.2429C13.4416 51.2972 13.6106 51.3933 13.7512 51.5237C13.8164 51.5581 13.9043 51.6113 13.9487 51.632C14.131 51.6918 14.2991 51.7883 14.4424 51.9157C14.5075 51.9245 14.6477 51.9728 14.6398 52.0221C14.6813 52.0368 14.7445 52.0999 14.7722 52.0851C14.8308 52.1254 14.8918 52.1622 14.9548 52.1954C15.0802 52.2348 15.2895 52.3323 15.334 52.4091C15.3942 52.4426 15.4929 52.5017 15.5314 52.5195C15.5699 52.5372 15.643 52.6012 15.6628 52.5815C15.8504 52.6554 16.1219 52.7903 16.2246 52.9046C16.2858 52.9351 16.3924 52.9972 16.422 53.008C16.6719 53.0984 16.9054 53.2288 17.1132 53.3941C17.2623 53.4109 17.4094 53.5527 17.5081 53.6049C18.1262 53.9309 18.7473 54.25 19.3683 54.5692C19.5525 55.8706 19.82 57.1589 20.1691 58.4263C18.3109 60.8138 16.4596 63.3009 14.6675 65.6471C14.6389 65.7515 14.5293 65.913 14.4641 65.9327C14.4127 66.0233 14.2972 66.1878 14.2804 66.2361C14.0494 66.7965 14.1284 67.4643 14.2656 67.9667C14.2962 68.0248 14.3881 68.1045 14.3851 68.1479C14.4048 68.1774 14.4917 68.2848 14.4601 68.2562C14.4868 68.2818 14.5885 68.3833 14.5589 68.3547C15.6944 68.862 17.1142 68.5783 18.3425 68.6108C20.2738 68.6236 22.2919 68.7093 24.24 68.599C24.4375 68.5606 24.8324 68.6325 25.1988 68.666C25.8769 69.5722 26.604 70.4409 27.3769 71.2683C26.8704 73.5494 26.4201 75.7538 25.9334 78.0487C25.8712 79.3558 24.8917 80.8707 25.6016 82.0575C25.6618 82.1226 25.7507 82.2142 25.7922 82.2614C25.8682 82.3432 26.0617 82.5303 26.1022 82.5313C27.132 82.9755 28.2063 82.2358 29.1196 81.9531C29.1749 81.9315 29.3171 81.8546 29.322 81.8625C29.3743 81.8379 29.5195 81.7522 29.5195 81.764C29.5432 81.6872 29.7169 81.6508 29.7169 81.6655C29.8947 81.5305 30.0954 81.4284 30.3094 81.3641C30.3627 81.3415 30.5068 81.2558 30.5068 81.2656C30.5708 81.2292 30.6367 81.1963 30.7043 81.1671C30.831 81.0908 30.9601 81.0185 31.0914 80.9505C31.5021 80.7387 31.9869 80.4737 32.3888 80.2886C32.795 80.0178 33.2281 79.7894 33.6812 79.607L34.1196 79.3617C34.1591 79.3853 34.2667 79.2849 34.2628 79.3016C34.8651 78.9598 35.5651 78.6062 36.1388 78.3167L36.6325 78.0507C37.5899 78.5093 38.5707 78.9176 39.5709 79.274C40.0201 82.2644 40.7449 85.2597 41.4005 88.1663C41.4862 88.3333 41.5909 88.49 41.7125 88.6332C41.8013 88.7011 41.9287 88.8046 41.9949 88.8518C42.8953 89.2941 43.9913 88.9375 44.3645 88.0845C45.8456 85.7206 47.4204 83.407 48.9301 81.0549C49.2885 81.0667 49.647 81.0755 50.0083 81.0755C50.3312 81.0755 50.6521 81.0686 50.973 81.0588C52.1183 82.8829 53.4335 84.7032 54.5611 86.4662C54.5818 86.4978 54.649 86.5913 54.6381 86.5815C54.6717 86.6554 54.7971 86.7253 54.7526 86.8061L54.7734 86.7627C54.8435 86.8809 55.0133 87.1045 55.0321 87.1666C55.0597 87.201 55.114 87.2739 55.1229 87.2808C55.1851 87.3793 55.273 87.5044 55.3204 87.5763C55.3826 87.6748 55.4724 87.7989 55.5178 87.8718C55.6432 88.0294 55.8062 88.2264 55.9128 88.3643C55.975 88.4214 56.0797 88.5229 56.1162 88.5534C56.206 88.6056 56.365 88.7179 56.4124 88.7386C57.0048 89.0626 57.617 88.9178 58.164 88.6676C58.2167 88.6233 58.2721 88.5822 58.3299 88.5445L58.6537 88.0767C59.7309 82.811 60.5801 80.2797 60.5949 79.2218C61.6091 78.853 62.6031 78.4312 63.5728 77.9581C63.5911 77.9701 63.6068 77.9855 63.6192 78.0034C63.7377 78.0655 63.9253 78.1768 64.0053 78.2132C64.1404 78.2761 64.2722 78.3458 64.4002 78.422C64.6489 78.5123 64.8821 78.6406 65.0914 78.8022C65.4695 78.9628 65.8329 79.2071 66.1715 79.409C66.2634 79.4582 66.4283 79.5656 66.4786 79.5823C66.7285 79.6763 66.9618 79.8093 67.1698 79.9763C67.2221 80.0049 67.3524 80.0876 67.3603 80.0856C67.4245 80.1211 67.5075 80.1704 67.5578 80.196C67.673 80.2231 67.7767 80.2858 67.854 80.3752C67.9103 80.4067 68.0278 80.4737 68.0456 80.4855C68.1167 80.4934 68.2351 80.5289 68.243 80.584C68.3467 80.6028 68.5304 80.7131 68.5442 80.7633C68.6094 80.7692 68.7545 80.8283 68.7417 80.8677C69.0552 80.9986 69.3533 81.1638 69.6303 81.3602C70.0539 81.5789 70.5387 81.8389 70.9257 82.0319C70.989 82.0697 71.055 82.1026 71.1232 82.1304C71.1867 82.1677 71.2527 82.2006 71.3207 82.2289C71.3845 82.2679 71.4504 82.3034 71.5181 82.3353C71.7288 82.4036 71.9259 82.5079 72.1007 82.6436C72.1589 82.6682 72.2843 82.7421 72.2982 82.7421C72.6029 82.8536 72.9308 82.8874 73.252 82.8406C73.2895 82.7628 73.4336 82.7519 73.4633 82.7579C73.7407 82.6426 73.9204 82.4624 74.1544 82.3314H74.1169C75.0885 79.5232 73.169 76.1803 72.9765 73.2244C72.9014 72.3074 72.7997 71.6613 72.6615 71.2348C73.4506 70.3901 74.1919 69.5022 74.8821 68.5754C78.485 68.5754 82.5727 69.2501 85.6938 68.2799C86.066 67.6259 86.1322 66.9009 85.7817 66.2597C85.7609 66.2272 85.7007 66.1376 85.7046 66.1395C85.6158 66.0883 85.4785 65.9022 85.5012 65.8559C85.4726 65.8234 85.4134 65.7495 85.4074 65.7456C85.3087 65.6205 85.1853 65.457 85.1112 65.3516C84.9918 65.191 84.8377 64.9773 84.7232 64.8591C84.6936 64.8217 84.663 64.7852 84.6333 64.7488C84.5682 64.6621 84.4606 64.536 84.4181 64.474L84.2354 64.2573C84.1762 64.1736 84.0547 64.0327 84.0281 63.9815C83.9965 63.948 83.9451 63.883 83.9294 63.8741C83.7832 63.6269 83.5344 63.4535 83.4228 63.1847C83.2909 63.0838 83.1886 62.9494 83.1266 62.7956L82.7949 62.3612C82.8018 62.313 82.6793 62.2302 82.7198 62.2223C82.6211 62.117 82.5372 62.0027 82.4473 61.8914L82.2498 61.6028C81.9754 61.2571 81.6742 60.871 81.4481 60.5331C81.3257 60.4396 81.1706 60.2514 81.1588 60.1391C81.1272 60.1037 81.0788 60.0406 81.0601 60.0298C81.0067 59.951 80.8626 59.7747 80.8626 59.7481C80.833 59.7136 80.7806 59.6496 80.7698 59.6358C80.6019 59.4221 80.4044 59.1502 80.2692 58.9542C80.136 58.8526 80.0335 58.7162 79.973 58.5602C79.9325 58.512 79.889 58.4617 79.8466 58.4056C80.2002 57.1217 80.4697 55.8161 80.6533 54.4973C81.0376 54.274 81.4364 54.0766 81.847 53.9063C82.2558 53.6699 82.7692 53.3941 83.1306 53.2168C83.3902 53.0809 83.6499 52.8869 83.9057 52.7884C83.9433 52.7657 83.9822 52.7453 84.0222 52.7273C84.3579 52.5086 84.7578 52.2584 85.1083 52.1363C85.3173 51.9688 85.5534 51.8379 85.8063 51.7492C85.8587 51.7216 85.99 51.6409 85.9969 51.6438C86.1608 51.4952 86.3578 51.3875 86.5715 51.3296C86.612 51.306 86.6762 51.2686 86.6969 51.2577C86.7483 51.2301 86.8786 51.1504 86.8855 51.1523C87.0554 51.0084 87.2525 50.8999 87.4651 50.8332C87.6091 50.7028 87.7831 50.6098 87.9716 50.5623C88.2214 50.4353 88.5176 50.2373 88.7428 50.1457C88.7803 50.124 88.8553 50.0797 88.8662 50.0748L89.269 49.8778C89.4568 49.7801 89.621 49.6426 89.7499 49.4749C89.8952 49.2091 89.9795 48.9143 89.9967 48.612C90.014 48.3096 89.9637 48.0072 89.8496 47.7266Z" fill="#DEB32D"/>
<path d="M50.0028 81.0775C67.096 81.0775 80.9528 67.2544 80.9528 50.2028C80.9528 33.1512 67.096 19.3281 50.0028 19.3281C32.9095 19.3281 19.0527 33.1512 19.0527 50.2028C19.0527 67.2544 32.9095 81.0775 50.0028 81.0775Z" fill="#FFCD50"/>
<path d="M53.6064 43.0831C54.025 40.0159 56.2466 36.9064 60.123 36.4701C60.1517 36.4701 60.1763 36.4356 60.203 36.4169C61.3147 36.3853 62.4253 36.5106 63.5018 36.7892L63.4939 36.7803C63.5158 36.8134 63.5469 36.8395 63.5833 36.8554C63.6198 36.8713 63.66 36.8764 63.6993 36.87C65.195 37.4441 66.4758 38.4664 67.3654 39.7963C67.7931 40.454 68.1398 41.1607 68.3982 41.9012C68.5915 42.7041 68.6759 43.5294 68.6489 44.3547C68.644 44.4532 68.6391 44.5517 68.6351 44.6502C68.5126 45.3595 68.3401 46.0592 68.1187 46.7442C67.4641 48.0454 66.6278 49.2165 65.3709 50.0094C62.3673 51.9025 59.1505 51.9301 56.3217 49.5405C54.7557 48.2197 53.8236 46.5433 53.5718 44.5025C53.535 44.0294 53.5465 43.5538 53.6064 43.0831ZM63.8049 44.076C63.8395 42.043 62.2725 40.1627 59.9542 40.1726C57.4542 40.1824 55.98 42.2154 56.0906 44.3094C56.1982 46.3424 57.8116 48.0897 60.1388 48.0139C62.1442 47.9469 63.8266 46.1858 63.8049 44.076Z" fill="#FEFDFD"/>
<path d="M46.3615 44.4476C45.7631 48.0575 43.6038 50.1978 40.0986 51.0744C39.8103 51.168 39.4874 51.0853 39.21 51.2399L39.0125 51.2626H38.2374C38.183 51.2147 38.1177 51.1807 38.0472 51.1635C37.9767 51.1464 37.903 51.1466 37.8326 51.1641L37.0101 51.0301C36.0583 50.6824 35.0976 50.3692 34.2741 49.7388C30.8944 47.1494 30.4431 42.1142 33.3233 38.9732C36.0139 36.039 40.2082 35.576 43.3214 37.9685C44.9555 39.2253 45.9873 40.9293 46.3496 42.9918C46.4288 43.4736 46.4328 43.9646 46.3615 44.4476ZM36.3525 44.0536C36.3402 44.5667 36.4305 45.0772 36.6183 45.5551C36.806 46.0329 37.0874 46.4687 37.4459 46.8368C37.8045 47.2049 38.233 47.4981 38.7064 47.699C39.1799 47.9 39.6888 48.0048 40.2033 48.0073C42.3804 48.0023 44.1389 46.3998 44.1261 44.1295C44.1132 41.7744 42.4821 40.1522 40.1164 40.1807C37.8 40.2142 36.3427 42.0187 36.3525 44.0585V44.0536Z" fill="#FEFDFD"/>
<path d="M50.1223 60.2758C46.9736 60.2315 44.1072 58.2881 43.2196 55.5953C42.9313 54.7226 43.1673 54.0341 43.8772 53.6706C44.5634 53.319 45.3168 53.5721 45.689 54.3138C45.9664 54.8684 46.2251 55.4278 46.626 55.9114C48.6096 58.3039 52.4189 57.9858 53.9078 55.2958C54.0312 55.0666 54.1323 54.8262 54.21 54.5778C54.4953 53.6913 55.0986 53.3161 55.9171 53.5308C56.633 53.7189 57.0931 54.5867 56.8245 55.3874C55.9833 57.8961 54.1912 59.4031 51.6794 60.1074C51.173 60.2476 50.647 60.3045 50.1223 60.2758Z" fill="#010101"/>
<path d="M63.8041 44.0763C63.8258 46.1861 62.1434 47.9462 60.136 48.0161C57.8108 48.092 56.1974 46.3417 56.0878 44.3117C55.9773 42.2196 57.4514 40.1867 59.9514 40.1748C62.2717 40.166 63.8387 42.0433 63.8041 44.0763Z" fill="#010101"/>
<path d="M36.3527 44.0588C36.3428 42.0189 37.8002 40.2174 40.1185 40.1859C42.4882 40.1574 44.1154 41.7796 44.1282 44.1346C44.141 46.405 42.3825 48.0075 40.2054 48.0124C39.6907 48.0102 39.1816 47.9056 38.7079 47.7048C38.2343 47.5039 37.8055 47.2109 37.4468 46.8427C37.088 46.4745 36.8065 46.0387 36.6186 45.5607C36.4307 45.0827 36.3403 44.5721 36.3527 44.0588Z" fill="#010101"/>
</svg>
