<svg width="100" height="100" viewBox="0 0 100 100" fill="none" xmlns="http://www.w3.org/2000/svg">
<rect width="100" height="100" fill="#08111C"/>
<path d="M91.4132 44.9894C89.8734 39.0008 86.0232 35.202 80.1114 33.5813C79.5907 33.4382 78.8719 33.5407 78.5663 33.2172C78.2269 32.8574 78.5663 32.1356 78.4999 31.6808C78.4883 30.88 78.4788 30.186 78.3787 29.4985C77.8928 26.1257 76.6406 23.1031 74.3651 20.5609C72.1465 18.0861 69.2912 16.6874 66.202 15.7084C63.5481 14.8681 60.8478 14.8724 58.1317 15.3144C55.5188 15.7415 53.0578 16.5828 50.8782 18.1416C50.583 18.3551 50.4134 18.3551 50.1119 18.1491C46.8361 15.8984 43.1799 14.9322 39.2591 15.0037C35.8747 15.0731 32.7518 16.1643 29.7964 17.7893C26.9159 19.3812 24.8701 21.7503 23.481 24.7195C22.2805 27.2905 21.9717 30.027 22.1287 32.8339C22.1466 33.1542 22.1203 33.2791 21.7598 33.3474C17.8348 34.0841 14.6191 36.0166 12.1876 39.2485C10.3958 41.6347 9.40293 44.3274 9.1036 47.2966C8.72733 51.0068 9.35023 54.5163 11.396 57.6531C14.031 61.6878 17.6809 64.1958 22.505 64.7318C25.4393 65.0585 28.2492 64.6101 30.8251 63.0694C31.1845 62.8559 31.3279 62.9701 31.5376 63.2488C32.4756 64.4926 33.4443 65.7044 34.6416 66.7198C39.5595 70.8773 45.1445 73.0276 51.617 72.6465C54.7315 72.4628 57.6658 71.6461 60.4704 70.3147C63.8695 68.7014 66.7459 66.4187 68.9561 63.3225C69.248 62.9135 69.4514 62.8153 69.9384 63.0822C72.6661 64.577 75.6141 65.0126 78.6601 64.672C82.0655 64.2898 84.9745 62.7715 87.3586 60.3052C91.5302 55.9811 92.9088 50.8114 91.4132 44.9894Z" fill="#A0C2E9"/>
<path d="M68.6049 69.3709C70.1311 69.3388 71.673 70.6521 71.6931 72.7394C71.7089 74.3953 70.1205 75.7524 68.3467 75.6979C66.7731 75.6488 65.4683 74.1113 65.5336 72.3828C65.5968 70.6094 66.9196 69.3153 68.6049 69.3709Z" fill="#FCFDFD"/>
<path d="M32.2071 75.605C30.427 75.5879 29.0578 74.2864 29.0884 72.6411C29.12 70.9211 30.585 69.4509 32.264 69.4541C33.9957 69.4541 35.271 70.794 35.2573 72.5899C35.2415 74.343 33.9494 75.6221 32.2071 75.605Z" fill="#FCFDFD"/>
<path d="M59.8181 77.7172C59.8181 79.45 58.527 80.8241 56.8996 80.8209C55.1901 80.8209 53.6049 79.371 53.6133 77.8229C53.6228 75.9886 54.9276 74.7266 56.8237 74.7266C58.5354 74.7191 59.8171 75.9961 59.8181 77.7172Z" fill="#FCFDFD"/>
<path d="M35.1712 82.5198C35.1554 84.2932 33.8927 85.6544 32.2706 85.648C30.5063 85.6406 29.0391 84.227 29.0528 82.5518C29.0665 80.8766 30.5147 79.431 32.1695 79.4715C33.9781 79.51 35.1881 80.7389 35.1712 82.5198Z" fill="#FCFDFD"/>
<path d="M65.5832 82.359C65.5389 80.6785 66.7594 79.4005 68.4532 79.3535C70.0869 79.3098 71.6373 80.7287 71.7321 82.2523C71.8301 83.8367 70.3704 85.4275 68.5702 85.4831C66.8343 85.5375 65.6327 84.2584 65.5832 82.359Z" fill="#FCFDFD"/>
<path d="M46.9698 87.0559C46.9825 88.7194 45.7483 89.991 44.1083 90.0038C42.3439 90.0166 40.9769 88.7162 40.9611 87.009C40.9453 85.3018 42.2627 83.854 43.8469 83.8486C45.5048 83.8433 46.9561 85.3338 46.9698 87.0559Z" fill="#FCFDFD"/>
<path d="M56.9551 83.9229C58.5065 83.9229 59.8325 85.3578 59.8008 86.9967C59.7713 88.6815 58.4865 90.0076 56.8887 90.0011C55.2708 90.0011 53.9217 88.5897 53.9238 86.9113C53.9259 85.2329 55.2508 83.9175 56.9551 83.9229Z" fill="#FCFDFD"/>
<path d="M46.7688 77.6769C46.7182 79.4791 45.4387 80.6738 43.6248 80.613C42.1207 80.5617 40.915 79.1321 40.9561 77.4484C40.9919 75.9462 42.4317 74.5987 43.9599 74.6457C44.7267 74.6777 45.4505 75.0131 45.9758 75.5799C46.501 76.1467 46.7857 76.8996 46.7688 77.6769Z" fill="#FDFDFD"/>
<path d="M62.7504 29.0742C67.2162 29.1159 70.6047 32.904 70.6131 37.2334C70.6216 42.2515 66.8694 45.652 62.4321 45.651C57.4141 45.651 54.4219 41.3803 54.4219 37.48C54.4314 32.6467 57.9633 29.0742 62.7504 29.0742ZM61.8598 33.4143C59.3303 33.4314 57.4784 35.3532 57.4869 37.9552C57.4953 40.3959 59.4957 42.3796 61.9315 42.3625C64.3672 42.3454 66.315 40.3126 66.2971 37.8099C66.2802 35.3372 64.3219 33.3983 61.8588 33.4143H61.8598Z" fill="#FDFDFD"/>
<path d="M30.1831 37.3387C30.0155 33.0445 33.7877 28.9297 38.1565 29.0321C42.2575 29.1282 46.445 32.2725 46.3955 37.5597C46.3501 42.3503 42.7487 45.7434 38.2882 45.7007C33.7171 45.6559 30.1684 42.0162 30.1831 37.3387ZM39.0366 33.4203C38.4412 33.4081 37.8493 33.516 37.2954 33.7377C36.7416 33.9594 36.2368 34.2905 35.8104 34.7116C35.3841 35.1328 35.0446 35.6357 34.8119 36.191C34.5792 36.7463 34.4579 37.3429 34.4549 37.9462C34.4085 40.4712 36.4912 42.502 39.0049 42.5041C41.5809 42.5041 43.4886 40.531 43.4886 37.8608C43.4854 35.3838 41.5176 33.4214 39.0366 33.4203Z" fill="#FDFDFD"/>
<path d="M50.2724 56.0559C47.005 56.0762 43.8051 53.707 42.9272 51.2962C42.7069 50.6898 42.4392 50.0855 42.6247 49.3979C42.8692 48.4935 43.393 47.9939 44.2057 47.9512C44.9867 47.9106 45.6528 48.3782 45.9036 49.2559C46.1237 50.0832 46.5855 50.8238 47.2285 51.3805C49.5293 53.3568 53.8549 52.8422 54.911 49.5452C54.9885 49.3101 55.091 49.0842 55.2166 48.8715C55.7288 47.9885 56.4002 47.7451 57.3499 48.0814C57.9875 48.3067 58.4955 49.2708 58.3754 50.0577C58.2078 51.1606 57.6798 52.0991 56.9915 52.9404C55.2546 55.0416 52.9917 56.073 50.2724 56.0559Z" fill="#010202"/>
<path d="M61.8593 33.4142C64.3225 33.3981 66.2808 35.336 66.2966 37.8098C66.3145 40.3124 64.3636 42.3453 61.931 42.3624C59.4984 42.3794 57.4948 40.3957 57.4863 37.9593C57.4811 35.3531 59.3287 33.4312 61.8593 33.4142Z" fill="#010101"/>
<path d="M39.0375 33.4199C41.5228 33.4199 43.4906 35.3833 43.4895 37.8603C43.4895 40.5295 41.5818 42.5047 39.0059 42.5037C36.4921 42.5037 34.4095 40.4751 34.4558 37.9458C34.4588 37.3425 34.5802 36.7459 34.8129 36.1906C35.0456 35.6353 35.385 35.1324 35.8114 34.7112C36.2377 34.29 36.7425 33.959 37.2964 33.7373C37.8502 33.5156 38.4421 33.4077 39.0375 33.4199Z" fill="#010101"/>
</svg>
