<svg width="238" height="222" viewBox="0 0 238 222" fill="none" xmlns="http://www.w3.org/2000/svg">
<path d="M223.068 91.6878C219.519 82.5078 213.168 73.3669 205.844 68.8068L205.89 68.7877C204.539 67.5986 203.06 66.4486 201.286 65.9056C200.904 64.9468 200.232 64.7733 199.293 64.8521C198.529 63.8795 197.224 63.3668 195.998 63.2317C193.895 49.1487 192.143 32.6448 181.029 23.3687L181.005 23.4593C180.791 22.2813 179.696 21.7322 178.651 21.0389C178.691 20.1833 174.19 17.1173 173.581 16.8747C173.684 16.1346 173.196 16.2454 172.753 16.2919C171.941 15.4549 171.705 14.197 170.3 14.5631L170.277 14.6365C169.894 14.288 169.618 13.7323 169.018 13.9486C169.095 12.7457 168.293 13.0797 167.645 13.1393C167.687 12.7007 166.188 12.038 165.855 12.1922C165.668 11.4258 165.195 11.4301 164.568 11.6038C164.437 11.0073 163.753 11.2296 163.372 11.142C163.97 9.94387 157.149 8.93244 156.154 8.5318C155.233 7.80562 154.27 8.62479 153.348 8.47771C152.832 7.35407 151.845 8.04248 151.102 7.94741C135.4 6.01044 123.552 15.8637 110.683 21.5784C100.015 20.994 90.531 14.6827 79.3751 14.9811C65.0065 14.3655 50.7908 24.0532 43.3847 33.8341L43.1211 34.1683C41.6059 34.7391 41.892 35.7449 41.1569 36.929C39.8771 37.4609 38.307 41.3438 38.0647 42.3626C37.7226 42.4326 37.3571 42.4937 37.8203 42.9332C37.686 43.2907 37.2631 43.4232 37.3702 43.8518C36.7415 44.7069 36.0835 45.4714 36.2421 46.5247C35.2694 47.0554 35.2357 47.9416 35.3633 48.8875C34.7385 49.833 34.4748 50.837 34.0119 51.9556C32.0163 59.78 32.6654 67.8854 33.6613 75.8324C31.5547 89.3305 11.6912 92.9791 13.0013 122.281C12.2123 132.013 18.2345 147.084 26.1012 153.965C26.047 154.763 26.6393 154.553 27.0844 154.954C27.1175 155.269 27.1812 155.447 27.5644 155.392C27.2458 156.49 28.2098 155.983 28.6547 156.489C29.1795 157.192 29.8547 158.066 30.8146 158.272C30.9701 159.027 31.8708 158.856 32.3862 159.497C32.3859 160.647 33.3407 159.999 33.8727 160.476C33.8327 161.275 35.0339 160.8 34.8878 161.34C34.9277 161.291 35.0558 161.249 35.0418 161.196C40.8816 163.511 42.015 166.869 42.2431 172.873C43.872 179.55 46.2876 186.499 50.5757 191.398C61.2654 208.757 86.1032 218.841 108.129 211.287C115.443 208.486 121.881 203.972 126.337 199.022C130.531 195.037 142.827 209.283 156.213 206.928C180.331 209.039 201.29 188.062 205.532 165.394C209.002 160.015 203.96 150.699 207.76 146.131C222.989 135.068 230.526 110.714 223.068 91.6878ZM85.2192 212.951C88.7192 213.435 92.2254 213.682 95.7553 213.405C92.2251 213.679 88.7192 213.435 85.2192 212.951ZM205.81 68.8075C205.81 68.8075 205.81 68.8075 205.811 68.8215C205.813 68.8355 205.809 68.8018 205.809 68.7962L205.81 68.8075Z" fill="#87B08C"/>
<path d="M89.0875 55.9037C96.9345 57.7016 102.287 62.5028 105.533 69.8217L106.5 73.1748C106.516 73.2736 106.53 73.3724 106.547 73.4712C106.805 74.9415 106.965 76.4276 107.024 77.9195C107.08 81.2897 106.16 84.4453 105.02 87.5585L105.037 87.5331L104.179 89.2436L104.196 89.2239L103.335 90.6492L103.352 90.6323L102.966 91.1601L103.002 91.1432L102.75 91.5045L102.775 91.4734C102.396 91.7692 102.099 92.1579 101.912 92.6024L101.959 92.5714L101.64 92.9044C99.9611 94.6947 98.095 96.2969 96.0742 97.683C90.8306 100.686 85.2508 101.773 79.3123 100.539C77.6 100.184 75.9493 99.5854 74.2538 99.0971L74.279 99.1253C74.2257 98.9757 74.1557 98.8431 73.9595 98.8882C73.8887 98.8518 73.8088 98.8371 73.7297 98.8459C73.6344 98.5354 73.3514 98.5919 73.1272 98.5326L73.1552 98.5552C73.0711 98.2391 72.7853 98.3096 72.5695 98.2475L72.6003 98.2814L72.2892 97.9766L72.3116 97.9935C71.9128 97.5979 71.4352 97.2919 70.9104 97.0959L70.9412 97.1213L70.4423 96.7346L70.3639 96.7742L70.4339 96.7205C70.2181 96.5709 70.0052 96.4185 69.7922 96.2661L69.8118 96.283L69.3634 95.8907L69.3185 95.8738C69.2205 95.7947 69.1224 95.7101 69.0383 95.6282V95.6141L67.8276 94.5302L67.6202 94.3185L67.2671 93.9827L67.3091 94.0052L66.7823 93.3843L66.7963 93.4069L66.1433 92.6024L66.1629 92.6278C66.0648 92.5149 65.9667 92.4049 65.8827 92.292L65.9191 92.3287L65.6388 91.973L65.6809 91.9956L64.742 90.6323H64.756L63.635 88.6339L63.6575 88.665C63.6098 88.4364 63.5986 88.1936 63.3576 88.0666L63.38 88.0948C62.0852 84.7671 61.2165 81.3715 61.3566 77.7474C61.4771 74.6736 62.3038 71.7862 63.3688 68.9438L63.3492 68.9693C63.6402 68.6419 63.8394 68.2425 63.9265 67.812L63.9069 67.8374L64.2264 67.256L64.204 67.287L64.8597 66.2088H64.8261C64.9046 66.0874 64.9831 65.9632 65.0643 65.8419L65.0391 65.8701L65.4202 65.3479L65.3838 65.3649C65.4679 65.2435 65.5492 65.1221 65.6332 65.0036L65.6108 65.0318L66.4684 63.8858L66.4348 63.9084L66.7458 63.5782L66.9756 63.31L67.3876 62.8302H67.368L67.6482 62.5338L67.5642 62.4859L67.6398 62.5451L67.9201 62.2403V62.2685L68.4974 61.704L68.475 61.5968V61.704L68.7552 61.4218L69.212 61.0068L69.4923 60.7839L70.1341 60.2532L70.1032 60.273L70.6245 59.8891L70.6021 59.9061L70.9384 59.6238L70.902 59.6633L71.2607 59.4093L71.2467 59.4488L71.7707 59.0734L71.7427 59.096L72.1014 58.8617L72.1183 58.8899L73.1664 58.221L73.1328 58.2464C73.357 58.1956 73.598 58.1758 73.7157 57.9274L73.6877 57.95L74.2762 57.6424L74.251 57.665L78.1465 56.1718L78.4407 56.121C81.9775 55.3307 85.5199 55.1359 89.0875 55.9037Z" fill="#FDFDFD"/>
<path d="M159.393 56.1405C166.276 58.2066 171.315 62.4658 174.46 68.9774C176.235 73.3367 176.751 78.1125 175.948 82.7543C175.541 85.2692 174.426 87.5187 173.375 89.7937L173.392 89.7768C173.21 90.059 173.025 90.3667 172.831 90.6602V90.6461L172.257 91.507L172.271 91.4901L171.654 92.3368C168.669 95.9906 164.695 98.6937 160.214 100.119C154.119 101.784 148.287 101.098 142.707 98.1428H142.679L141.309 97.296L141.213 97.3948L141.3 97.2876L140.639 96.8557L139.812 96.2489L139.829 96.2658L139.375 95.8678H139.338L139.022 95.6223H139.047L138.402 95.0832L137.598 94.3013C137.492 94.1912 137.382 94.0812 137.276 93.9683L137.043 93.734L135.603 92.0207V92.0376L134.762 90.8804L134.782 90.8973C132.539 87.1123 131.138 83.0902 131.021 78.6136C130.928 75.0149 131.777 71.6617 133.097 68.3819L133.075 68.4101C133.327 68.2859 133.33 68.0375 133.375 67.8117L133.352 67.8399C133.596 67.7214 133.618 67.4787 133.669 67.2528L133.641 67.2867C133.899 67.1766 133.921 66.9254 133.969 66.7025L133.941 66.7363C134.226 66.4912 134.432 66.1659 134.532 65.8021C137.144 61.969 140.454 58.9771 144.764 57.1876C146.147 56.6409 147.569 56.2003 149.018 55.8695C152.455 55.2 155.995 55.2924 159.393 56.1405Z" fill="#FDFDFD"/>
<path d="M119.027 127.142C110.664 126.688 103.935 123.473 100.09 115.527C99.2928 113.982 98.8766 112.267 98.877 110.526C98.9078 108.872 99.2161 107.401 100.87 106.676C102.672 105.883 104.415 106.055 105.998 107.291C106.982 108.098 107.691 109.194 108.027 110.427C110.706 119.16 122.704 120.122 127.793 114.505C128.911 113.245 129.768 111.773 130.316 110.176C131.364 107.285 133.637 105.806 136.17 106.269C138.454 106.687 139.684 108.344 139.354 110.921C138.58 116.941 135.296 121.285 130.153 124.246C126.78 126.224 122.93 127.226 119.027 127.142Z" fill="#010101"/>
<path d="M76.8434 67.0043C83.3088 66.8095 89.5696 73.2506 89.2641 80.4848C89.0147 86.4488 84.0963 92.9915 76.0054 92.777C69.7278 92.6076 63.8678 86.3529 64.0023 79.8215C64.1508 72.7256 69.9716 66.9168 76.8434 67.0043Z" fill="#010101"/>
<path d="M147.376 68.0004C153.665 67.9468 159.94 72.8834 160.035 80.7329C160.117 87.4365 154.688 93.8154 147.309 93.7703C140.541 93.7308 134.947 87.9643 135 81.0067C135.051 73.7754 140.533 68.0145 147.376 68.0004Z" fill="#010101"/>
</svg>
