<svg width="238" height="222" viewBox="0 0 238 222" fill="none" xmlns="http://www.w3.org/2000/svg">
<g clip-path="url(#clip0_474_6039)">
<path d="M215.645 128.708C215.547 128.444 215.472 128.174 215.389 127.904L215.414 127.933C214.76 126.607 214.112 125.275 213.469 123.936C213.203 123.711 213.018 123.402 212.944 123.058L212.624 122.518C212.267 122.199 211.988 121.799 211.808 121.351L211.821 121.368C211.591 121.052 211.357 120.74 211.124 120.425L211.069 120.328L209.857 118.822L209.874 118.839C209.743 118.692 209.615 118.555 209.482 118.399L209.449 118.354C209.109 118.15 208.836 117.848 208.662 117.487H208.696L208.401 117.223L208.343 117.209L207.554 116.391V116.348L207.276 116.064V116.084L206.804 115.678L206.834 115.7L206.512 115.414V115.439C205.87 114.064 206.698 112.811 206.937 111.556C207.804 106.977 207.851 102.392 207.468 97.7756C206.34 89.0858 203.022 81.4642 197.057 75.0783C193.815 71.6013 190.003 68.9282 185.944 66.5562C180.143 63.6274 173.975 61.8974 167.632 60.818C166.145 60.5651 166.323 59.6817 166.223 58.6477C165.731 53.5031 164.934 48.4211 163.15 43.5465L163.178 43.5749C162.978 43.0919 162.775 42.609 162.575 42.1233C160.782 38.4212 158.576 34.9438 156.001 31.7604L155.668 31.3286L155.701 31.3854L155.385 31.0587L155.423 31.0985L155.118 30.7604L155.143 30.7945L154.587 30.1951L154.615 30.2179L154.293 29.9082L154.315 29.9395L153.74 29.3543L153.776 29.377L153.442 29.056L153.217 28.8316L152.809 28.4879C150.289 26.3505 147.642 24.3735 144.885 22.5678C143.988 22.1895 143.139 21.7011 142.357 21.1134L142.39 21.139C142.171 21.0963 141.929 21.0963 141.815 20.8549C141.604 20.8094 141.379 20.7867 141.259 20.5708C140.848 20.489 140.465 20.2991 140.148 20.0197C139.934 19.9714 139.69 19.9771 139.57 19.7357C138.771 19.4981 138.011 19.138 137.317 18.6675L137.286 18.6903C127.531 14.7815 117.335 13.8156 106.966 14.0287C106.826 14.1048 106.672 14.1501 106.513 14.1619C106.355 14.1736 106.196 14.1515 106.046 14.0968L105.463 14.1821C100.825 14.4209 96.2077 14.9799 91.6433 15.8552C86.2199 16.8637 80.9716 18.5255 75.7232 20.193L74.4396 20.6589L74.4146 20.622L70.2471 22.2781C69.9276 22.4485 69.6164 22.6417 69.2858 22.7866C63.7787 25.1754 58.4552 27.9843 53.3602 31.1894C47.2269 35.0559 41.513 39.5782 36.3149 44.6799L35.912 45.0975L35.8676 45.1458L34.6368 46.3843L34.0811 46.9667H34.095L33.5393 47.5661L33.5588 47.5377L33.2504 47.8501L33.2754 47.8302L32.4252 48.7847C29.6022 52.2825 27.1073 56.0441 24.9736 60.0197L24.7402 60.372L24.7764 60.4714L23.3511 63.7467L23.3761 63.8064C21.8174 68.3231 20.8255 72.9421 21.0256 77.7656C21.0645 78.6576 21.17 79.5467 21.2451 80.4359L21.2617 81.004C21.2951 81.379 21.4812 81.754 21.2756 82.1403C21.2978 82.2216 21.3063 82.3061 21.3006 82.3903C22.0424 83.9442 22.1591 85.6855 22.712 87.299C23.5549 89.7175 24.5881 92.0622 25.8016 94.3099L25.7766 94.2929L26.9046 96.0371L26.8796 96.0058L27.263 96.52L27.7242 97.1705L27.7048 97.1506L28.0965 97.5739V97.6534L28.3466 97.9062C28.3665 97.9136 28.386 97.9221 28.4049 97.9318L29.4134 99.1278L29.3718 99.1022L29.6996 99.4232L29.6635 99.3806L30.2775 99.9487L30.2581 99.9203L30.836 100.406L30.9027 100.471L31.3166 100.869L31.3 100.852L32.428 101.721L32.4085 101.704L33.781 102.63C36.1333 104.062 38.6681 105.154 41.3132 105.874C41.5326 105.941 41.7577 105.986 41.9856 106.008C42.8552 106.025 43.0552 106.269 42.7357 107.218C40.7485 112.946 39.7912 118.995 39.9101 125.072C40.0018 128.91 40.7131 132.64 41.7049 136.324H41.6605L43.2942 140.633C45.8558 146.278 49.4455 151.084 54.3604 154.808L56.0441 155.967C56.3886 156.052 56.6956 156.252 56.9165 156.536L56.897 156.513C57.9584 157.03 59.0586 157.473 59.9532 158.263C60.0319 158.255 60.1111 158.271 60.1811 158.308L68.5467 161.101L68.5162 161.078C68.9968 161.16 69.5664 160.822 69.9442 161.39C70.0276 161.383 70.1113 161.4 70.186 161.439C71.2973 161.282 72.6309 161.069 73.4116 161.691C74.1924 162.314 73.3894 163.606 73.2533 164.595C72.4198 170.662 72.4531 176.696 73.7923 182.693C73.8228 182.881 73.8404 183.071 73.8451 183.261L73.8173 183.235L76.0594 190.079L76.0372 190.053C76.4076 190.811 76.7781 191.568 77.1485 192.326C77.4264 192.471 77.4264 192.76 77.5014 193.005C77.6903 193.266 77.8904 193.516 78.0571 193.786C82.0885 200.081 87.1312 205.294 93.6381 208.91C95.9216 210.185 98.2954 211.282 100.74 212.194C102.998 212.591 105.26 212.98 107.519 213.387C111.828 214.159 116.179 214.049 120.513 213.872C127.045 213.605 133.438 212.327 139.767 210.708C140.167 210.606 140.576 210.552 140.981 210.472L140.965 210.495C144.277 209.359 147.594 208.251 150.895 207.086C152.703 206.45 154.482 205.725 156.274 205.044L156.574 204.876L158.207 204.186C158.688 203.927 159.158 203.643 159.655 203.413C164.056 201.373 168.354 199.127 172.549 196.675C181.089 191.686 189.132 185.858 196.565 179.273L197.363 178.631L197.327 178.673L197.646 178.352L197.61 178.398L197.938 178.065L198.174 177.841L198.613 177.435L198.655 177.386L199.052 176.975H199.038L199.613 176.406L199.891 176.122L207.065 168.452C207.168 168.339 207.273 168.225 207.376 168.109L207.329 168.146C207.487 167.93 207.646 167.711 207.801 167.492L207.821 167.469L208.207 166.998L208.19 167.015L210.154 164.441L210.129 164.473L210.391 164.109H210.349L212.041 161.569L212.013 161.595C212.135 161.41 212.255 161.223 212.374 161.027L212.347 161.064C212.394 160.834 212.397 160.581 212.663 160.479L212.886 160.129H212.841L213.313 159.277L213.358 159.209C213.475 158.959 213.475 158.641 213.755 158.484L214.605 156.78L214.586 156.808C215.739 153.891 216.809 150.951 217.409 147.843C218.648 141.298 217.889 134.935 215.645 128.708Z" fill="#3372B9"/>
<path d="M213.453 123.936V123.951L213.471 123.969L213.453 123.936Z" fill="#3372B9"/>
<path d="M139.572 19.7021C139.573 19.7081 139.573 19.7142 139.572 19.7202H139.59L139.572 19.7021Z" fill="#3372B9"/>
</g>
<defs>
<clipPath id="clip0_474_6039">
<rect width="197" height="200" fill="white" transform="translate(21 14)"/>
</clipPath>
</defs>
</svg>
