<svg width="238" height="222" viewBox="0 0 238 222" fill="none" xmlns="http://www.w3.org/2000/svg">
<g clip-path="url(#clip0_462_6661)">
<path d="M214.991 132.746C215.048 128.451 214.876 123.704 212.7 119.924C212.555 118.808 211.944 117.905 211.31 117.01C211.209 116.834 211.108 116.655 211.005 116.476C209.615 113.391 206.35 111.377 205.036 108.729C209.582 96.0522 207.494 80.5062 195.778 72.052V72.0733C195.729 71.948 195.65 71.8366 195.546 71.7494C195.442 71.6621 195.317 71.6018 195.183 71.5738C194.987 71.2997 194.696 71.1043 194.364 71.0236C194.364 71.0236 194.364 71.045 194.364 71.0556C194.3 70.9717 194.218 70.9029 194.124 70.8544C194.029 70.8058 193.924 70.7787 193.818 70.7752C193.902 70.7925 193.988 70.8015 194.074 70.8019L193.528 70.5V70.5161L193.255 70.2783C191.462 69.159 189.536 68.255 187.522 67.5858L187.276 67.3347C185.035 65.0936 186.899 61.3113 185.389 58.7871C184.213 54.1848 181.865 49.9486 178.564 46.4731C178.198 45.6717 177.199 44.857 176.634 44.3736C176.56 44.3014 176.331 44.0744 176.361 44.1065C175.678 43.5322 175.2 42.7255 174.449 42.5038C173.156 41.2957 171.677 40.2926 170.067 39.5308L169.521 39.2583C169.338 39.1648 169.155 39.0714 168.975 38.9912C168.597 38.6666 168.113 38.4831 167.61 38.473C163.788 36.1224 158.396 37.5728 155.07 34.7067H155.111C152.629 31.7684 152.072 27.6762 150.156 24.3266C150.093 23.6829 149.58 23.2795 149.32 22.7239C149.14 22.4568 148.957 22.1897 148.774 21.9226C144.808 16.2017 138.747 12.1902 131.844 10.7171C114.141 5.79423 90.7918 11.1365 85.8992 30.903C83.472 39.1835 72.6548 35.4653 67.1096 40.5939C61.9768 43.6924 57.1306 49.3232 55.0966 54.7643C51.681 58.7283 54.8727 65.7828 50.4551 68.088C49.7626 68.2216 49.1095 68.5055 48.544 68.9187V68.9C47.7249 69.095 47.1051 69.6052 46.3598 70.0032C41.8494 72.4072 37.623 76.7372 35.1657 81.4891C34.7671 82.3225 34.1856 82.9796 34.0218 83.8771C33.787 83.9893 33.7979 84.2217 33.7624 84.4301C33.4894 84.8761 33.1672 85.5706 33.2163 86.0141C32.9187 86.153 32.7522 86.6364 32.9433 86.8154C30.8246 92.1577 30.9803 99.1641 32.9133 104.501C33.2928 106.157 34.3794 107.738 33.4948 109.536C19.7289 121.535 20.7118 145.81 37.4564 154.777C42.5183 157.868 38.1363 169.001 43.0889 174.985C43.28 175.341 43.4693 175.697 43.6568 176.053C50.4961 189.775 70.0228 194.372 82.997 186.78C83.3628 186.58 83.7287 186.513 84.0891 186.201L85.4542 185.421L86.0139 185.154L85.9975 185.167C87.9906 184.9 90.0082 186.366 89.8717 188.415C94.1664 217.718 109.317 209.763 132.663 210.618C152.026 211.953 143.816 177.974 155.832 186.735C156.402 186.986 156.82 187.48 157.47 187.571C157.778 187.878 158.289 187.966 158.546 188.081C159.179 188.479 160.064 188.883 160.73 188.883C169.975 191.701 181.827 190.678 188.974 183.893L188.914 183.858C190.006 183.302 191.371 181.788 191.887 180.885C201.957 172.188 195.898 158.431 201.815 154.5C205.806 152.261 209.173 149.157 211.33 145.108H211.297C211.958 144.213 212.727 142.971 212.935 141.889C213.422 141.274 213.707 140.529 213.754 139.752C214.625 137.567 214.843 135.091 214.991 132.746Z" fill="#87B08C"/>
<path d="M89.4336 186.727C95.5057 193.818 103.123 197.035 112.278 197.646C119.376 198.119 126.519 198.295 133.516 196.538C139.25 195.101 144.486 192.761 148.614 188.447C149.087 187.95 149.537 187.434 149.999 186.927C149.341 192.197 147.727 197.205 145.783 202.152C143.517 207.909 139.315 210.86 133.017 210.927C123.925 211.021 114.836 211.047 105.747 210.927C99.5382 210.842 95.6067 207.735 93.3679 202.227C91.5059 197.652 90.7468 193.599 89.7558 188.778C89.6739 188.369 89.4636 187.138 89.4336 186.727Z" fill="#E36920"/>
<path d="M131.545 76.0933C131.545 64.9332 140.888 55.8941 152.461 55.8994C164.035 55.9048 173.233 65.4675 173.086 76.3524C172.935 87.3495 163.898 96.1616 152.44 96.1669C140.667 96.1723 131.556 87.4216 131.545 76.0933Z" fill="#FDFDFC"/>
<path d="M107.254 76.0665C107.24 87.4002 98.102 96.1268 86.3373 96.1829C76.0689 96.2283 65.9888 88.287 65.8441 76.3176C65.8034 73.6422 66.3085 70.9858 67.3298 68.5037C68.3512 66.0216 69.8683 63.7637 71.7923 61.8622C73.7163 59.9607 76.0087 58.4536 78.5352 57.4293C81.0618 56.405 83.7718 55.884 86.5066 55.8967C98.0719 55.9208 107.273 64.8611 107.254 76.0665Z" fill="#FDFDFC"/>
<path d="M133.149 115.389L132.897 115.611C132.777 115.71 132.66 115.811 132.542 115.913C129.733 117.903 126.741 119.449 123.241 119.983C114.422 121.319 106.859 117.991 102.051 110.565C100.926 108.826 99.9652 107.052 99.8669 104.918C99.8242 104.21 99.9261 103.501 100.167 102.832C100.407 102.163 100.781 101.547 101.268 101.021L101.571 100.754V100.773C103.138 99.8163 104.762 99.7763 106.43 100.505L106.936 100.858L106.908 100.823L107.241 101.09L107.211 101.058L107.512 101.358L107.479 101.328L107.752 101.646L107.716 101.619L107.948 101.927V101.972L108.262 102.439H108.246C108.333 102.616 108.418 102.792 108.503 102.974V103.016C108.83 103.965 108.871 105.001 109.431 105.88V105.864C109.461 106.08 109.458 106.313 109.704 106.43L109.682 106.406C109.726 106.62 109.75 106.844 109.991 106.94L110.223 107.274H110.201C110.275 107.368 110.346 107.461 110.417 107.557L110.436 107.632L110.81 108.033C110.987 108.217 111.167 108.401 111.356 108.588V108.57L111.656 108.861L111.629 108.834C111.733 108.928 111.836 109.021 111.937 109.117L111.915 109.093L112.221 109.36L112.694 109.726L112.778 109.692L112.702 109.737L113.521 110.25V110.218L113.87 110.431C117.395 112.272 120.969 112.272 124.584 110.699L124.567 110.712C124.789 110.685 125.023 110.688 125.149 110.445L125.127 110.464C125.346 110.423 125.569 110.389 125.673 110.159H125.657L126.004 109.94V109.969L126.506 109.622H126.49L126.823 109.368L126.801 109.4L127.115 109.16H127.134L127.593 108.783C129.192 107.549 130.006 105.845 130.552 103.997C130.626 103.743 130.661 103.478 130.719 103.219C131.044 101.758 131.453 100.361 133.214 99.9339C135.054 99.4878 136.605 99.9526 137.897 101.296C137.991 101.391 138.092 101.48 138.197 101.563C138.705 102.653 139.073 103.724 138.866 104.993C138.675 106.168 138.369 107.312 138.137 108.465L138.159 108.444C137.88 109.071 137.601 109.694 137.32 110.314H137.337L137.039 110.864L137.058 110.84L136.531 111.668L135.966 112.47L135.518 112.908H135.538L135.284 113.22L135.316 113.196L135.043 113.509L135.071 113.485L134.798 113.786L134.822 113.765L134.536 114.059L134.56 114.043L134.271 114.331L133.468 115.133L133.149 115.389Z" fill="#010101"/>
<path d="M157.844 66.0048C164.473 65.8098 169.764 71.5982 169.677 77.9555C169.64 81.0392 168.36 83.9837 166.115 86.1491C163.871 88.3144 160.843 89.5254 157.691 89.5189C151.357 89.5189 145.951 84.0858 146 77.7792C146.041 71.104 151.226 65.9567 157.844 66.0048Z" fill="#010101"/>
<path d="M104.732 77.6785C104.754 84.327 99.4899 89.5357 92.7571 89.5277C86.3874 89.5277 80.9324 84.1854 81.0006 77.8441C81.0744 70.7816 86.614 65.9575 92.8171 66.0003C99.5772 66.0484 104.71 71.0033 104.732 77.6785Z" fill="#010101"/>
</g>
<defs>
<clipPath id="clip0_462_6661">
<rect width="191" height="202" fill="white" transform="translate(24 9)"/>
</clipPath>
</defs>
</svg>
