<svg width="238" height="222" viewBox="0 0 238 222" fill="none" xmlns="http://www.w3.org/2000/svg">
<g clip-path="url(#clip0_462_6690)">
<g clip-path="url(#clip1_462_6690)">
<path d="M173.653 150.133C170.811 160.205 165.597 170.021 158.374 177.752C169.495 190.266 186.473 186.231 188.022 175.227C189.596 164.073 184.896 158.75 180.643 151.998C180.173 150.545 179.643 149.55 179.009 148.913C177.246 149.352 175.455 149.754 173.653 150.133Z" fill="#CECFD1"/>
<path d="M118.057 180.884C116.134 180.429 114.19 182.733 111.995 186.131L115.29 189.811C115.29 189.811 122.438 197.441 127.033 199.873C134.96 205.467 148.056 200.438 150.574 191.958C151.495 187.227 148.872 182.489 147.226 177.948C146.87 176.851 146.384 176.099 145.807 175.618C137.643 180.06 128.263 182.228 118.057 180.884Z" fill="#CECFD1"/>
<path d="M31.6527 68.1978C58.0722 -1.80673 162.326 -9.62201 196.188 59.7611C204.946 74.1786 208.605 90.8511 216.613 105.572C229.279 121.968 234.415 146.318 216.513 158.995C204.808 167.29 191.616 167.569 178.102 165.687C178.101 165.685 178.101 165.682 178.1 165.679C176.299 165.434 174.487 165.144 172.672 164.829C166.303 173.133 157.825 180.319 148.253 184.826C153.948 200.568 171.214 203.108 176.728 193.461C182.32 183.682 179.925 176.997 178.475 169.15C178.554 167.959 178.494 167.016 178.296 166.266C178.495 167.017 178.557 167.963 178.478 169.158C179.928 177.004 182.322 183.689 176.73 193.468C171.217 203.116 153.951 200.577 148.255 184.834C145.143 186.309 141.897 187.482 138.563 188.336L137.894 188.503L137.894 188.502C128.856 190.665 119.234 190.316 109.731 186.361C107.992 185.421 105.516 187.139 102.511 189.848L104.735 194.259C104.735 194.259 108.124 200.621 111.451 204.809C108.14 200.641 104.766 194.32 104.735 194.26L102.506 189.85C97.1595 194.644 90.1682 202.488 82.8616 203.856C50.1935 214.169 36.4338 191.365 36.5175 161.932C30.1916 127.971 18.812 104.868 31.6527 68.1978ZM127.338 211.808C127.488 211.79 127.638 211.769 127.788 211.746L128.235 211.674C127.938 211.726 127.638 211.771 127.338 211.808ZM120.142 211.279C120.43 211.363 120.721 211.438 121.015 211.506C120.721 211.438 120.43 211.363 120.142 211.279ZM115.385 208.899L115.386 208.899C115.504 208.99 115.622 209.079 115.742 209.165L115.741 209.166C115.621 209.079 115.503 208.99 115.385 208.899ZM113.092 206.684C112.714 206.303 112.327 205.872 111.937 205.406C112.327 205.872 112.714 206.303 113.092 206.684Z" fill="#FDFDFE"/>
<path d="M54.7306 102.091C53.0714 97.181 53.5311 92.738 56.1575 88.795C58.7538 84.9104 62.3611 82.2255 67.4303 82.758C70.5392 83.0938 73.2771 84.4075 75.6706 86.4588C79.1547 89.4466 80.8262 93.3988 81.0883 97.7796C81.3198 101.715 80.0946 105.384 77.0164 108.248C73.7622 111.273 69.8166 112.067 65.661 111.623C62.4061 111.271 59.7594 109.461 57.4487 107.094C55.931 105.524 55.4559 103.565 54.7306 102.091Z" fill="#050505"/>
<path d="M131.713 73.8129C133.788 80.0387 133.329 84.4645 130.405 88.3594C126.692 93.2892 119.224 95.633 113.057 91.7548C109.381 89.4441 106.975 86.1683 106.224 81.9557C105.46 77.6783 106.194 73.554 108.77 69.8737C110.664 67.1646 113.1 65.167 116.421 64.7647C119.742 64.3624 122.951 65.2161 125.826 67.0127C129.051 69.0038 131.029 71.9273 131.713 73.8129Z" fill="#050505"/>
<path d="M111.882 133.815C104.976 135.848 98.7402 135.273 93.111 131.378C90.9707 129.892 88.9539 128.093 87.6897 125.654C87.2438 124.792 86.3658 124.214 86.0413 123.201C85.3749 120.986 86.3413 119.264 88.6014 118.835C89.7232 118.622 91.6689 119.76 92.2483 120.94C94.173 124.849 97.2615 127.302 101.492 128.412C106.068 129.61 110.323 128.587 114.016 126.009C118.061 123.184 120.345 119.068 120.609 114.034C120.648 113.329 120.382 112.606 120.246 111.894C120.038 110.798 121.047 108.705 122.035 108.199C123.633 107.383 125.545 108.154 126.304 109.861C127.099 111.652 126.863 113.554 126.725 115.366C126.562 118.025 125.814 120.616 124.534 122.958C123.125 125.516 121.261 127.798 119.034 129.694C116.788 131.611 114.225 132.873 111.882 133.815Z" fill="#050505"/>
</g>
</g>
<defs>
<clipPath id="clip0_462_6690">
<rect width="238" height="222" fill="white"/>
</clipPath>
<clipPath id="clip1_462_6690">
<rect width="196" height="199" fill="white" transform="translate(-4.68359 45.6416) rotate(-17.7631)"/>
</clipPath>
</defs>
</svg>
