<svg width="238" height="222" viewBox="0 0 238 222" fill="none" xmlns="http://www.w3.org/2000/svg">
<path d="M224.517 102.672C221.947 93.1709 216.586 83.4162 209.779 78.1154L209.826 78.1013C208.607 76.7775 207.257 75.4792 205.55 74.7538C205.27 73.7602 204.619 73.5175 203.678 73.4977C203.019 72.4506 201.775 71.8042 200.57 71.5417C199.95 57.3161 199.934 40.7195 189.85 30.3325L189.816 30.42C189.727 29.2261 188.695 28.5656 187.729 27.7668C187.858 26.9201 183.701 23.4004 183.121 23.0955C183.301 22.3701 182.805 22.4294 182.359 22.4294C181.639 21.5121 181.535 20.2363 180.1 20.4536L180.069 20.5242C179.725 20.1375 179.509 19.556 178.889 19.7085C179.091 18.5202 178.259 18.7686 177.609 18.7601C177.696 18.3282 176.275 17.5125 175.927 17.6311C175.821 16.8492 175.35 16.8041 174.708 16.9113C174.641 16.3045 173.937 16.4541 173.567 16.3271C174.288 15.198 167.609 13.4791 166.662 12.9767C165.821 12.1582 164.779 12.8723 163.876 12.6295C163.481 11.4582 162.427 12.0396 161.699 11.8674C146.285 8.29973 133.472 16.8605 120.076 21.1988C109.527 19.5024 100.755 12.2344 89.6294 11.365C75.4038 9.25093 60.2534 17.3996 51.8655 26.3527L51.5684 26.6576C50.0018 27.0668 50.1812 28.0971 49.3264 29.1979C47.998 29.593 46.0306 33.2906 45.6831 34.2784C45.3356 34.3123 44.9657 34.3349 45.3805 34.8204C45.2095 35.1619 44.7751 35.2494 44.8368 35.6869C44.1221 36.4716 43.3879 37.1631 43.4355 38.2272C42.4126 38.6534 42.2865 39.5312 42.3145 40.4852C41.5943 41.3602 41.2271 42.3312 40.6498 43.3953C37.8473 50.9682 37.6455 59.0971 37.8053 67.1047C34.2993 80.3085 14.1632 81.8609 12.4033 111.139C10.6012 120.736 15.0152 136.353 22.1196 144.019C21.9823 144.807 22.5932 144.66 22.994 145.106C22.994 145.422 23.0388 145.605 23.4256 145.591C22.994 146.65 24.0057 146.246 24.3952 146.796C24.8436 147.55 25.4237 148.49 26.357 148.795C26.4327 149.563 27.3463 149.486 27.7919 150.178C27.6714 151.321 28.6887 150.776 29.1679 151.307C29.0446 152.097 30.2889 151.75 30.0871 152.272C30.132 152.227 30.2637 152.199 30.2553 152.145C35.8211 155.058 36.5974 158.516 36.1966 164.511C37.1186 171.322 38.7945 178.485 42.5471 183.806C51.3638 202.186 75.0114 214.811 97.7062 209.601C105.273 207.58 112.148 203.764 117.097 199.307C121.685 195.782 132.424 211.235 145.982 210.292C169.748 214.913 192.784 196.242 199.373 174.141C203.386 169.154 199.345 159.362 203.602 155.216C219.904 145.806 229.946 122.373 224.517 102.672ZM74.748 208.861C78.1783 209.708 81.6394 210.321 85.179 210.414C81.6394 210.318 78.1783 209.708 74.748 208.861ZM209.745 78.1126C209.745 78.1126 209.745 78.1126 209.745 78.1267C209.745 78.1408 209.745 78.1069 209.745 78.1013V78.1126Z" fill="#3372B9"/>
<path d="M89.0875 55.9037C96.9345 57.7016 102.287 62.5028 105.533 69.8217L106.5 73.1748C106.516 73.2736 106.53 73.3724 106.547 73.4712C106.805 74.9415 106.965 76.4276 107.024 77.9195C107.08 81.2897 106.16 84.4453 105.02 87.5585L105.037 87.5331L104.179 89.2436L104.196 89.2239L103.335 90.6492L103.352 90.6323L102.966 91.1601L103.002 91.1432L102.75 91.5045L102.775 91.4734C102.396 91.7692 102.099 92.1579 101.912 92.6024L101.959 92.5714L101.64 92.9044C99.9611 94.6947 98.095 96.2969 96.0742 97.683C90.8306 100.686 85.2508 101.773 79.3123 100.539C77.6 100.184 75.9493 99.5854 74.2538 99.0971L74.279 99.1253C74.2257 98.9757 74.1557 98.8431 73.9595 98.8882C73.8887 98.8518 73.8088 98.8371 73.7297 98.8459C73.6344 98.5354 73.3514 98.5919 73.1272 98.5326L73.1552 98.5552C73.0711 98.2391 72.7853 98.3096 72.5695 98.2475L72.6003 98.2814L72.2892 97.9766L72.3116 97.9935C71.9128 97.5979 71.4352 97.2919 70.9104 97.0959L70.9412 97.1213L70.4423 96.7346L70.3639 96.7742L70.4339 96.7205C70.2181 96.5709 70.0052 96.4185 69.7922 96.2661L69.8118 96.283L69.3634 95.8907L69.3185 95.8738C69.2205 95.7947 69.1224 95.7101 69.0383 95.6282V95.6141L67.8276 94.5302L67.6202 94.3185L67.2671 93.9827L67.3091 94.0052L66.7823 93.3843L66.7963 93.4069L66.1433 92.6024L66.1629 92.6278C66.0648 92.5149 65.9667 92.4049 65.8827 92.292L65.9191 92.3287L65.6388 91.973L65.6809 91.9956L64.742 90.6323H64.756L63.635 88.6339L63.6575 88.665C63.6098 88.4364 63.5986 88.1936 63.3576 88.0666L63.38 88.0948C62.0852 84.7671 61.2165 81.3715 61.3566 77.7474C61.4771 74.6736 62.3038 71.7862 63.3688 68.9438L63.3492 68.9693C63.6402 68.6419 63.8394 68.2425 63.9265 67.812L63.9069 67.8374L64.2264 67.256L64.204 67.287L64.8597 66.2088H64.8261C64.9046 66.0874 64.9831 65.9632 65.0643 65.8419L65.0391 65.8701L65.4202 65.3479L65.3838 65.3649C65.4679 65.2435 65.5492 65.1221 65.6332 65.0036L65.6108 65.0318L66.4684 63.8858L66.4348 63.9084L66.7458 63.5782L66.9756 63.31L67.3876 62.8302H67.368L67.6482 62.5338L67.5642 62.4859L67.6398 62.5451L67.9201 62.2403V62.2685L68.4974 61.704L68.475 61.5968V61.704L68.7552 61.4218L69.212 61.0068L69.4923 60.7839L70.1341 60.2532L70.1032 60.273L70.6245 59.8891L70.6021 59.9061L70.9384 59.6238L70.902 59.6633L71.2607 59.4093L71.2467 59.4488L71.7707 59.0734L71.7427 59.096L72.1014 58.8617L72.1183 58.8899L73.1664 58.221L73.1328 58.2464C73.357 58.1956 73.598 58.1758 73.7157 57.9274L73.6877 57.95L74.2762 57.6424L74.251 57.665L78.1465 56.1718L78.4407 56.121C81.9775 55.3307 85.5199 55.1359 89.0875 55.9037Z" fill="#FDFDFD"/>
<path d="M159.393 56.1405C166.276 58.2066 171.315 62.4658 174.46 68.9774C176.235 73.3367 176.751 78.1125 175.948 82.7543C175.541 85.2692 174.426 87.5187 173.375 89.7937L173.392 89.7768C173.21 90.059 173.025 90.3667 172.831 90.6602V90.6461L172.257 91.507L172.271 91.4901L171.654 92.3368C168.669 95.9906 164.695 98.6937 160.214 100.119C154.119 101.784 148.287 101.098 142.707 98.1428H142.679L141.309 97.296L141.213 97.3948L141.3 97.2876L140.639 96.8557L139.812 96.2489L139.829 96.2658L139.375 95.8678H139.338L139.022 95.6223H139.047L138.402 95.0832L137.598 94.3013C137.492 94.1912 137.382 94.0812 137.276 93.9683L137.043 93.734L135.603 92.0207V92.0376L134.762 90.8804L134.782 90.8973C132.539 87.1123 131.138 83.0902 131.021 78.6136C130.928 75.0149 131.777 71.6617 133.097 68.3819L133.075 68.4101C133.327 68.2859 133.33 68.0375 133.375 67.8117L133.352 67.8399C133.596 67.7214 133.618 67.4787 133.669 67.2528L133.641 67.2867C133.899 67.1766 133.921 66.9254 133.969 66.7025L133.941 66.7363C134.226 66.4912 134.432 66.1659 134.532 65.8021C137.144 61.969 140.454 58.9771 144.764 57.1876C146.147 56.6409 147.569 56.2003 149.018 55.8695C152.455 55.2 155.995 55.2924 159.393 56.1405Z" fill="#FDFDFD"/>
<path d="M119.027 127.142C110.664 126.688 103.935 123.473 100.09 115.527C99.2928 113.982 98.8766 112.267 98.877 110.526C98.9078 108.872 99.2161 107.401 100.87 106.676C102.672 105.883 104.415 106.055 105.998 107.291C106.982 108.098 107.691 109.194 108.027 110.427C110.706 119.16 122.704 120.122 127.793 114.505C128.911 113.245 129.768 111.773 130.316 110.176C131.364 107.285 133.637 105.806 136.17 106.269C138.454 106.687 139.684 108.344 139.354 110.921C138.58 116.941 135.296 121.285 130.153 124.246C126.78 126.224 122.93 127.226 119.027 127.142Z" fill="#010101"/>
<path d="M78.8434 60.0043C85.3088 59.8095 91.5696 66.2506 91.2641 73.4848C91.0147 79.4488 86.0963 85.9915 78.0054 85.777C71.7278 85.6076 65.8678 79.3529 66.0023 72.8215C66.1508 65.7256 71.9716 59.9168 78.8434 60.0043Z" fill="#010101"/>
<path d="M149.376 61.0004C155.665 60.9468 161.94 65.8834 162.035 73.7329C162.117 80.4365 156.688 86.8154 149.309 86.7703C142.541 86.7308 136.947 80.9643 137 74.0067C137.051 66.7754 142.533 61.0145 149.376 61.0004Z" fill="#010101"/>
</svg>
