<svg width="238" height="222" viewBox="0 0 238 222" fill="none" xmlns="http://www.w3.org/2000/svg">
<path d="M223.937 97.161C220.873 87.8078 215.009 78.347 207.933 73.4098L207.98 73.3932C206.694 72.1351 205.277 70.9092 203.534 70.2741C203.202 69.2966 202.54 69.0882 201.599 69.1178C200.886 68.1065 199.61 67.5262 198.393 67.3271C197.03 53.1534 196.144 36.5804 185.531 26.7354L185.502 26.8245C185.35 25.6369 184.286 25.0313 183.278 24.2843C183.363 23.4319 179.028 20.1345 178.433 19.8605C178.574 19.1267 178.082 19.2118 177.637 19.2352C176.869 18.3568 176.699 17.0882 175.278 17.3803L175.251 17.4524C174.886 17.0843 174.64 16.5149 174.03 16.6995C174.169 15.5023 173.351 15.7939 172.701 15.8195C172.765 15.3837 171.304 14.6435 170.963 14.78C170.815 14.0048 170.343 13.9844 169.708 14.1251C169.609 13.5226 168.914 13.7088 168.538 13.6013C169.198 12.4361 162.439 11.0691 161.467 10.6169C160.584 9.84351 159.58 10.6112 158.667 10.416C158.211 9.26695 157.189 9.90275 156.452 9.76894C140.873 7.01283 128.525 16.2325 115.375 21.2659C104.752 20.1239 95.6114 13.3249 84.4552 13.039C70.1385 11.6724 55.4353 20.6028 47.5274 29.9826L47.2467 30.3026C45.7037 30.7933 45.9367 31.8127 45.1407 32.9567C43.8348 33.4209 42.0637 37.2163 41.7684 38.221C41.4231 38.273 41.0549 38.315 41.4945 38.7781C41.3416 39.1281 40.9124 39.2382 40.9969 39.6719C40.3243 40.4928 39.6272 41.2218 39.7305 42.282C38.7313 42.7612 38.6513 43.6444 38.7292 44.5956C38.0557 45.5071 37.7399 46.4959 37.2191 47.5888C34.8167 55.298 35.0407 63.4263 35.6193 71.4146C32.8092 84.7838 12.7819 87.3879 12.5567 116.718C11.2594 126.396 16.4846 141.761 23.9805 149.044C23.8846 149.838 24.487 149.66 24.9105 150.084C24.9271 150.4 24.9815 150.58 25.3669 150.546C24.9913 151.626 25.9805 151.17 26.3984 151.699C26.8856 152.428 27.5141 153.336 28.462 153.592C28.5778 154.355 29.4861 154.231 29.9673 154.898C29.9068 156.046 30.8942 155.449 31.4006 155.953C31.3188 156.749 32.5432 156.337 32.3691 156.869C32.4115 156.822 32.5415 156.787 32.5303 156.734C38.2409 159.351 39.1971 162.763 39.1107 168.771C40.3879 175.525 42.4364 182.591 46.4623 187.707C56.2289 205.601 80.5048 216.972 102.896 210.581C110.346 208.166 117.012 203.996 121.721 199.286C126.118 195.525 137.651 210.396 151.142 208.745C175.117 212.115 197.144 192.264 202.568 169.849C206.314 164.658 201.766 155.092 205.8 150.728C221.588 140.477 230.389 116.551 223.937 97.161ZM79.9304 211.044C83.4003 211.71 86.8887 212.14 90.4283 212.048C86.8885 212.137 83.4003 211.71 79.9304 211.044ZM207.9 73.4088C207.9 73.4088 207.9 73.4088 207.9 73.4229C207.901 73.4369 207.899 73.4031 207.899 73.3975L207.9 73.4088Z" fill="#87B08C"/>
<path d="M89.0875 55.9037C96.9345 57.7016 102.287 62.5028 105.533 69.8217L106.5 73.1748C106.516 73.2736 106.53 73.3724 106.547 73.4712C106.805 74.9415 106.965 76.4276 107.024 77.9195C107.08 81.2897 106.16 84.4453 105.02 87.5585L105.037 87.5331L104.179 89.2436L104.196 89.2239L103.335 90.6492L103.352 90.6323L102.966 91.1601L103.002 91.1432L102.75 91.5045L102.775 91.4734C102.396 91.7692 102.099 92.1579 101.912 92.6024L101.959 92.5714L101.64 92.9044C99.9611 94.6947 98.095 96.2969 96.0742 97.683C90.8306 100.686 85.2508 101.773 79.3123 100.539C77.6 100.184 75.9493 99.5854 74.2538 99.0971L74.279 99.1253C74.2257 98.9757 74.1557 98.8431 73.9595 98.8882C73.8887 98.8518 73.8088 98.8371 73.7297 98.8459C73.6344 98.5354 73.3514 98.5919 73.1272 98.5326L73.1552 98.5552C73.0711 98.2391 72.7853 98.3096 72.5695 98.2475L72.6003 98.2814L72.2892 97.9766L72.3116 97.9935C71.9128 97.5979 71.4352 97.2919 70.9104 97.0959L70.9412 97.1213L70.4423 96.7346L70.3639 96.7742L70.4339 96.7205C70.2181 96.5709 70.0052 96.4185 69.7922 96.2661L69.8118 96.283L69.3634 95.8907L69.3185 95.8738C69.2205 95.7947 69.1224 95.7101 69.0383 95.6282V95.6141L67.8276 94.5302L67.6202 94.3185L67.2671 93.9827L67.3091 94.0052L66.7823 93.3843L66.7963 93.4069L66.1433 92.6024L66.1629 92.6278C66.0648 92.5149 65.9667 92.4049 65.8827 92.292L65.9191 92.3287L65.6388 91.973L65.6809 91.9956L64.742 90.6323H64.756L63.635 88.6339L63.6575 88.665C63.6098 88.4364 63.5986 88.1936 63.3576 88.0666L63.38 88.0948C62.0852 84.7671 61.2165 81.3715 61.3566 77.7474C61.4771 74.6736 62.3038 71.7862 63.3688 68.9438L63.3492 68.9693C63.6402 68.6419 63.8394 68.2425 63.9265 67.812L63.9069 67.8374L64.2264 67.256L64.204 67.287L64.8597 66.2088H64.8261C64.9046 66.0874 64.9831 65.9632 65.0643 65.8419L65.0391 65.8701L65.4202 65.3479L65.3838 65.3649C65.4679 65.2435 65.5492 65.1221 65.6332 65.0036L65.6108 65.0318L66.4684 63.8858L66.4348 63.9084L66.7458 63.5782L66.9756 63.31L67.3876 62.8302H67.368L67.6482 62.5338L67.5642 62.4859L67.6398 62.5451L67.9201 62.2403V62.2685L68.4974 61.704L68.475 61.5968V61.704L68.7552 61.4218L69.212 61.0068L69.4923 60.7839L70.1341 60.2532L70.1032 60.273L70.6245 59.8891L70.6021 59.9061L70.9384 59.6238L70.902 59.6633L71.2607 59.4093L71.2467 59.4488L71.7707 59.0734L71.7427 59.096L72.1014 58.8617L72.1183 58.8899L73.1664 58.221L73.1328 58.2464C73.357 58.1956 73.598 58.1758 73.7157 57.9274L73.6877 57.95L74.2762 57.6424L74.251 57.665L78.1465 56.1718L78.4407 56.121C81.9775 55.3307 85.5199 55.1359 89.0875 55.9037Z" fill="#FDFDFD"/>
<path d="M159.393 56.1405C166.276 58.2066 171.315 62.4658 174.46 68.9774C176.235 73.3367 176.751 78.1125 175.948 82.7543C175.541 85.2692 174.426 87.5187 173.375 89.7937L173.392 89.7768C173.21 90.059 173.025 90.3667 172.831 90.6602V90.6461L172.257 91.507L172.271 91.4901L171.654 92.3368C168.669 95.9906 164.695 98.6937 160.214 100.119C154.119 101.784 148.287 101.098 142.707 98.1428H142.679L141.309 97.296L141.213 97.3948L141.3 97.2876L140.639 96.8557L139.812 96.2489L139.829 96.2658L139.375 95.8678H139.338L139.022 95.6223H139.047L138.402 95.0832L137.598 94.3013C137.492 94.1912 137.382 94.0812 137.276 93.9683L137.043 93.734L135.603 92.0207V92.0376L134.762 90.8804L134.782 90.8973C132.539 87.1123 131.138 83.0902 131.021 78.6136C130.928 75.0149 131.777 71.6617 133.097 68.3819L133.075 68.4101C133.327 68.2859 133.33 68.0375 133.375 67.8117L133.352 67.8399C133.596 67.7214 133.618 67.4787 133.669 67.2528L133.641 67.2867C133.899 67.1766 133.921 66.9254 133.969 66.7025L133.941 66.7363C134.226 66.4912 134.432 66.1659 134.532 65.8021C137.144 61.969 140.454 58.9771 144.764 57.1876C146.147 56.6409 147.569 56.2003 149.018 55.8695C152.455 55.2 155.995 55.2924 159.393 56.1405Z" fill="#FDFDFD"/>
<path d="M119.027 127.142C110.664 126.688 103.935 123.473 100.09 115.527C99.2928 113.982 98.8766 112.267 98.877 110.526C98.9078 108.872 99.2161 107.401 100.87 106.676C102.672 105.883 104.415 106.055 105.998 107.291C106.982 108.098 107.691 109.194 108.027 110.427C110.706 119.16 122.704 120.122 127.793 114.505C128.911 113.245 129.768 111.773 130.316 110.176C131.364 107.285 133.637 105.806 136.17 106.269C138.454 106.687 139.684 108.344 139.354 110.921C138.58 116.941 135.296 121.285 130.153 124.246C126.78 126.224 122.93 127.226 119.027 127.142Z" fill="#010101"/>
<path d="M76.8434 65.0043C83.3088 64.8095 89.5696 71.2506 89.2641 78.4848C89.0147 84.4488 84.0963 90.9915 76.0054 90.777C69.7278 90.6076 63.8678 84.3529 64.0023 77.8215C64.1508 70.7256 69.9716 64.9168 76.8434 65.0043Z" fill="#010101"/>
<path d="M147.376 66.0004C153.665 65.9468 159.94 70.8834 160.035 78.7329C160.117 85.4365 154.688 91.8154 147.309 91.7703C140.541 91.7308 134.947 85.9643 135 79.0067C135.051 71.7754 140.533 66.0145 147.376 66.0004Z" fill="#010101"/>
</svg>
