<svg width="100" height="100" viewBox="0 0 100 100" fill="none" xmlns="http://www.w3.org/2000/svg">
<path d="M43.5471 96.2745C38.9461 96.3084 34.1999 95.4435 29.8852 92.8701C25.8735 90.4769 23.0754 87.0577 21.5025 82.6539C19.8279 77.9671 19.8957 73.2061 20.963 68.4122C21.0584 67.9883 20.998 67.7509 20.5465 67.5558C12.5094 64.0678 8.46806 57.8113 8.03351 49.1774C7.73144 43.1891 9.49827 37.6671 12.2614 32.4313C15.7463 25.8335 20.5868 20.3623 26.4024 15.7349C32.3769 10.9845 38.9885 7.45188 46.3791 5.45718C51.1422 4.17154 55.9795 3.61722 60.8995 4.28389C65.6202 4.91982 69.917 6.57324 73.4676 9.85252C77.0182 13.1318 78.9653 17.2155 79.6362 21.9532C80.094 25.1827 79.8704 28.3825 79.1698 31.5579C78.9695 32.4694 78.9705 32.463 79.8312 32.8393C85.5768 35.3523 89.4104 39.5876 91.1942 45.6088C92.2541 49.1838 92.3145 52.8319 91.7241 56.5023C91.3513 58.7934 90.7477 61.0408 89.9223 63.2103C87.969 68.3857 85.0606 72.9878 81.4337 77.1414C76.8637 82.3895 71.3982 86.7845 65.2917 90.1218C60.129 92.9517 54.6674 94.9645 48.8211 95.8452C47.0738 96.0992 45.3123 96.2425 43.5471 96.2745ZM33.8173 66.5797C35.9933 66.6369 38.466 66.3243 40.9186 65.8028C43.9418 65.1778 46.8657 64.1437 49.6096 62.7291C51.1592 61.9215 51.4549 60.0858 50.2349 58.9697C49.4072 58.213 48.4798 58.2437 47.5153 58.6835C46.6769 59.0662 45.8523 59.4806 44.9949 59.8123C40.3992 61.5908 35.6435 62.3126 30.7235 61.9035C27.5651 61.6406 24.5455 60.8849 21.7336 59.3905C20.1724 58.5617 18.7532 57.5378 17.6212 56.1663C16.1628 54.4005 15.387 52.374 15.3647 50.0635C15.352 48.8393 14.4331 47.895 13.2895 47.8515C11.9752 47.8017 11.0552 48.6019 10.8782 49.8854C10.7786 50.5998 10.8549 51.3036 10.9387 51.9999C11.3213 55.1668 12.7776 57.8155 14.9906 60.055C17.0913 62.1843 19.6244 63.6586 22.4098 64.7058C25.9657 66.0593 29.6753 66.62 33.8173 66.5797ZM66.2689 32.64C62.8942 32.586 59.3595 33.1403 55.8979 34.1907C53.9297 34.7884 52.0113 35.5219 50.1957 36.498C48.6059 37.3512 48.3378 39.2177 49.6499 40.3263C50.5423 41.0799 51.5089 40.9294 52.484 40.4525C57.7262 37.8865 63.2588 36.8573 69.0744 37.3258C72.1958 37.577 75.1793 38.32 77.9679 39.7805C79.6807 40.6772 81.2101 41.8059 82.4056 43.3406C83.7316 45.0439 84.4258 46.9718 84.4427 49.1435C84.4512 50.2712 85.2705 51.223 86.2869 51.3619C87.5217 51.5293 88.5392 50.8966 88.8529 49.7286C89.0002 49.1806 88.9684 48.6157 88.9366 48.0455C88.7777 45.1467 87.7135 42.5987 85.9043 40.374C83.6711 37.6268 80.7724 35.789 77.491 34.5447C73.9605 33.2071 70.2922 32.6061 66.2689 32.64ZM14.0293 44.7874C15.4071 44.8001 16.467 43.6957 16.5052 42.2076C16.5141 41.9062 16.4625 41.6061 16.3533 41.3251C16.2441 41.044 16.0797 40.7877 15.8696 40.5713C15.6596 40.355 15.4083 40.183 15.1306 40.0655C14.8529 39.9481 14.5544 39.8876 14.2529 39.8875C12.9683 39.8875 11.8682 41.0789 11.8459 42.5023C11.8215 43.8144 12.7405 44.7747 14.0293 44.7874ZM87.9552 56.6835C87.9662 56.386 87.9169 56.0894 87.8101 55.8115C87.7033 55.5336 87.5413 55.2802 87.3339 55.0666C87.1265 54.8531 86.8779 54.6838 86.6033 54.5689C86.3286 54.4541 86.0335 54.3961 85.7358 54.3984C84.4544 54.3878 83.3383 55.6003 83.2896 57.0534C83.2493 58.2797 84.27 59.3152 85.5376 59.3343C86.8349 59.3534 87.9329 58.1494 87.9552 56.6835Z" fill="#3372B9"/>
<path d="M33.8185 66.579C29.6764 66.6193 25.9668 66.0586 22.3971 64.7051C19.6171 63.6527 17.0839 62.1837 14.9779 60.0543C12.7649 57.8106 11.3086 55.1619 10.926 51.9992C10.8423 51.3029 10.766 50.5991 10.8656 49.8848C11.0426 48.6012 11.9626 47.801 13.2768 47.8508C14.4204 47.8943 15.3394 48.8386 15.3521 50.0628C15.3743 52.3734 16.1502 54.3999 17.6086 56.1656C18.7405 57.5371 20.1597 58.561 21.7209 59.3898C24.5328 60.8842 27.5503 61.6399 30.7109 61.9028C35.6309 62.3119 40.3866 61.5901 44.9822 59.8116C45.8397 59.4799 46.6643 59.0697 47.5026 58.6829C48.4671 58.243 49.3945 58.2123 50.2223 58.969C51.4422 60.0851 51.1465 61.9208 49.597 62.7284C46.853 64.143 43.9291 65.1771 40.9059 65.8021C38.4671 66.3204 35.9944 66.6384 33.8185 66.579Z" fill="#C0D3E9"/>
<path d="M66.2687 32.6403C70.2963 32.6064 73.9603 33.2074 77.4908 34.5481C80.7765 35.7914 83.671 37.6292 85.9042 40.3775C87.7134 42.6032 88.7775 45.147 88.9365 48.0489C88.9683 48.6192 89.0001 49.1841 88.8528 49.732C88.5348 50.8979 87.5216 51.5338 86.2868 51.3653C85.2704 51.2265 84.4511 50.2747 84.4426 49.147C84.4256 46.9753 83.7314 45.0473 82.4055 43.3441C81.2099 41.8094 79.6805 40.6806 77.9678 39.784C75.1792 38.3234 72.1956 37.5805 69.0743 37.3293C63.2587 36.8608 57.7261 37.8899 52.4839 40.4559C51.5088 40.9329 50.5422 41.0834 49.6497 40.3298C48.3376 39.2212 48.61 37.3547 50.1956 36.5015C52.0112 35.5253 53.9296 34.7919 55.8978 34.1941C59.3594 33.1406 62.8941 32.5863 66.2687 32.6403Z" fill="#C0D3E9"/>
<path d="M14.0297 44.7876C12.7409 44.7748 11.822 43.8146 11.8421 42.5024C11.8644 41.079 12.9645 39.8835 14.2491 39.8877C14.551 39.8871 14.8499 39.9473 15.1281 40.0645C15.4063 40.1817 15.6581 40.3536 15.8686 40.57C16.0791 40.7864 16.2439 41.0429 16.3534 41.3242C16.4628 41.6056 16.5146 41.906 16.5056 42.2078C16.4717 43.6959 15.4108 44.8056 14.0297 44.7876Z" fill="#C0D3E9"/>
<path d="M87.9558 56.6837C87.9336 58.1495 86.8355 59.3536 85.5382 59.3334C84.2664 59.3143 83.2499 58.2735 83.2902 57.0525C83.339 55.5994 84.4561 54.3869 85.7364 54.3975C86.0342 54.3952 86.3294 54.4532 86.6041 54.5681C86.8789 54.683 87.1275 54.8524 87.3349 55.0661C87.5424 55.2798 87.7043 55.5333 87.811 55.8113C87.9178 56.0893 87.967 56.3861 87.9558 56.6837Z" fill="#C0D3E9"/>
</svg>
