<svg xmlns="http://www.w3.org/2000/svg" viewBox="0 0 916.64 305.19"><defs><style>.cls-1{fill:none;}.cls-2{fill:#414148;}.cls-3{fill:#3372b9;}.cls-4{fill:#c0d3e9;}</style></defs><g id="圖層_2" data-name="圖層 2"><g id="圖層_1-2" data-name="圖層 1"><rect class="cls-1" width="916.64" height="305.19"/><path class="cls-2" d="M387.16,220.06c-16.28.21-30.41-2.79-42.19-12.86-7.88-6.73-11.9-15.55-12.94-25.81-.19-1.76.24-2.52,2.12-2.5,5.77.07,11.54,0,17.31,0,1.21,0,2,.22,2.31,1.66,2.77,12.71,12.28,17.5,23.76,19.46,8.17,1.4,16.44,1.31,24.4-1.55a29.05,29.05,0,0,0,6.25-3.08c12.69-8.48,11.65-25.19-2-31.93-8.71-4.31-18.3-5.55-27.64-7.65s-18.29-4.59-26.56-9.47c-20.77-12.29-21.58-41.21-6.23-56.51,19.35-19.3,59.5-19.69,79.28-.77,7.17,6.85,10.61,15.43,11.73,25.11.19,1.71-.5,2.23-2,2.22-5.77,0-11.54,0-17.31,0a2.26,2.26,0,0,1-2.53-2.09c-2.3-11.62-10.52-16.92-21.17-18.93-8.45-1.6-17-1.16-24.92,2.72-8.44,4.11-12.43,11.53-10.86,20.05,1,5.46,4.54,8.9,9.09,11.53,5.9,3.4,12.45,4.86,19,6.26,10.31,2.22,20.74,4,30.51,8.23,13.74,6,22.13,15.85,22.76,31.27.68,16.89-6,29.82-21.16,37.83A61.91,61.91,0,0,1,387.16,220.06Z"/><path class="cls-2" d="M479.18,130.32c4.18-5.27,8.55-9.92,14.38-13,16.21-8.49,43.91-6.14,55,20,8.69,20.48,8.53,41.54-1.83,61.59-11.87,23-41.4,26.31-58.58,12.82-3.33-2.62-5.81-6-9-10.23V206c0,14-.06,28,.05,42,0,2.64-.66,3.64-3.43,3.52-4.93-.2-9.88-.15-14.82,0-2.33.06-3.38-.36-3.38-3.09q.13-65.19,0-130.38c0-2.2.5-3.27,3-3.2,5.21.14,10.43.13,15.65,0,2.44,0,3,1,3,3.24C479.1,122.15,479.18,126.24,479.18,130.32ZM479.09,166a43.08,43.08,0,0,0,3.24,18.55c4.66,10.84,13.88,17.09,24.58,16.65,10.87-.45,19.19-6.84,23-18.12a50.74,50.74,0,0,0-.27-34.21C526,138.75,519,132.47,507.79,131.75s-19.19,4.44-24.38,14.12A39.59,39.59,0,0,0,479.09,166Z"/><path class="cls-2" d="M814.3,197c5.56-17.77,11.08-35.37,16.59-53,2.7-8.62,5.47-17.23,8-25.91.7-2.39,1.67-3.35,4.25-3.25,5.21.2,10.44.16,15.65,0,2.8-.08,3.69.53,2.62,3.47-13,35.91-25.72,71.89-38.83,107.75-4,11-10.28,20.4-22.45,24a51.65,51.65,0,0,1-23.19,1.42c-1.64-.27-2.07-1-2-2.41,0-.82,0-1.64,0-2.47,0-3.7-1.27-8.27.44-10.87,2-3,6.83-.51,10.43-.93,8.29-.94,15.91-8.71,16.14-17.16a9.35,9.35,0,0,0-.89-3.12q-17.36-47.65-34.73-95.28c-1.59-4.37-1.63-4.36,3.1-4.37,4.94,0,9.9.18,14.83-.07,2.9-.15,4,1,4.81,3.63,7.83,25.36,15.8,50.67,23.72,76A3.55,3.55,0,0,0,814.3,197Z"/><path class="cls-2" d="M690.19,164c.4,8.12-.78,18.16.53,28.12.9,6.82,4.41,9.66,11.37,9.9,8.1.28,8.1.28,8.1,8.56s0,8.39-8.59,8.59c-4,.09-8,.29-11.9-.51-13.93-2.81-20.89-10.92-21-25.17q-.25-28.8,0-57.61c0-3.28-.89-4.19-4.1-4.06-3.5.14-9.41,1.44-10.09-.54-1.57-4.53-.69-9.93-.7-15,0-1.56,1.36-1.46,2.46-1.46,3,0,6.06-.21,9.06,0,2.84.25,3.4-.91,3.34-3.48-.16-6.3.17-12.63-.14-18.92-.17-3.44,1.08-4.14,4.18-4a125.73,125.73,0,0,0,13.59,0c3-.16,4.1.63,4,3.83-.26,6.44.05,12.89-.14,19.34-.07,2.59.78,3.31,3.27,3.21,4.25-.18,8.52.11,12.77-.11,3-.15,4.33.69,4.06,3.88-.35,4.22,1.68,9.67-.76,12.36s-8,.77-12.2.86c-7.07.15-7.08,0-7.08,7.2Z"/><path class="cls-2" d="M729.1,147.15c0-22.08.09-44.15-.08-66.22,0-3.67,1-4.81,4.63-4.56a105.22,105.22,0,0,0,13.17,0c3.14-.17,3.95,1,3.93,4-.13,17.28-.06,34.55-.06,51.83,0,27-.06,54,.07,81,0,3.31-.68,4.64-4.23,4.4a106.1,106.1,0,0,0-13.58,0c-3.1.19-3.94-.77-3.92-3.86.14-20.57.07-41.13.07-61.7Z"/><path class="cls-2" d="M594.31,147.14c0,22.21-.06,44.42.07,66.62,0,3.06-.74,4.08-3.87,3.88a118.31,118.31,0,0,0-13.58,0c-3.13.17-4.22-.62-4.17-4,.21-14,.09-28,.09-41.94,0-30.3,0-60.59-.07-90.89,0-3.29.68-4.68,4.25-4.43a107.17,107.17,0,0,0,13.17,0c3.23-.19,4.2.85,4.18,4.13C594.24,102.73,594.31,124.94,594.31,147.14Z"/><path class="cls-2" d="M618.14,166.56c0-15.76.13-31.52-.09-47.27,0-3.75,1.11-4.74,4.66-4.49a113.29,113.29,0,0,0,13.16,0c2.91-.13,3.78.91,3.75,3.77-.12,13.84,0,27.68,0,41.52,0,18-.06,35.9.06,53.85,0,2.85-.72,3.84-3.65,3.69a133.23,133.23,0,0,0-14,0c-3,.16-4-.64-3.93-3.81C618.23,198.08,618.14,182.32,618.14,166.56Z"/><path class="cls-2" d="M628.78,74.61c7.29,0,12.53,5.21,12.52,12.37a12.53,12.53,0,0,1-25.06,0A12.13,12.13,0,0,1,628.78,74.61Z"/><path class="cls-3" d="M149.42,258.3c-11.38.08-23.11-2.05-33.77-8.41a47,47,0,0,1-20.73-25.26c-4.13-11.58-4-23.35-1.33-35.2.24-1.05.09-1.64-1-2.12-19.87-8.62-29.85-24.09-30.93-45.43-.75-14.8,3.62-28.45,10.45-41.39,8.62-16.31,20.58-29.83,35-41.27a135.47,135.47,0,0,1,49.38-25.41c11.77-3.18,23.73-4.55,35.89-2.9,11.67,1.57,22.29,5.66,31.07,13.77S237,62.88,238.62,74.59a66.08,66.08,0,0,1-1.15,23.74c-.49,2.25-.49,2.24,1.64,3.17,14.2,6.21,23.67,16.68,28.08,31.56A60.06,60.06,0,0,1,268.5,160a84.94,84.94,0,0,1-4.45,16.58,113,113,0,0,1-21,34.44,145.47,145.47,0,0,1-39.9,32.08,122.31,122.31,0,0,1-40.72,14.15A103.41,103.41,0,0,1,149.42,258.3Zm-24-73.4A77.32,77.32,0,0,0,142.92,183a84,84,0,0,0,21.48-7.6c3.83-2,4.56-6.53,1.55-9.29-2-1.87-4.34-1.8-6.73-.71-2.07,1-4.11,2-6.23,2.79a78.48,78.48,0,0,1-35.27,5.17,56.75,56.75,0,0,1-22.22-6.21,32.89,32.89,0,0,1-10.17-8,23.51,23.51,0,0,1-5.58-15.09,5.39,5.39,0,0,0-5.13-5.46,5.48,5.48,0,0,0-6,5,20.31,20.31,0,0,0,.15,5.23,33.6,33.6,0,0,0,10,19.91,49.94,49.94,0,0,0,18.34,11.5A75.65,75.65,0,0,0,125.37,184.9ZM205.58,101A84.36,84.36,0,0,0,180,104.84a76.93,76.93,0,0,0-14.1,5.7c-3.93,2.11-4.59,6.72-1.35,9.46,2.21,1.87,4.6,1.49,7,.32a77.37,77.37,0,0,1,41-7.73,56.47,56.47,0,0,1,22,6.06,33,33,0,0,1,11,8.8,23.06,23.06,0,0,1,5,14.35,5.53,5.53,0,0,0,4.56,5.48,5.45,5.45,0,0,0,6.35-4,13.23,13.23,0,0,0,.2-4.17,32.28,32.28,0,0,0-7.49-19c-5.52-6.79-12.69-11.33-20.8-14.41A75.26,75.26,0,0,0,205.58,101ZM76.45,131c3.41,0,6-2.7,6.12-6.38a5.62,5.62,0,0,0-.37-2.18,5.56,5.56,0,0,0-1.2-1.86,5.47,5.47,0,0,0-1.83-1.25,5.54,5.54,0,0,0-2.17-.44c-3.17,0-5.89,2.94-6,6.46A5.31,5.31,0,0,0,76.45,131Zm182.74,29.41a5.67,5.67,0,0,0-.36-2.16,5.58,5.58,0,0,0-1.18-1.84,5.4,5.4,0,0,0-1.8-1.23,5.46,5.46,0,0,0-2.15-.42c-3.17,0-5.93,3-6,6.56a5.58,5.58,0,0,0,5.56,5.64C256.42,167,259.13,164.06,259.19,160.44Z"/><path class="cls-4" d="M125.37,184.9a75.91,75.91,0,0,1-28.23-4.63,50.37,50.37,0,0,1-18.34-11.5c-5.47-5.55-9.07-12.09-10-19.91a20.31,20.31,0,0,1-.15-5.23,5.5,5.5,0,0,1,6-5,5.4,5.4,0,0,1,5.13,5.47,23.45,23.45,0,0,0,5.58,15.09,33,33,0,0,0,10.16,8,56.8,56.8,0,0,0,22.23,6.21A78.48,78.48,0,0,0,153,168.17c2.12-.82,4.16-1.83,6.23-2.79,2.39-1.09,4.68-1.16,6.73.71,3,2.76,2.28,7.29-1.55,9.29a84,84,0,0,1-21.48,7.6A77.39,77.39,0,0,1,125.37,184.9Z"/><path class="cls-4" d="M205.58,101a74.82,74.82,0,0,1,27.74,4.71c8.12,3.07,15.28,7.62,20.8,14.41a32.25,32.25,0,0,1,7.49,19,13.15,13.15,0,0,1-.2,4.16,5.46,5.46,0,0,1-6.35,4,5.53,5.53,0,0,1-4.56-5.48,23,23,0,0,0-5-14.35,33,33,0,0,0-11-8.8,56.47,56.47,0,0,0-22-6.06,77.46,77.46,0,0,0-41,7.72c-2.41,1.18-4.8,1.56-7-.31-3.24-2.74-2.57-7.35,1.35-9.46a76.23,76.23,0,0,1,14.1-5.7A83.75,83.75,0,0,1,205.58,101Z"/><path class="cls-4" d="M76.45,131a5.32,5.32,0,0,1-5.4-5.65c0-3.52,2.77-6.47,6-6.46a5.61,5.61,0,0,1,2.17.44A5.47,5.47,0,0,1,81,120.61a5.56,5.56,0,0,1,1.2,1.86,5.44,5.44,0,0,1,.37,2.18C82.49,128.33,79.87,131.08,76.45,131Z"/><path class="cls-4" d="M259.19,160.44c-.06,3.62-2.77,6.6-6,6.55a5.57,5.57,0,0,1-5.55-5.64c.12-3.59,2.88-6.59,6-6.56a5.46,5.46,0,0,1,5.13,3.49A5.49,5.49,0,0,1,259.19,160.44Z"/></g></g></svg>