<svg width="238" height="222" viewBox="0 0 238 222" fill="none" xmlns="http://www.w3.org/2000/svg">
<path d="M106.279 207.625C96.924 207.694 87.2734 205.936 78.5 200.703C70.3429 195.837 64.6534 188.885 61.4552 179.93C58.0502 170.4 58.1881 160.72 60.3583 150.972C60.5522 150.11 60.4294 149.627 59.5113 149.231C43.1691 142.138 34.9517 129.417 34.0681 111.861C33.4539 99.6848 37.0465 88.4566 42.6649 77.8104C49.7508 64.3949 59.5932 53.2702 71.4183 43.861C83.5666 34.2018 97.0102 27.0189 112.038 22.9629C121.723 20.3488 131.559 19.2217 141.563 20.5772C151.162 21.8703 159.898 25.2323 167.118 31.9002C174.338 38.5681 178.297 46.8717 179.661 56.505C180.592 63.0716 180.137 69.5779 178.712 76.0346C178.305 77.888 178.307 77.8751 180.057 78.6401C191.74 83.7499 199.535 92.3617 203.162 104.605C205.317 111.874 205.44 119.292 204.24 126.755C203.482 131.414 202.254 135.983 200.576 140.395C196.604 150.918 190.691 160.276 183.316 168.721C174.023 179.393 162.91 188.329 150.493 195.115C139.996 200.869 128.891 204.962 117.003 206.753C113.45 207.269 109.869 207.56 106.279 207.625ZM86.4954 147.246C90.9199 147.362 95.9477 146.726 100.935 145.666C107.082 144.395 113.027 142.293 118.607 139.416C121.757 137.774 122.359 134.041 119.878 131.772C118.195 130.233 116.309 130.296 114.348 131.19C112.643 131.968 110.967 132.811 109.223 133.485C99.8786 137.102 90.2087 138.569 80.2047 137.737C73.7824 137.203 67.6425 135.666 61.925 132.628C58.7506 130.942 55.8649 128.861 53.5632 126.072C50.5978 122.481 49.0203 118.361 48.975 113.663C48.9491 111.174 47.0807 109.253 44.7553 109.165C42.083 109.064 40.2123 110.691 39.8524 113.301C39.6499 114.753 39.805 116.184 39.9753 117.6C40.7533 124.04 43.7144 129.425 48.2143 133.979C52.4857 138.309 57.6364 141.306 63.3 143.436C70.5304 146.188 78.0733 147.328 86.4954 147.246ZM152.48 78.235C145.619 78.1251 138.431 79.2522 131.393 81.3879C127.391 82.6034 123.49 84.0947 119.798 86.0796C116.566 87.8144 116.02 91.6096 118.688 93.8638C120.503 95.3961 122.468 95.0901 124.451 94.1203C135.11 88.9027 146.36 86.8101 158.185 87.7627C164.532 88.2735 170.598 89.7842 176.269 92.7539C179.751 94.5771 182.861 96.8723 185.292 99.9929C187.988 103.456 189.4 107.376 189.434 111.792C189.451 114.085 191.117 116.02 193.184 116.303C195.695 116.643 197.764 115.357 198.402 112.982C198.701 111.868 198.636 110.719 198.572 109.559C198.248 103.665 196.085 98.4844 192.406 93.9608C187.865 88.3748 181.971 84.6378 175.299 82.1077C168.12 79.388 160.661 78.166 152.48 78.235ZM46.2596 102.935C49.0612 102.961 51.2163 100.715 51.2939 97.6891C51.3121 97.0763 51.2071 96.466 50.9851 95.8945C50.7631 95.323 50.4287 94.8019 50.0016 94.362C49.5746 93.9221 49.0636 93.5723 48.4989 93.3335C47.9343 93.0947 47.3274 92.9716 46.7143 92.9716C44.1023 92.9716 41.8653 95.3939 41.8201 98.2882C41.7705 100.956 43.639 102.909 46.2596 102.935ZM196.576 127.124C196.599 126.519 196.498 125.915 196.281 125.35C196.064 124.785 195.735 124.27 195.313 123.836C194.891 123.402 194.386 123.057 193.827 122.824C193.269 122.59 192.669 122.472 192.063 122.477C189.458 122.456 187.188 124.921 187.089 127.876C187.007 130.369 189.083 132.475 191.66 132.513C194.298 132.552 196.531 130.104 196.576 127.124Z" fill="#3372B9"/>
<path d="M86.4975 147.244C78.0753 147.326 70.5325 146.186 63.2741 143.434C57.6212 141.294 52.4705 138.307 48.1883 133.978C43.6885 129.415 40.7273 124.03 39.9493 117.599C39.7791 116.183 39.6239 114.752 39.8265 113.299C40.1864 110.689 42.057 109.062 44.7294 109.164C47.0547 109.252 48.9232 111.172 48.9491 113.661C48.9943 118.359 50.5719 122.48 53.5373 126.07C55.8389 128.859 58.7246 130.941 61.8991 132.626C67.6166 135.665 73.7522 137.202 80.1787 137.736C90.1827 138.568 99.8527 137.1 109.197 133.484C110.941 132.809 112.617 131.975 114.322 131.189C116.283 130.294 118.169 130.232 119.852 131.771C122.333 134.04 121.731 137.773 118.581 139.415C113.001 142.291 107.056 144.394 100.909 145.665C95.9498 146.719 90.9219 147.365 86.4975 147.244Z" fill="#8BB8EB"/>
<path d="M152.481 78.2359C160.67 78.1669 168.12 79.3888 175.299 82.1151C181.98 84.643 187.865 88.3799 192.406 93.9681C196.085 98.4939 198.249 103.666 198.572 109.567C198.637 110.726 198.701 111.875 198.402 112.989C197.755 115.36 195.695 116.653 193.184 116.31C191.118 116.028 189.452 114.093 189.434 111.799C189.4 107.384 187.988 103.464 185.292 100C182.861 96.8797 179.751 94.5845 176.269 92.7613C170.599 89.7915 164.532 88.2808 158.185 87.77C146.36 86.8175 135.111 88.9101 124.451 94.1276C122.469 95.0974 120.503 95.4034 118.689 93.8712C116.021 91.6169 116.575 87.8218 119.799 86.0869C123.49 84.1021 127.391 82.6107 131.393 81.3952C138.432 79.2531 145.619 78.1259 152.481 78.2359Z" fill="#8BB8EB"/>
<path d="M46.2613 102.935C43.6407 102.909 41.7722 100.956 41.8132 98.2883C41.8584 95.394 44.0954 92.9631 46.7074 92.9717C47.3212 92.9706 47.929 93.0928 48.4947 93.3311C49.0604 93.5694 49.5724 93.919 50.0004 94.359C50.4283 94.799 50.7635 95.3206 50.986 95.8926C51.2085 96.4647 51.3138 97.0757 51.2956 97.6892C51.2267 100.715 49.0694 102.971 46.2613 102.935Z" fill="#8BB8EB"/>
<path d="M196.577 127.124C196.532 130.105 194.299 132.553 191.661 132.512C189.075 132.473 187.008 130.357 187.09 127.874C187.189 124.92 189.461 122.454 192.064 122.476C192.67 122.471 193.27 122.589 193.829 122.823C194.387 123.056 194.893 123.401 195.314 123.835C195.736 124.27 196.066 124.785 196.283 125.35C196.5 125.916 196.6 126.519 196.577 127.124Z" fill="#8BB8EB"/>
</svg>
