<svg width="238" height="222" viewBox="0 0 238 222" fill="none" xmlns="http://www.w3.org/2000/svg">
<path d="M106.279 207.625C96.924 207.694 87.2734 205.936 78.5 200.703C70.3429 195.837 64.6534 188.885 61.4552 179.93C58.0502 170.4 58.1881 160.72 60.3583 150.972C60.5522 150.11 60.4294 149.627 59.5113 149.231C43.1691 142.138 34.9517 129.417 34.0681 111.861C33.4539 99.6848 37.0465 88.4566 42.6649 77.8104C49.7508 64.3949 59.5932 53.2702 71.4183 43.861C83.5666 34.2018 97.0102 27.0189 112.038 22.9629C121.723 20.3488 131.559 19.2217 141.563 20.5772C151.162 21.8703 159.898 25.2323 167.118 31.9002C174.338 38.5681 178.297 46.8717 179.661 56.505C180.592 63.0716 180.137 69.5779 178.712 76.0346C178.305 77.888 178.307 77.8751 180.057 78.6401C191.74 83.7499 199.535 92.3617 203.162 104.605C205.317 111.874 205.44 119.292 204.24 126.755C203.482 131.414 202.254 135.983 200.576 140.395C196.604 150.918 190.691 160.276 183.316 168.721C174.023 179.393 162.91 188.329 150.493 195.115C139.996 200.869 128.891 204.962 117.003 206.753C113.45 207.269 109.869 207.56 106.279 207.625ZM86.4954 147.246C90.9199 147.362 95.9477 146.726 100.935 145.666C107.082 144.395 113.027 142.293 118.607 139.416C121.757 137.774 122.359 134.041 119.878 131.772C118.195 130.233 116.309 130.296 114.348 131.19C112.643 131.968 110.967 132.811 109.223 133.485C99.8786 137.102 90.2087 138.569 80.2047 137.737C73.7824 137.203 67.6425 135.666 61.925 132.628C58.7506 130.942 55.8649 128.861 53.5632 126.072C50.5978 122.481 49.0203 118.361 48.975 113.663C48.9491 111.174 47.0807 109.253 44.7553 109.165C42.083 109.064 40.2123 110.691 39.8524 113.301C39.6499 114.753 39.805 116.184 39.9753 117.6C40.7533 124.04 43.7144 129.425 48.2143 133.979C52.4857 138.309 57.6364 141.306 63.3 143.436C70.5304 146.188 78.0733 147.328 86.4954 147.246ZM152.48 78.235C145.619 78.1251 138.431 79.2522 131.393 81.3879C127.391 82.6034 123.49 84.0947 119.798 86.0796C116.566 87.8144 116.02 91.6096 118.688 93.8638C120.503 95.3961 122.468 95.0901 124.451 94.1203C135.11 88.9027 146.36 86.8101 158.185 87.7627C164.532 88.2735 170.598 89.7842 176.269 92.7539C179.751 94.5771 182.861 96.8723 185.292 99.9929C187.988 103.456 189.4 107.376 189.434 111.792C189.451 114.085 191.117 116.02 193.184 116.303C195.695 116.643 197.764 115.357 198.402 112.982C198.701 111.868 198.636 110.719 198.572 109.559C198.248 103.665 196.085 98.4844 192.406 93.9608C187.865 88.3748 181.971 84.6378 175.299 82.1077C168.12 79.388 160.661 78.166 152.48 78.235ZM46.2596 102.935C49.0612 102.961 51.2163 100.715 51.2939 97.6891C51.3121 97.0763 51.2071 96.466 50.9851 95.8945C50.7631 95.323 50.4287 94.8019 50.0016 94.362C49.5746 93.9221 49.0636 93.5723 48.4989 93.3335C47.9343 93.0947 47.3274 92.9716 46.7143 92.9716C44.1023 92.9716 41.8653 95.3939 41.8201 98.2882C41.7705 100.956 43.639 102.909 46.2596 102.935ZM196.576 127.124C196.599 126.519 196.498 125.915 196.281 125.35C196.064 124.785 195.735 124.27 195.313 123.836C194.891 123.402 194.386 123.057 193.827 122.824C193.269 122.59 192.669 122.472 192.063 122.477C189.458 122.456 187.188 124.921 187.089 127.876C187.007 130.369 189.083 132.475 191.66 132.513C194.298 132.552 196.531 130.104 196.576 127.124Z" fill="#3372B9"/>
<path d="M86.4975 147.244C78.0753 147.326 70.5325 146.186 63.2741 143.434C57.6212 141.294 52.4705 138.307 48.1883 133.978C43.6885 129.415 40.7273 124.03 39.9493 117.599C39.7791 116.183 39.6239 114.752 39.8265 113.299C40.1864 110.689 42.057 109.062 44.7294 109.164C47.0547 109.252 48.9232 111.172 48.9491 113.661C48.9943 118.359 50.5719 122.48 53.5373 126.07C55.8389 128.859 58.7246 130.941 61.8991 132.626C67.6166 135.665 73.7522 137.202 80.1787 137.736C90.1827 138.568 99.8527 137.1 109.197 133.484C110.941 132.809 112.617 131.975 114.322 131.189C116.283 130.294 118.169 130.232 119.852 131.771C122.333 134.04 121.731 137.773 118.581 139.415C113.001 142.291 107.056 144.394 100.909 145.665C95.9498 146.719 90.9219 147.365 86.4975 147.244Z" fill="#3372B9"/>
<path d="M152.48 78.2359C160.669 78.1669 168.119 79.3888 175.298 82.1151C181.979 84.643 187.864 88.3799 192.405 93.9681C196.084 98.4939 198.248 103.666 198.571 109.567C198.636 110.726 198.7 111.875 198.401 112.989C197.754 115.36 195.694 116.653 193.183 116.31C191.117 116.028 189.451 114.093 189.433 111.799C189.399 107.384 187.987 103.464 185.291 100C182.86 96.8797 179.75 94.5845 176.268 92.7613C170.598 89.7915 164.531 88.2808 158.184 87.77C146.359 86.8175 135.11 88.9101 124.45 94.1276C122.468 95.0974 120.502 95.4034 118.688 93.8712C116.02 91.6169 116.574 87.8218 119.798 86.0869C123.489 84.1021 127.39 82.6107 131.392 81.3952C138.431 79.2531 145.618 78.1259 152.48 78.2359Z" fill="#3372B9"/>
<path d="M46.2603 102.935C43.6397 102.909 41.7712 100.956 41.8122 98.2883C41.8574 95.394 44.0944 92.9631 46.7064 92.9717C47.3203 92.9706 47.9281 93.0928 48.4937 93.3311C49.0594 93.5694 49.5714 93.919 49.9994 94.359C50.4274 94.799 50.7626 95.3206 50.9851 95.8926C51.2076 96.4647 51.3128 97.0757 51.2947 97.6892C51.2257 100.715 49.0684 102.971 46.2603 102.935Z" fill="#3372B9"/>
<path d="M196.577 127.124C196.532 130.105 194.299 132.553 191.661 132.512C189.075 132.473 187.008 130.357 187.09 127.874C187.189 124.92 189.461 122.454 192.064 122.476C192.67 122.471 193.27 122.589 193.829 122.823C194.387 123.056 194.893 123.401 195.314 123.835C195.736 124.27 196.066 124.785 196.283 125.35C196.5 125.916 196.6 126.519 196.577 127.124Z" fill="#3372B9"/>
<path d="M93.0788 61.4046C99.6059 62.9022 104.058 66.9013 106.758 72.9975L107.562 75.7905C107.576 75.8728 107.588 75.9551 107.602 76.0374C107.817 77.262 107.949 78.4999 107.998 79.7426C108.045 82.5498 107.28 85.1782 106.331 87.7714L106.345 87.7502L105.632 89.175L105.646 89.1585L104.93 90.3458L104.944 90.3317L104.623 90.7713L104.653 90.7572L104.443 91.0581L104.464 91.0323C104.149 91.2787 103.902 91.6025 103.746 91.9727L103.786 91.9468L103.52 92.2243C102.123 93.7155 100.571 95.05 98.8903 96.2046C94.5287 98.7061 89.8875 99.6112 84.9478 98.5838C83.5235 98.2876 82.1505 97.7892 80.7401 97.3824L80.7611 97.4059C80.7168 97.2813 80.6586 97.1708 80.4954 97.2085C80.4365 97.1781 80.37 97.1658 80.3042 97.1732C80.225 96.9146 79.9895 96.9616 79.803 96.9122L79.8263 96.931C79.7564 96.6677 79.5186 96.7265 79.3391 96.6748L79.3648 96.703L79.106 96.4491L79.1247 96.4632C78.793 96.1336 78.3957 95.8788 77.9591 95.7155L77.9848 95.7367L77.5698 95.4146L77.5045 95.4475L77.5628 95.4029C77.3833 95.2783 77.2062 95.1513 77.029 95.0243L77.0453 95.0384L76.6723 94.7117L76.635 94.6976C76.5534 94.6317 76.4719 94.5612 76.4019 94.493V94.4813L75.3949 93.5785L75.2224 93.4021L74.9287 93.1224L74.9636 93.1412L74.5254 92.6239L74.537 92.6427L73.9939 91.9727L74.0102 91.9939C73.9286 91.8998 73.847 91.8081 73.7771 91.7141L73.8074 91.7447L73.5743 91.4484L73.6092 91.4672L72.8283 90.3317H72.84L71.9075 88.6671L71.9262 88.693C71.8865 88.5026 71.8772 88.3004 71.6767 88.1946L71.6954 88.2181C70.6184 85.4462 69.8958 82.6179 70.0123 79.5992C70.1125 77.0389 70.8002 74.6338 71.6861 72.2663L71.6697 72.2875C71.9118 72.0149 72.0775 71.6822 72.1499 71.3236L72.1336 71.3447L72.3994 70.8604L72.3807 70.8863L72.9262 69.9882H72.8982C72.9635 69.8871 73.0288 69.7837 73.0964 69.6826L73.0754 69.7061L73.3924 69.2711L73.3621 69.2852C73.4321 69.1841 73.4997 69.083 73.5696 68.9843L73.551 69.0078L74.2643 68.0533L74.2363 68.0721L74.4951 67.797L74.6862 67.5737L75.0289 67.174H75.0126L75.2457 66.9272L75.1758 66.8872L75.2387 66.9366L75.4718 66.6826V66.7062L75.952 66.2359L75.9334 66.1466V66.2359L76.1665 66.0008L76.5464 65.6552L76.7796 65.4695L77.3134 65.0275L77.2877 65.044L77.7213 64.7242L77.7027 64.7383L77.9824 64.5032L77.9521 64.5362L78.2505 64.3246L78.2388 64.3575L78.6748 64.0448L78.6515 64.0636L78.9498 63.8685L78.9638 63.892L79.8357 63.3348L79.8077 63.3559C79.9942 63.3136 80.1947 63.2972 80.2926 63.0903L80.2693 63.1091L80.7588 62.8528L80.7378 62.8716L83.9781 61.6279L84.2228 61.5856C87.1647 60.9273 90.1113 60.7651 93.0788 61.4046Z" fill="#FDFDFD"/>
<path d="M151.179 61.5942C156.8 63.3168 160.916 66.8677 163.484 72.2966C164.934 75.931 165.355 79.9126 164.699 83.7825C164.367 85.8792 163.456 87.7547 162.598 89.6514L162.612 89.6373C162.463 89.8726 162.312 90.1291 162.154 90.3738V90.3621L161.685 91.0798L161.696 91.0657L161.193 91.7717C158.754 94.8179 155.509 97.0715 151.849 98.2594C146.871 99.6478 142.108 99.076 137.55 96.6122H137.527L136.408 95.9062L136.33 95.9886L136.401 95.8992L135.861 95.5391L135.186 95.0332L135.2 95.0473L134.829 94.7155H134.799L134.54 94.5108H134.561L134.035 94.0613L133.378 93.4095C133.291 93.3177 133.201 93.2259 133.114 93.1318L132.924 92.9365L131.748 91.5081V91.5222L131.061 90.5574L131.077 90.5715C129.246 87.4159 128.102 84.0626 128.006 80.3304C127.93 77.3301 128.624 74.5345 129.702 71.8001L129.683 71.8236C129.889 71.72 129.892 71.513 129.928 71.3247L129.91 71.3482C130.109 71.2494 130.127 71.047 130.169 70.8588L130.146 70.887C130.356 70.7952 130.375 70.5858 130.414 70.3999L130.391 70.4281C130.624 70.2238 130.792 69.9526 130.874 69.6492C133.007 66.4536 135.71 63.9592 139.23 62.4673C140.36 62.0114 141.522 61.6441 142.705 61.3683C145.512 60.8101 148.404 60.8872 151.179 61.5942Z" fill="#FDFDFD"/>
<path d="M118.909 121.996C112.307 121.649 106.994 119.195 103.958 113.131C103.328 111.951 103 110.642 103 109.313C103.024 108.05 103.268 106.928 104.573 106.374C105.996 105.769 107.372 105.9 108.622 106.844C109.399 107.46 109.959 108.297 110.224 109.237C112.34 115.903 121.812 116.638 125.831 112.351C126.713 111.389 127.39 110.265 127.822 109.046C128.65 106.839 130.444 105.711 132.444 106.064C134.248 106.383 135.219 107.647 134.958 109.614C134.347 114.21 131.754 117.526 127.694 119.786C125.03 121.296 121.991 122.061 118.909 121.996Z" fill="#010101"/>
<path d="M84.6711 65.0035C90.043 64.8449 95.2449 70.0912 94.9911 75.9836C94.7838 80.8414 90.6973 86.1705 83.9749 85.9958C78.759 85.8579 73.8901 80.7633 74.0019 75.4433C74.1253 69.6636 78.9616 64.9322 84.6711 65.0035Z" fill="#010101"/>
<path d="M142.887 66.0004C147.911 65.9567 152.923 69.9794 152.999 76.3759C153.064 81.8385 148.728 87.0366 142.833 86.9998C137.426 86.9676 132.958 82.2686 133 76.599C133.041 70.7063 137.42 66.0119 142.887 66.0004Z" fill="#010101"/>
</svg>
